<?xml version="1.0" encoding="utf-8" standalone="no"?>
<!DOCTYPE svg PUBLIC "-//W3C//DTD SVG 1.1//EN"
  "http://www.w3.org/Graphics/SVG/1.1/DTD/svg11.dtd">
<svg height="273.785445pt" version="1.1" viewBox="0 0 571.489195 273.785445" width="571.489195pt" xmlns="http://www.w3.org/2000/svg" xmlns:xlink="http://www.w3.org/1999/xlink">
 <metadata>
  <rdf:RDF xmlns:cc="http://creativecommons.org/ns#" xmlns:dc="http://purl.org/dc/elements/1.1/" xmlns:rdf="http://www.w3.org/1999/02/22-rdf-syntax-ns#">
   <cc:Work>
    <dc:type rdf:resource="http://purl.org/dc/dcmitype/StillImage"/>
    <dc:date>2022-08-18T10:55:59.189124</dc:date>
    <dc:format>image/svg+xml</dc:format>
    <dc:creator>
     <cc:Agent>
      <dc:title>Matplotlib v3.4.3, https://matplotlib.org/</dc:title>
     </cc:Agent>
    </dc:creator>
   </cc:Work>
  </rdf:RDF>
 </metadata>
 <defs>
  <style type="text/css">*{stroke-linecap:butt;stroke-linejoin:round;}</style>
 </defs>
 <g id="figure_1">
  <g id="patch_1">
   <path d="M 0 273.785445 
L 571.489195 273.785445 
L 571.489195 0 
L 0 0 
z
" style="fill:#ffffff;"/>
  </g>
  <g id="axes_1">
   <g id="patch_2">
    <path d="M 337.078125 236.229195 
L 550.989195 236.229195 
L 550.989195 22.318125 
L 337.078125 22.318125 
z
" style="fill:#ffffff;"/>
   </g>
   <g id="matplotlib.axis_1">
    <g id="xtick_1">
     <g id="line2d_1">
      <defs>
       <path d="M 0 0 
L 0 3.5 
" id="mb60ed81ac8" style="stroke:#000000;stroke-width:0.8;"/>
      </defs>
      <g>
       <use style="stroke:#000000;stroke-width:0.8;" x="337.078125" xlink:href="#mb60ed81ac8" y="236.229195"/>
      </g>
     </g>
     <g id="text_1">
      <!-- $0^\circ$ -->
      <g transform="translate(330.128125 250.827633)scale(0.1 -0.1)">
       <defs>
        <path d="M 2034 4250 
Q 1547 4250 1301 3770 
Q 1056 3291 1056 2328 
Q 1056 1369 1301 889 
Q 1547 409 2034 409 
Q 2525 409 2770 889 
Q 3016 1369 3016 2328 
Q 3016 3291 2770 3770 
Q 2525 4250 2034 4250 
z
M 2034 4750 
Q 2819 4750 3233 4129 
Q 3647 3509 3647 2328 
Q 3647 1150 3233 529 
Q 2819 -91 2034 -91 
Q 1250 -91 836 529 
Q 422 1150 422 2328 
Q 422 3509 836 4129 
Q 1250 4750 2034 4750 
z
" id="DejaVuSans-30" transform="scale(0.015625)"/>
        <path d="M 2003 2603 
Q 1753 2603 1581 2429 
Q 1409 2256 1409 2006 
Q 1409 1759 1581 1589 
Q 1753 1419 2003 1419 
Q 2253 1419 2425 1589 
Q 2597 1759 2597 2006 
Q 2597 2253 2423 2428 
Q 2250 2603 2003 2603 
z
M 2003 3006 
Q 2203 3006 2387 2929 
Q 2572 2853 2706 2709 
Q 2850 2569 2922 2390 
Q 2994 2212 2994 2006 
Q 2994 1594 2705 1308 
Q 2416 1022 1997 1022 
Q 1575 1022 1294 1303 
Q 1013 1584 1013 2006 
Q 1013 2425 1300 2715 
Q 1588 3006 2003 3006 
z
" id="DejaVuSans-2218" transform="scale(0.015625)"/>
       </defs>
       <use transform="translate(0 0.78125)" xlink:href="#DejaVuSans-30"/>
       <use transform="translate(78.217773 39.0625)scale(0.7)" xlink:href="#DejaVuSans-2218"/>
      </g>
     </g>
    </g>
    <g id="xtick_2">
     <g id="line2d_2">
      <g>
       <use style="stroke:#000000;stroke-width:0.8;" x="408.381815" xlink:href="#mb60ed81ac8" y="236.229195"/>
      </g>
     </g>
     <g id="text_2">
      <!-- $60^\circ$ -->
      <g transform="translate(398.231815 250.827633)scale(0.1 -0.1)">
       <defs>
        <path d="M 2113 2584 
Q 1688 2584 1439 2293 
Q 1191 2003 1191 1497 
Q 1191 994 1439 701 
Q 1688 409 2113 409 
Q 2538 409 2786 701 
Q 3034 994 3034 1497 
Q 3034 2003 2786 2293 
Q 2538 2584 2113 2584 
z
M 3366 4563 
L 3366 3988 
Q 3128 4100 2886 4159 
Q 2644 4219 2406 4219 
Q 1781 4219 1451 3797 
Q 1122 3375 1075 2522 
Q 1259 2794 1537 2939 
Q 1816 3084 2150 3084 
Q 2853 3084 3261 2657 
Q 3669 2231 3669 1497 
Q 3669 778 3244 343 
Q 2819 -91 2113 -91 
Q 1303 -91 875 529 
Q 447 1150 447 2328 
Q 447 3434 972 4092 
Q 1497 4750 2381 4750 
Q 2619 4750 2861 4703 
Q 3103 4656 3366 4563 
z
" id="DejaVuSans-36" transform="scale(0.015625)"/>
       </defs>
       <use transform="translate(0 0.78125)" xlink:href="#DejaVuSans-36"/>
       <use transform="translate(63.623047 0.78125)" xlink:href="#DejaVuSans-30"/>
       <use transform="translate(141.84082 39.0625)scale(0.7)" xlink:href="#DejaVuSans-2218"/>
      </g>
     </g>
    </g>
    <g id="xtick_3">
     <g id="line2d_3">
      <g>
       <use style="stroke:#000000;stroke-width:0.8;" x="479.685505" xlink:href="#mb60ed81ac8" y="236.229195"/>
      </g>
     </g>
     <g id="text_3">
      <!-- $120^\circ$ -->
      <g transform="translate(466.385505 250.827633)scale(0.1 -0.1)">
       <defs>
        <path d="M 794 531 
L 1825 531 
L 1825 4091 
L 703 3866 
L 703 4441 
L 1819 4666 
L 2450 4666 
L 2450 531 
L 3481 531 
L 3481 0 
L 794 0 
L 794 531 
z
" id="DejaVuSans-31" transform="scale(0.015625)"/>
        <path d="M 1228 531 
L 3431 531 
L 3431 0 
L 469 0 
L 469 531 
Q 828 903 1448 1529 
Q 2069 2156 2228 2338 
Q 2531 2678 2651 2914 
Q 2772 3150 2772 3378 
Q 2772 3750 2511 3984 
Q 2250 4219 1831 4219 
Q 1534 4219 1204 4116 
Q 875 4013 500 3803 
L 500 4441 
Q 881 4594 1212 4672 
Q 1544 4750 1819 4750 
Q 2544 4750 2975 4387 
Q 3406 4025 3406 3419 
Q 3406 3131 3298 2873 
Q 3191 2616 2906 2266 
Q 2828 2175 2409 1742 
Q 1991 1309 1228 531 
z
" id="DejaVuSans-32" transform="scale(0.015625)"/>
       </defs>
       <use transform="translate(0 0.78125)" xlink:href="#DejaVuSans-31"/>
       <use transform="translate(63.623047 0.78125)" xlink:href="#DejaVuSans-32"/>
       <use transform="translate(127.246094 0.78125)" xlink:href="#DejaVuSans-30"/>
       <use transform="translate(205.463867 39.0625)scale(0.7)" xlink:href="#DejaVuSans-2218"/>
      </g>
     </g>
    </g>
    <g id="xtick_4">
     <g id="line2d_4">
      <g>
       <use style="stroke:#000000;stroke-width:0.8;" x="550.989195" xlink:href="#mb60ed81ac8" y="236.229195"/>
      </g>
     </g>
     <g id="text_4">
      <!-- $180^\circ$ -->
      <g transform="translate(537.689195 250.827633)scale(0.1 -0.1)">
       <defs>
        <path d="M 2034 2216 
Q 1584 2216 1326 1975 
Q 1069 1734 1069 1313 
Q 1069 891 1326 650 
Q 1584 409 2034 409 
Q 2484 409 2743 651 
Q 3003 894 3003 1313 
Q 3003 1734 2745 1975 
Q 2488 2216 2034 2216 
z
M 1403 2484 
Q 997 2584 770 2862 
Q 544 3141 544 3541 
Q 544 4100 942 4425 
Q 1341 4750 2034 4750 
Q 2731 4750 3128 4425 
Q 3525 4100 3525 3541 
Q 3525 3141 3298 2862 
Q 3072 2584 2669 2484 
Q 3125 2378 3379 2068 
Q 3634 1759 3634 1313 
Q 3634 634 3220 271 
Q 2806 -91 2034 -91 
Q 1263 -91 848 271 
Q 434 634 434 1313 
Q 434 1759 690 2068 
Q 947 2378 1403 2484 
z
M 1172 3481 
Q 1172 3119 1398 2916 
Q 1625 2713 2034 2713 
Q 2441 2713 2670 2916 
Q 2900 3119 2900 3481 
Q 2900 3844 2670 4047 
Q 2441 4250 2034 4250 
Q 1625 4250 1398 4047 
Q 1172 3844 1172 3481 
z
" id="DejaVuSans-38" transform="scale(0.015625)"/>
       </defs>
       <use transform="translate(0 0.78125)" xlink:href="#DejaVuSans-31"/>
       <use transform="translate(63.623047 0.78125)" xlink:href="#DejaVuSans-38"/>
       <use transform="translate(127.246094 0.78125)" xlink:href="#DejaVuSans-30"/>
       <use transform="translate(205.463867 39.0625)scale(0.7)" xlink:href="#DejaVuSans-2218"/>
      </g>
     </g>
    </g>
    <g id="text_5">
     <!-- Angular position of C2 -->
     <g transform="translate(388.528973 264.505758)scale(0.1 -0.1)">
      <defs>
       <path d="M 2188 4044 
L 1331 1722 
L 3047 1722 
L 2188 4044 
z
M 1831 4666 
L 2547 4666 
L 4325 0 
L 3669 0 
L 3244 1197 
L 1141 1197 
L 716 0 
L 50 0 
L 1831 4666 
z
" id="DejaVuSans-41" transform="scale(0.015625)"/>
       <path d="M 3513 2113 
L 3513 0 
L 2938 0 
L 2938 2094 
Q 2938 2591 2744 2837 
Q 2550 3084 2163 3084 
Q 1697 3084 1428 2787 
Q 1159 2491 1159 1978 
L 1159 0 
L 581 0 
L 581 3500 
L 1159 3500 
L 1159 2956 
Q 1366 3272 1645 3428 
Q 1925 3584 2291 3584 
Q 2894 3584 3203 3211 
Q 3513 2838 3513 2113 
z
" id="DejaVuSans-6e" transform="scale(0.015625)"/>
       <path d="M 2906 1791 
Q 2906 2416 2648 2759 
Q 2391 3103 1925 3103 
Q 1463 3103 1205 2759 
Q 947 2416 947 1791 
Q 947 1169 1205 825 
Q 1463 481 1925 481 
Q 2391 481 2648 825 
Q 2906 1169 2906 1791 
z
M 3481 434 
Q 3481 -459 3084 -895 
Q 2688 -1331 1869 -1331 
Q 1566 -1331 1297 -1286 
Q 1028 -1241 775 -1147 
L 775 -588 
Q 1028 -725 1275 -790 
Q 1522 -856 1778 -856 
Q 2344 -856 2625 -561 
Q 2906 -266 2906 331 
L 2906 616 
Q 2728 306 2450 153 
Q 2172 0 1784 0 
Q 1141 0 747 490 
Q 353 981 353 1791 
Q 353 2603 747 3093 
Q 1141 3584 1784 3584 
Q 2172 3584 2450 3431 
Q 2728 3278 2906 2969 
L 2906 3500 
L 3481 3500 
L 3481 434 
z
" id="DejaVuSans-67" transform="scale(0.015625)"/>
       <path d="M 544 1381 
L 544 3500 
L 1119 3500 
L 1119 1403 
Q 1119 906 1312 657 
Q 1506 409 1894 409 
Q 2359 409 2629 706 
Q 2900 1003 2900 1516 
L 2900 3500 
L 3475 3500 
L 3475 0 
L 2900 0 
L 2900 538 
Q 2691 219 2414 64 
Q 2138 -91 1772 -91 
Q 1169 -91 856 284 
Q 544 659 544 1381 
z
M 1991 3584 
L 1991 3584 
z
" id="DejaVuSans-75" transform="scale(0.015625)"/>
       <path d="M 603 4863 
L 1178 4863 
L 1178 0 
L 603 0 
L 603 4863 
z
" id="DejaVuSans-6c" transform="scale(0.015625)"/>
       <path d="M 2194 1759 
Q 1497 1759 1228 1600 
Q 959 1441 959 1056 
Q 959 750 1161 570 
Q 1363 391 1709 391 
Q 2188 391 2477 730 
Q 2766 1069 2766 1631 
L 2766 1759 
L 2194 1759 
z
M 3341 1997 
L 3341 0 
L 2766 0 
L 2766 531 
Q 2569 213 2275 61 
Q 1981 -91 1556 -91 
Q 1019 -91 701 211 
Q 384 513 384 1019 
Q 384 1609 779 1909 
Q 1175 2209 1959 2209 
L 2766 2209 
L 2766 2266 
Q 2766 2663 2505 2880 
Q 2244 3097 1772 3097 
Q 1472 3097 1187 3025 
Q 903 2953 641 2809 
L 641 3341 
Q 956 3463 1253 3523 
Q 1550 3584 1831 3584 
Q 2591 3584 2966 3190 
Q 3341 2797 3341 1997 
z
" id="DejaVuSans-61" transform="scale(0.015625)"/>
       <path d="M 2631 2963 
Q 2534 3019 2420 3045 
Q 2306 3072 2169 3072 
Q 1681 3072 1420 2755 
Q 1159 2438 1159 1844 
L 1159 0 
L 581 0 
L 581 3500 
L 1159 3500 
L 1159 2956 
Q 1341 3275 1631 3429 
Q 1922 3584 2338 3584 
Q 2397 3584 2469 3576 
Q 2541 3569 2628 3553 
L 2631 2963 
z
" id="DejaVuSans-72" transform="scale(0.015625)"/>
       <path id="DejaVuSans-20" transform="scale(0.015625)"/>
       <path d="M 1159 525 
L 1159 -1331 
L 581 -1331 
L 581 3500 
L 1159 3500 
L 1159 2969 
Q 1341 3281 1617 3432 
Q 1894 3584 2278 3584 
Q 2916 3584 3314 3078 
Q 3713 2572 3713 1747 
Q 3713 922 3314 415 
Q 2916 -91 2278 -91 
Q 1894 -91 1617 61 
Q 1341 213 1159 525 
z
M 3116 1747 
Q 3116 2381 2855 2742 
Q 2594 3103 2138 3103 
Q 1681 3103 1420 2742 
Q 1159 2381 1159 1747 
Q 1159 1113 1420 752 
Q 1681 391 2138 391 
Q 2594 391 2855 752 
Q 3116 1113 3116 1747 
z
" id="DejaVuSans-70" transform="scale(0.015625)"/>
       <path d="M 1959 3097 
Q 1497 3097 1228 2736 
Q 959 2375 959 1747 
Q 959 1119 1226 758 
Q 1494 397 1959 397 
Q 2419 397 2687 759 
Q 2956 1122 2956 1747 
Q 2956 2369 2687 2733 
Q 2419 3097 1959 3097 
z
M 1959 3584 
Q 2709 3584 3137 3096 
Q 3566 2609 3566 1747 
Q 3566 888 3137 398 
Q 2709 -91 1959 -91 
Q 1206 -91 779 398 
Q 353 888 353 1747 
Q 353 2609 779 3096 
Q 1206 3584 1959 3584 
z
" id="DejaVuSans-6f" transform="scale(0.015625)"/>
       <path d="M 2834 3397 
L 2834 2853 
Q 2591 2978 2328 3040 
Q 2066 3103 1784 3103 
Q 1356 3103 1142 2972 
Q 928 2841 928 2578 
Q 928 2378 1081 2264 
Q 1234 2150 1697 2047 
L 1894 2003 
Q 2506 1872 2764 1633 
Q 3022 1394 3022 966 
Q 3022 478 2636 193 
Q 2250 -91 1575 -91 
Q 1294 -91 989 -36 
Q 684 19 347 128 
L 347 722 
Q 666 556 975 473 
Q 1284 391 1588 391 
Q 1994 391 2212 530 
Q 2431 669 2431 922 
Q 2431 1156 2273 1281 
Q 2116 1406 1581 1522 
L 1381 1569 
Q 847 1681 609 1914 
Q 372 2147 372 2553 
Q 372 3047 722 3315 
Q 1072 3584 1716 3584 
Q 2034 3584 2315 3537 
Q 2597 3491 2834 3397 
z
" id="DejaVuSans-73" transform="scale(0.015625)"/>
       <path d="M 603 3500 
L 1178 3500 
L 1178 0 
L 603 0 
L 603 3500 
z
M 603 4863 
L 1178 4863 
L 1178 4134 
L 603 4134 
L 603 4863 
z
" id="DejaVuSans-69" transform="scale(0.015625)"/>
       <path d="M 1172 4494 
L 1172 3500 
L 2356 3500 
L 2356 3053 
L 1172 3053 
L 1172 1153 
Q 1172 725 1289 603 
Q 1406 481 1766 481 
L 2356 481 
L 2356 0 
L 1766 0 
Q 1100 0 847 248 
Q 594 497 594 1153 
L 594 3053 
L 172 3053 
L 172 3500 
L 594 3500 
L 594 4494 
L 1172 4494 
z
" id="DejaVuSans-74" transform="scale(0.015625)"/>
       <path d="M 2375 4863 
L 2375 4384 
L 1825 4384 
Q 1516 4384 1395 4259 
Q 1275 4134 1275 3809 
L 1275 3500 
L 2222 3500 
L 2222 3053 
L 1275 3053 
L 1275 0 
L 697 0 
L 697 3053 
L 147 3053 
L 147 3500 
L 697 3500 
L 697 3744 
Q 697 4328 969 4595 
Q 1241 4863 1831 4863 
L 2375 4863 
z
" id="DejaVuSans-66" transform="scale(0.015625)"/>
       <path d="M 4122 4306 
L 4122 3641 
Q 3803 3938 3442 4084 
Q 3081 4231 2675 4231 
Q 1875 4231 1450 3742 
Q 1025 3253 1025 2328 
Q 1025 1406 1450 917 
Q 1875 428 2675 428 
Q 3081 428 3442 575 
Q 3803 722 4122 1019 
L 4122 359 
Q 3791 134 3420 21 
Q 3050 -91 2638 -91 
Q 1578 -91 968 557 
Q 359 1206 359 2328 
Q 359 3453 968 4101 
Q 1578 4750 2638 4750 
Q 3056 4750 3426 4639 
Q 3797 4528 4122 4306 
z
" id="DejaVuSans-43" transform="scale(0.015625)"/>
      </defs>
      <use xlink:href="#DejaVuSans-41"/>
      <use x="68.408203" xlink:href="#DejaVuSans-6e"/>
      <use x="131.787109" xlink:href="#DejaVuSans-67"/>
      <use x="195.263672" xlink:href="#DejaVuSans-75"/>
      <use x="258.642578" xlink:href="#DejaVuSans-6c"/>
      <use x="286.425781" xlink:href="#DejaVuSans-61"/>
      <use x="347.705078" xlink:href="#DejaVuSans-72"/>
      <use x="388.818359" xlink:href="#DejaVuSans-20"/>
      <use x="420.605469" xlink:href="#DejaVuSans-70"/>
      <use x="484.082031" xlink:href="#DejaVuSans-6f"/>
      <use x="545.263672" xlink:href="#DejaVuSans-73"/>
      <use x="597.363281" xlink:href="#DejaVuSans-69"/>
      <use x="625.146484" xlink:href="#DejaVuSans-74"/>
      <use x="664.355469" xlink:href="#DejaVuSans-69"/>
      <use x="692.138672" xlink:href="#DejaVuSans-6f"/>
      <use x="753.320312" xlink:href="#DejaVuSans-6e"/>
      <use x="816.699219" xlink:href="#DejaVuSans-20"/>
      <use x="848.486328" xlink:href="#DejaVuSans-6f"/>
      <use x="909.667969" xlink:href="#DejaVuSans-66"/>
      <use x="944.873047" xlink:href="#DejaVuSans-20"/>
      <use x="976.660156" xlink:href="#DejaVuSans-43"/>
      <use x="1046.484375" xlink:href="#DejaVuSans-32"/>
     </g>
    </g>
   </g>
   <g id="matplotlib.axis_2">
    <g id="ytick_1">
     <g id="line2d_5">
      <defs>
       <path d="M 0 0 
L -3.5 0 
" id="m31d4f419fe" style="stroke:#000000;stroke-width:0.8;"/>
      </defs>
      <g>
       <use style="stroke:#000000;stroke-width:0.8;" x="337.078125" xlink:href="#m31d4f419fe" y="236.229195"/>
      </g>
     </g>
     <g id="text_6">
      <!-- $0^\circ$ -->
      <g transform="translate(316.178125 240.028414)scale(0.1 -0.1)">
       <use transform="translate(0 0.78125)" xlink:href="#DejaVuSans-30"/>
       <use transform="translate(78.217773 39.0625)scale(0.7)" xlink:href="#DejaVuSans-2218"/>
      </g>
     </g>
    </g>
    <g id="ytick_2">
     <g id="line2d_6">
      <g>
       <use style="stroke:#000000;stroke-width:0.8;" x="337.078125" xlink:href="#m31d4f419fe" y="164.925505"/>
      </g>
     </g>
     <g id="text_7">
      <!-- $60^\circ$ -->
      <g transform="translate(309.778125 168.724724)scale(0.1 -0.1)">
       <use transform="translate(0 0.78125)" xlink:href="#DejaVuSans-36"/>
       <use transform="translate(63.623047 0.78125)" xlink:href="#DejaVuSans-30"/>
       <use transform="translate(141.84082 39.0625)scale(0.7)" xlink:href="#DejaVuSans-2218"/>
      </g>
     </g>
    </g>
    <g id="ytick_3">
     <g id="line2d_7">
      <g>
       <use style="stroke:#000000;stroke-width:0.8;" x="337.078125" xlink:href="#m31d4f419fe" y="93.621815"/>
      </g>
     </g>
     <g id="text_8">
      <!-- $120^\circ$ -->
      <g transform="translate(303.478125 97.421034)scale(0.1 -0.1)">
       <use transform="translate(0 0.78125)" xlink:href="#DejaVuSans-31"/>
       <use transform="translate(63.623047 0.78125)" xlink:href="#DejaVuSans-32"/>
       <use transform="translate(127.246094 0.78125)" xlink:href="#DejaVuSans-30"/>
       <use transform="translate(205.463867 39.0625)scale(0.7)" xlink:href="#DejaVuSans-2218"/>
      </g>
     </g>
    </g>
    <g id="ytick_4">
     <g id="line2d_8">
      <g>
       <use style="stroke:#000000;stroke-width:0.8;" x="337.078125" xlink:href="#m31d4f419fe" y="22.318125"/>
      </g>
     </g>
     <g id="text_9">
      <!-- $180^\circ$ -->
      <g transform="translate(303.478125 26.117344)scale(0.1 -0.1)">
       <use transform="translate(0 0.78125)" xlink:href="#DejaVuSans-31"/>
       <use transform="translate(63.623047 0.78125)" xlink:href="#DejaVuSans-38"/>
       <use transform="translate(127.246094 0.78125)" xlink:href="#DejaVuSans-30"/>
       <use transform="translate(205.463867 39.0625)scale(0.7)" xlink:href="#DejaVuSans-2218"/>
      </g>
     </g>
    </g>
    <g id="text_10">
     <!-- WVS Decision Variable L -->
     <g transform="translate(297.398438 189.897098)rotate(-90)scale(0.1 -0.1)">
      <defs>
       <path d="M 213 4666 
L 850 4666 
L 1831 722 
L 2809 4666 
L 3519 4666 
L 4500 722 
L 5478 4666 
L 6119 4666 
L 4947 0 
L 4153 0 
L 3169 4050 
L 2175 0 
L 1381 0 
L 213 4666 
z
" id="DejaVuSans-57" transform="scale(0.015625)"/>
       <path d="M 1831 0 
L 50 4666 
L 709 4666 
L 2188 738 
L 3669 4666 
L 4325 4666 
L 2547 0 
L 1831 0 
z
" id="DejaVuSans-56" transform="scale(0.015625)"/>
       <path d="M 3425 4513 
L 3425 3897 
Q 3066 4069 2747 4153 
Q 2428 4238 2131 4238 
Q 1616 4238 1336 4038 
Q 1056 3838 1056 3469 
Q 1056 3159 1242 3001 
Q 1428 2844 1947 2747 
L 2328 2669 
Q 3034 2534 3370 2195 
Q 3706 1856 3706 1288 
Q 3706 609 3251 259 
Q 2797 -91 1919 -91 
Q 1588 -91 1214 -16 
Q 841 59 441 206 
L 441 856 
Q 825 641 1194 531 
Q 1563 422 1919 422 
Q 2459 422 2753 634 
Q 3047 847 3047 1241 
Q 3047 1584 2836 1778 
Q 2625 1972 2144 2069 
L 1759 2144 
Q 1053 2284 737 2584 
Q 422 2884 422 3419 
Q 422 4038 858 4394 
Q 1294 4750 2059 4750 
Q 2388 4750 2728 4690 
Q 3069 4631 3425 4513 
z
" id="DejaVuSans-53" transform="scale(0.015625)"/>
       <path d="M 1259 4147 
L 1259 519 
L 2022 519 
Q 2988 519 3436 956 
Q 3884 1394 3884 2338 
Q 3884 3275 3436 3711 
Q 2988 4147 2022 4147 
L 1259 4147 
z
M 628 4666 
L 1925 4666 
Q 3281 4666 3915 4102 
Q 4550 3538 4550 2338 
Q 4550 1131 3912 565 
Q 3275 0 1925 0 
L 628 0 
L 628 4666 
z
" id="DejaVuSans-44" transform="scale(0.015625)"/>
       <path d="M 3597 1894 
L 3597 1613 
L 953 1613 
Q 991 1019 1311 708 
Q 1631 397 2203 397 
Q 2534 397 2845 478 
Q 3156 559 3463 722 
L 3463 178 
Q 3153 47 2828 -22 
Q 2503 -91 2169 -91 
Q 1331 -91 842 396 
Q 353 884 353 1716 
Q 353 2575 817 3079 
Q 1281 3584 2069 3584 
Q 2775 3584 3186 3129 
Q 3597 2675 3597 1894 
z
M 3022 2063 
Q 3016 2534 2758 2815 
Q 2500 3097 2075 3097 
Q 1594 3097 1305 2825 
Q 1016 2553 972 2059 
L 3022 2063 
z
" id="DejaVuSans-65" transform="scale(0.015625)"/>
       <path d="M 3122 3366 
L 3122 2828 
Q 2878 2963 2633 3030 
Q 2388 3097 2138 3097 
Q 1578 3097 1268 2742 
Q 959 2388 959 1747 
Q 959 1106 1268 751 
Q 1578 397 2138 397 
Q 2388 397 2633 464 
Q 2878 531 3122 666 
L 3122 134 
Q 2881 22 2623 -34 
Q 2366 -91 2075 -91 
Q 1284 -91 818 406 
Q 353 903 353 1747 
Q 353 2603 823 3093 
Q 1294 3584 2113 3584 
Q 2378 3584 2631 3529 
Q 2884 3475 3122 3366 
z
" id="DejaVuSans-63" transform="scale(0.015625)"/>
       <path d="M 3116 1747 
Q 3116 2381 2855 2742 
Q 2594 3103 2138 3103 
Q 1681 3103 1420 2742 
Q 1159 2381 1159 1747 
Q 1159 1113 1420 752 
Q 1681 391 2138 391 
Q 2594 391 2855 752 
Q 3116 1113 3116 1747 
z
M 1159 2969 
Q 1341 3281 1617 3432 
Q 1894 3584 2278 3584 
Q 2916 3584 3314 3078 
Q 3713 2572 3713 1747 
Q 3713 922 3314 415 
Q 2916 -91 2278 -91 
Q 1894 -91 1617 61 
Q 1341 213 1159 525 
L 1159 0 
L 581 0 
L 581 4863 
L 1159 4863 
L 1159 2969 
z
" id="DejaVuSans-62" transform="scale(0.015625)"/>
       <path d="M 628 4666 
L 1259 4666 
L 1259 531 
L 3531 531 
L 3531 0 
L 628 0 
L 628 4666 
z
" id="DejaVuSans-4c" transform="scale(0.015625)"/>
      </defs>
      <use xlink:href="#DejaVuSans-57"/>
      <use x="98.876953" xlink:href="#DejaVuSans-56"/>
      <use x="167.285156" xlink:href="#DejaVuSans-53"/>
      <use x="230.761719" xlink:href="#DejaVuSans-20"/>
      <use x="262.548828" xlink:href="#DejaVuSans-44"/>
      <use x="339.550781" xlink:href="#DejaVuSans-65"/>
      <use x="401.074219" xlink:href="#DejaVuSans-63"/>
      <use x="456.054688" xlink:href="#DejaVuSans-69"/>
      <use x="483.837891" xlink:href="#DejaVuSans-73"/>
      <use x="535.9375" xlink:href="#DejaVuSans-69"/>
      <use x="563.720703" xlink:href="#DejaVuSans-6f"/>
      <use x="624.902344" xlink:href="#DejaVuSans-6e"/>
      <use x="688.28125" xlink:href="#DejaVuSans-20"/>
      <use x="720.068359" xlink:href="#DejaVuSans-56"/>
      <use x="780.726562" xlink:href="#DejaVuSans-61"/>
      <use x="842.005859" xlink:href="#DejaVuSans-72"/>
      <use x="883.119141" xlink:href="#DejaVuSans-69"/>
      <use x="910.902344" xlink:href="#DejaVuSans-61"/>
      <use x="972.181641" xlink:href="#DejaVuSans-62"/>
      <use x="1035.658203" xlink:href="#DejaVuSans-6c"/>
      <use x="1063.441406" xlink:href="#DejaVuSans-65"/>
      <use x="1124.964844" xlink:href="#DejaVuSans-20"/>
      <use x="1156.751953" xlink:href="#DejaVuSans-4c"/>
     </g>
    </g>
   </g>
   <g id="LineCollection_1">
    <path clip-path="url(#p19a0bafb8a)" d="M 408.381815 236.229195 
L 408.381815 22.318125 
" style="fill:none;stroke:#808080;stroke-dasharray:5.55,2.4;stroke-dashoffset:0;stroke-opacity:0.5;stroke-width:1.5;"/>
    <path clip-path="url(#p19a0bafb8a)" d="M 479.685505 236.229195 
L 479.685505 22.318125 
" style="fill:none;stroke:#808080;stroke-dasharray:5.55,2.4;stroke-dashoffset:0;stroke-opacity:0.5;stroke-width:1.5;"/>
   </g>
   <g id="line2d_9">
    <path clip-path="url(#p19a0bafb8a)" d="M 337.078125 236.229195 
L 375.714328 201.307169 
L 396.316024 182.37598 
L 413.62316 166.175413 
L 429.218837 151.275824 
L 443.766245 137.072409 
L 457.671855 123.186274 
L 471.277959 109.284979 
L 484.884064 95.064413 
L 498.875247 80.116819 
L 513.893306 63.740756 
L 531.435768 44.269006 
L 550.989195 22.318125 
L 550.989195 22.318125 
" style="fill:none;stroke:#1f77b4;stroke-linecap:square;stroke-width:1.5;"/>
   </g>
   <g id="line2d_10">
    <path clip-path="url(#p19a0bafb8a)" d="M 337.078125 236.229195 
L 371.478465 208.566778 
L 389.470185 193.80561 
L 404.252919 181.395828 
L 417.217226 170.226715 
L 428.919332 159.854955 
L 439.680134 150.023376 
L 449.713567 140.557985 
L 459.190775 131.313656 
L 468.218725 122.198796 
L 476.925776 113.092928 
L 485.397502 103.911992 
L 493.762261 94.518118 
L 502.105627 84.812828 
L 510.620139 74.56439 
L 519.51973 63.499565 
L 529.253657 51.033907 
L 540.998549 35.612612 
L 550.989195 22.318125 
L 550.989195 22.318125 
" style="fill:none;stroke:#ff7f0e;stroke-linecap:square;stroke-width:1.5;"/>
   </g>
   <g id="line2d_11">
    <path clip-path="url(#p19a0bafb8a)" d="M 337.078125 236.229195 
L 372.376981 211.38442 
L 390.539848 198.322035 
L 405.194221 187.515854 
L 417.77345 177.96919 
L 428.876545 169.268426 
L 438.845798 161.17801 
L 447.916534 153.533964 
L 456.238507 146.233327 
L 463.940076 139.183969 
L 471.128207 132.304933 
L 477.867079 125.549775 
L 484.242267 118.845305 
L 490.296555 112.15696 
L 496.115518 105.397169 
L 501.720549 98.545611 
L 507.19722 91.499155 
L 512.588318 84.19916 
L 517.979416 76.521604 
L 523.434694 68.362329 
L 529.103904 59.478015 
L 535.222373 49.467447 
L 542.367717 37.331121 
L 550.989195 22.318125 
L 550.989195 22.318125 
" style="fill:none;stroke:#2ca02c;stroke-linecap:square;stroke-width:1.5;"/>
   </g>
   <g id="line2d_12">
    <path clip-path="url(#p19a0bafb8a)" d="M 337.078125 236.229195 
L 378.752169 211.095325 
L 399.631977 198.238168 
L 415.976418 187.920604 
L 429.561129 179.089113 
L 441.177662 171.277628 
L 451.253881 164.23948 
L 460.110685 157.787225 
L 467.983399 151.781273 
L 475.021777 146.13651 
L 481.375572 140.75934 
L 487.130355 135.601755 
L 492.393093 130.590009 
L 497.227967 125.681848 
L 501.699156 120.828971 
L 505.870839 115.974248 
L 509.76441 111.1039 
L 513.444048 106.14551 
L 516.931147 101.07334 
L 520.268493 95.824936 
L 523.47748 90.362212 
L 526.600894 84.602566 
L 529.660129 78.491258 
L 532.69797 71.922582 
L 535.778597 64.724449 
L 538.966191 56.700924 
L 542.410503 47.410244 
L 546.432434 35.888005 
L 550.989195 22.318125 
L 550.989195 22.318125 
" style="fill:none;stroke:#d62728;stroke-linecap:square;stroke-width:1.5;"/>
   </g>
   <g id="line2d_13">
    <path clip-path="url(#p19a0bafb8a)" d="M 337.078125 236.229195 
L 550.989195 129.27366 
L 550.989195 129.27366 
" style="fill:none;stroke:#9467bd;stroke-linecap:square;stroke-width:1.5;"/>
   </g>
   <g id="line2d_14">
    <path clip-path="url(#p19a0bafb8a)" d="M 337.078125 236.229195 
L 377.682507 220.106952 
L 398.027484 212.271928 
L 413.944059 206.372912 
L 427.143692 201.710984 
L 438.39654 197.965997 
L 448.15186 194.947913 
L 456.709159 192.528143 
L 464.260975 190.618446 
L 470.999847 189.138952 
L 477.032743 188.037234 
L 482.48802 187.262952 
L 487.42986 186.781982 
L 491.943835 186.562298 
L 496.094125 186.580214 
L 499.923516 186.816915 
L 503.474795 187.25713 
L 506.790748 187.890501 
L 509.892769 188.706662 
L 512.845037 189.712817 
L 515.647552 190.902728 
L 518.321708 192.27827 
L 520.910291 193.859479 
L 523.434694 195.663857 
L 525.894917 197.696432 
L 528.333747 200.001943 
L 530.772577 202.618486 
L 533.211408 205.564171 
L 535.714417 208.942083 
L 538.303 212.815896 
L 541.062729 217.356145 
L 544.121963 222.831571 
L 547.865781 230.014979 
L 550.989195 236.229195 
L 550.989195 236.229195 
" style="fill:none;stroke:#8c564b;stroke-linecap:square;stroke-width:1.5;"/>
   </g>
   <g id="line2d_15">
    <path clip-path="url(#p19a0bafb8a)" d="M 337.078125 236.229195 
L 370.601342 226.288123 
L 387.865692 221.405872 
L 401.771302 217.698484 
L 413.68734 214.746595 
L 424.170031 212.37405 
L 433.561666 210.472036 
L 442.076178 208.970787 
L 449.86332 207.820483 
L 457.030057 206.983816 
L 463.661964 206.430549 
L 469.844612 206.135239 
L 475.642182 206.078784 
L 481.097459 206.245732 
L 486.274625 206.624942 
L 491.195072 207.206159 
L 495.922979 207.987126 
L 500.479741 208.964016 
L 504.908143 210.140009 
L 509.250972 211.523695 
L 513.529621 213.120723 
L 517.786877 214.947229 
L 522.086919 217.035151 
L 526.493928 219.424747 
L 531.093476 222.175114 
L 536.056709 225.407482 
L 541.72592 229.374071 
L 549.470275 235.090418 
L 550.989195 236.229195 
L 550.989195 236.229195 
" style="fill:none;stroke:#e377c2;stroke-linecap:square;stroke-width:1.5;"/>
   </g>
   <g id="line2d_16">
    <path clip-path="url(#p19a0bafb8a)" d="M 337.078125 236.229195 
L 368.975455 229.962863 
L 385.640794 226.921218 
L 399.311079 224.646721 
L 411.269903 222.878301 
L 422.009313 221.511136 
L 431.850206 220.479086 
L 440.985123 219.741892 
L 449.542421 219.271998 
L 457.629068 219.048559 
L 465.330637 219.056432 
L 472.711307 219.284427 
L 479.856651 219.72625 
L 486.830849 220.379772 
L 493.676688 221.243912 
L 500.479741 222.326251 
L 507.346973 223.644989 
L 514.363957 225.220701 
L 521.701841 227.099001 
L 529.660129 229.370142 
L 538.944798 232.260467 
L 550.989195 236.229195 
L 550.989195 236.229195 
" style="fill:none;stroke:#7f7f7f;stroke-linecap:square;stroke-width:1.5;"/>
   </g>
   <g id="line2d_17">
    <path clip-path="url(#p19a0bafb8a)" d="M 337.078125 236.229195 
L 372.120263 232.83646 
L 390.75378 231.262609 
L 406.349457 230.164278 
L 420.297853 229.401652 
L 433.197981 228.916729 
L 445.370738 228.679648 
L 457.072844 228.672649 
L 468.496837 228.887339 
L 479.835258 229.322877 
L 491.280645 229.985721 
L 503.132503 230.896821 
L 515.840091 232.100508 
L 530.430285 233.713578 
L 550.989195 236.229195 
L 550.989195 236.229195 
" style="fill:none;stroke:#bcbd22;stroke-linecap:square;stroke-width:1.5;"/>
   </g>
   <g id="patch_3">
    <path d="M 337.078125 236.229195 
L 337.078125 22.318125 
" style="fill:none;stroke:#000000;stroke-linecap:square;stroke-linejoin:miter;stroke-width:0.8;"/>
   </g>
   <g id="patch_4">
    <path d="M 550.989195 236.229195 
L 550.989195 22.318125 
" style="fill:none;stroke:#000000;stroke-linecap:square;stroke-linejoin:miter;stroke-width:0.8;"/>
   </g>
   <g id="patch_5">
    <path d="M 337.078125 236.229195 
L 550.989195 236.229195 
" style="fill:none;stroke:#000000;stroke-linecap:square;stroke-linejoin:miter;stroke-width:0.8;"/>
   </g>
   <g id="patch_6">
    <path d="M 337.078125 22.318125 
L 550.989195 22.318125 
" style="fill:none;stroke:#000000;stroke-linecap:square;stroke-linejoin:miter;stroke-width:0.8;"/>
   </g>
   <g id="text_11">
    <!-- Weighted Vector Sum (WVS) -->
    <g transform="translate(358.805535 16.318125)scale(0.12 -0.12)">
     <defs>
      <path d="M 3513 2113 
L 3513 0 
L 2938 0 
L 2938 2094 
Q 2938 2591 2744 2837 
Q 2550 3084 2163 3084 
Q 1697 3084 1428 2787 
Q 1159 2491 1159 1978 
L 1159 0 
L 581 0 
L 581 4863 
L 1159 4863 
L 1159 2956 
Q 1366 3272 1645 3428 
Q 1925 3584 2291 3584 
Q 2894 3584 3203 3211 
Q 3513 2838 3513 2113 
z
" id="DejaVuSans-68" transform="scale(0.015625)"/>
      <path d="M 2906 2969 
L 2906 4863 
L 3481 4863 
L 3481 0 
L 2906 0 
L 2906 525 
Q 2725 213 2448 61 
Q 2172 -91 1784 -91 
Q 1150 -91 751 415 
Q 353 922 353 1747 
Q 353 2572 751 3078 
Q 1150 3584 1784 3584 
Q 2172 3584 2448 3432 
Q 2725 3281 2906 2969 
z
M 947 1747 
Q 947 1113 1208 752 
Q 1469 391 1925 391 
Q 2381 391 2643 752 
Q 2906 1113 2906 1747 
Q 2906 2381 2643 2742 
Q 2381 3103 1925 3103 
Q 1469 3103 1208 2742 
Q 947 2381 947 1747 
z
" id="DejaVuSans-64" transform="scale(0.015625)"/>
      <path d="M 3328 2828 
Q 3544 3216 3844 3400 
Q 4144 3584 4550 3584 
Q 5097 3584 5394 3201 
Q 5691 2819 5691 2113 
L 5691 0 
L 5113 0 
L 5113 2094 
Q 5113 2597 4934 2840 
Q 4756 3084 4391 3084 
Q 3944 3084 3684 2787 
Q 3425 2491 3425 1978 
L 3425 0 
L 2847 0 
L 2847 2094 
Q 2847 2600 2669 2842 
Q 2491 3084 2119 3084 
Q 1678 3084 1418 2786 
Q 1159 2488 1159 1978 
L 1159 0 
L 581 0 
L 581 3500 
L 1159 3500 
L 1159 2956 
Q 1356 3278 1631 3431 
Q 1906 3584 2284 3584 
Q 2666 3584 2933 3390 
Q 3200 3197 3328 2828 
z
" id="DejaVuSans-6d" transform="scale(0.015625)"/>
      <path d="M 1984 4856 
Q 1566 4138 1362 3434 
Q 1159 2731 1159 2009 
Q 1159 1288 1364 580 
Q 1569 -128 1984 -844 
L 1484 -844 
Q 1016 -109 783 600 
Q 550 1309 550 2009 
Q 550 2706 781 3412 
Q 1013 4119 1484 4856 
L 1984 4856 
z
" id="DejaVuSans-28" transform="scale(0.015625)"/>
      <path d="M 513 4856 
L 1013 4856 
Q 1481 4119 1714 3412 
Q 1947 2706 1947 2009 
Q 1947 1309 1714 600 
Q 1481 -109 1013 -844 
L 513 -844 
Q 928 -128 1133 580 
Q 1338 1288 1338 2009 
Q 1338 2731 1133 3434 
Q 928 4138 513 4856 
z
" id="DejaVuSans-29" transform="scale(0.015625)"/>
     </defs>
     <use xlink:href="#DejaVuSans-57"/>
     <use x="93.001953" xlink:href="#DejaVuSans-65"/>
     <use x="154.525391" xlink:href="#DejaVuSans-69"/>
     <use x="182.308594" xlink:href="#DejaVuSans-67"/>
     <use x="245.785156" xlink:href="#DejaVuSans-68"/>
     <use x="309.164062" xlink:href="#DejaVuSans-74"/>
     <use x="348.373047" xlink:href="#DejaVuSans-65"/>
     <use x="409.896484" xlink:href="#DejaVuSans-64"/>
     <use x="473.373047" xlink:href="#DejaVuSans-20"/>
     <use x="505.160156" xlink:href="#DejaVuSans-56"/>
     <use x="565.818359" xlink:href="#DejaVuSans-65"/>
     <use x="627.341797" xlink:href="#DejaVuSans-63"/>
     <use x="682.322266" xlink:href="#DejaVuSans-74"/>
     <use x="721.53125" xlink:href="#DejaVuSans-6f"/>
     <use x="782.712891" xlink:href="#DejaVuSans-72"/>
     <use x="823.826172" xlink:href="#DejaVuSans-20"/>
     <use x="855.613281" xlink:href="#DejaVuSans-53"/>
     <use x="919.089844" xlink:href="#DejaVuSans-75"/>
     <use x="982.46875" xlink:href="#DejaVuSans-6d"/>
     <use x="1079.880859" xlink:href="#DejaVuSans-20"/>
     <use x="1111.667969" xlink:href="#DejaVuSans-28"/>
     <use x="1150.681641" xlink:href="#DejaVuSans-57"/>
     <use x="1249.558594" xlink:href="#DejaVuSans-56"/>
     <use x="1317.966797" xlink:href="#DejaVuSans-53"/>
     <use x="1381.443359" xlink:href="#DejaVuSans-29"/>
    </g>
   </g>
  </g>
  <g id="axes_2">
   <g id="patch_7">
    <path d="M 54.478125 236.229195 
L 268.389195 236.229195 
L 268.389195 22.318125 
L 54.478125 22.318125 
z
" style="fill:#ffffff;"/>
   </g>
   <g id="matplotlib.axis_3">
    <g id="xtick_5">
     <g id="line2d_18">
      <g>
       <use style="stroke:#000000;stroke-width:0.8;" x="54.478125" xlink:href="#mb60ed81ac8" y="236.229195"/>
      </g>
     </g>
     <g id="text_12">
      <!-- $0^\circ$ -->
      <g transform="translate(47.528125 250.827633)scale(0.1 -0.1)">
       <use transform="translate(0 0.78125)" xlink:href="#DejaVuSans-30"/>
       <use transform="translate(78.217773 39.0625)scale(0.7)" xlink:href="#DejaVuSans-2218"/>
      </g>
     </g>
    </g>
    <g id="xtick_6">
     <g id="line2d_19">
      <g>
       <use style="stroke:#000000;stroke-width:0.8;" x="125.781815" xlink:href="#mb60ed81ac8" y="236.229195"/>
      </g>
     </g>
     <g id="text_13">
      <!-- $60^\circ$ -->
      <g transform="translate(115.631815 250.827633)scale(0.1 -0.1)">
       <use transform="translate(0 0.78125)" xlink:href="#DejaVuSans-36"/>
       <use transform="translate(63.623047 0.78125)" xlink:href="#DejaVuSans-30"/>
       <use transform="translate(141.84082 39.0625)scale(0.7)" xlink:href="#DejaVuSans-2218"/>
      </g>
     </g>
    </g>
    <g id="xtick_7">
     <g id="line2d_20">
      <g>
       <use style="stroke:#000000;stroke-width:0.8;" x="197.085505" xlink:href="#mb60ed81ac8" y="236.229195"/>
      </g>
     </g>
     <g id="text_14">
      <!-- $120^\circ$ -->
      <g transform="translate(183.785505 250.827633)scale(0.1 -0.1)">
       <use transform="translate(0 0.78125)" xlink:href="#DejaVuSans-31"/>
       <use transform="translate(63.623047 0.78125)" xlink:href="#DejaVuSans-32"/>
       <use transform="translate(127.246094 0.78125)" xlink:href="#DejaVuSans-30"/>
       <use transform="translate(205.463867 39.0625)scale(0.7)" xlink:href="#DejaVuSans-2218"/>
      </g>
     </g>
    </g>
    <g id="xtick_8">
     <g id="line2d_21">
      <g>
       <use style="stroke:#000000;stroke-width:0.8;" x="268.389195" xlink:href="#mb60ed81ac8" y="236.229195"/>
      </g>
     </g>
     <g id="text_15">
      <!-- $180^\circ$ -->
      <g transform="translate(255.089195 250.827633)scale(0.1 -0.1)">
       <use transform="translate(0 0.78125)" xlink:href="#DejaVuSans-31"/>
       <use transform="translate(63.623047 0.78125)" xlink:href="#DejaVuSans-38"/>
       <use transform="translate(127.246094 0.78125)" xlink:href="#DejaVuSans-30"/>
       <use transform="translate(205.463867 39.0625)scale(0.7)" xlink:href="#DejaVuSans-2218"/>
      </g>
     </g>
    </g>
    <g id="text_16">
     <!-- Position of C2 -->
     <g transform="translate(127.299285 264.505758)scale(0.1 -0.1)">
      <defs>
       <path d="M 1259 4147 
L 1259 2394 
L 2053 2394 
Q 2494 2394 2734 2622 
Q 2975 2850 2975 3272 
Q 2975 3691 2734 3919 
Q 2494 4147 2053 4147 
L 1259 4147 
z
M 628 4666 
L 2053 4666 
Q 2838 4666 3239 4311 
Q 3641 3956 3641 3272 
Q 3641 2581 3239 2228 
Q 2838 1875 2053 1875 
L 1259 1875 
L 1259 0 
L 628 0 
L 628 4666 
z
" id="DejaVuSans-50" transform="scale(0.015625)"/>
      </defs>
      <use xlink:href="#DejaVuSans-50"/>
      <use x="56.677734" xlink:href="#DejaVuSans-6f"/>
      <use x="117.859375" xlink:href="#DejaVuSans-73"/>
      <use x="169.958984" xlink:href="#DejaVuSans-69"/>
      <use x="197.742188" xlink:href="#DejaVuSans-74"/>
      <use x="236.951172" xlink:href="#DejaVuSans-69"/>
      <use x="264.734375" xlink:href="#DejaVuSans-6f"/>
      <use x="325.916016" xlink:href="#DejaVuSans-6e"/>
      <use x="389.294922" xlink:href="#DejaVuSans-20"/>
      <use x="421.082031" xlink:href="#DejaVuSans-6f"/>
      <use x="482.263672" xlink:href="#DejaVuSans-66"/>
      <use x="517.46875" xlink:href="#DejaVuSans-20"/>
      <use x="549.255859" xlink:href="#DejaVuSans-43"/>
      <use x="619.080078" xlink:href="#DejaVuSans-32"/>
     </g>
    </g>
   </g>
   <g id="matplotlib.axis_4">
    <g id="ytick_5">
     <g id="line2d_22">
      <g>
       <use style="stroke:#000000;stroke-width:0.8;" x="54.478125" xlink:href="#m31d4f419fe" y="236.229195"/>
      </g>
     </g>
     <g id="text_17">
      <!-- $0^\circ$ -->
      <g transform="translate(33.578125 240.028414)scale(0.1 -0.1)">
       <use transform="translate(0 0.78125)" xlink:href="#DejaVuSans-30"/>
       <use transform="translate(78.217773 39.0625)scale(0.7)" xlink:href="#DejaVuSans-2218"/>
      </g>
     </g>
    </g>
    <g id="ytick_6">
     <g id="line2d_23">
      <g>
       <use style="stroke:#000000;stroke-width:0.8;" x="54.478125" xlink:href="#m31d4f419fe" y="164.925505"/>
      </g>
     </g>
     <g id="text_18">
      <!-- $60^\circ$ -->
      <g transform="translate(27.178125 168.724724)scale(0.1 -0.1)">
       <use transform="translate(0 0.78125)" xlink:href="#DejaVuSans-36"/>
       <use transform="translate(63.623047 0.78125)" xlink:href="#DejaVuSans-30"/>
       <use transform="translate(141.84082 39.0625)scale(0.7)" xlink:href="#DejaVuSans-2218"/>
      </g>
     </g>
    </g>
    <g id="ytick_7">
     <g id="line2d_24">
      <g>
       <use style="stroke:#000000;stroke-width:0.8;" x="54.478125" xlink:href="#m31d4f419fe" y="93.621815"/>
      </g>
     </g>
     <g id="text_19">
      <!-- $120^\circ$ -->
      <g transform="translate(20.878125 97.421034)scale(0.1 -0.1)">
       <use transform="translate(0 0.78125)" xlink:href="#DejaVuSans-31"/>
       <use transform="translate(63.623047 0.78125)" xlink:href="#DejaVuSans-32"/>
       <use transform="translate(127.246094 0.78125)" xlink:href="#DejaVuSans-30"/>
       <use transform="translate(205.463867 39.0625)scale(0.7)" xlink:href="#DejaVuSans-2218"/>
      </g>
     </g>
    </g>
    <g id="ytick_8">
     <g id="line2d_25">
      <g>
       <use style="stroke:#000000;stroke-width:0.8;" x="54.478125" xlink:href="#m31d4f419fe" y="22.318125"/>
      </g>
     </g>
     <g id="text_20">
      <!-- $180^\circ$ -->
      <g transform="translate(20.878125 26.117344)scale(0.1 -0.1)">
       <use transform="translate(0 0.78125)" xlink:href="#DejaVuSans-31"/>
       <use transform="translate(63.623047 0.78125)" xlink:href="#DejaVuSans-38"/>
       <use transform="translate(127.246094 0.78125)" xlink:href="#DejaVuSans-30"/>
       <use transform="translate(205.463867 39.0625)scale(0.7)" xlink:href="#DejaVuSans-2218"/>
      </g>
     </g>
    </g>
    <g id="text_21">
     <!-- Weighted arithmetic mean -->
     <g transform="translate(14.798438 195.983816)rotate(-90)scale(0.1 -0.1)">
      <use xlink:href="#DejaVuSans-57"/>
      <use x="93.001953" xlink:href="#DejaVuSans-65"/>
      <use x="154.525391" xlink:href="#DejaVuSans-69"/>
      <use x="182.308594" xlink:href="#DejaVuSans-67"/>
      <use x="245.785156" xlink:href="#DejaVuSans-68"/>
      <use x="309.164062" xlink:href="#DejaVuSans-74"/>
      <use x="348.373047" xlink:href="#DejaVuSans-65"/>
      <use x="409.896484" xlink:href="#DejaVuSans-64"/>
      <use x="473.373047" xlink:href="#DejaVuSans-20"/>
      <use x="505.160156" xlink:href="#DejaVuSans-61"/>
      <use x="566.439453" xlink:href="#DejaVuSans-72"/>
      <use x="607.552734" xlink:href="#DejaVuSans-69"/>
      <use x="635.335938" xlink:href="#DejaVuSans-74"/>
      <use x="674.544922" xlink:href="#DejaVuSans-68"/>
      <use x="737.923828" xlink:href="#DejaVuSans-6d"/>
      <use x="835.335938" xlink:href="#DejaVuSans-65"/>
      <use x="896.859375" xlink:href="#DejaVuSans-74"/>
      <use x="936.068359" xlink:href="#DejaVuSans-69"/>
      <use x="963.851562" xlink:href="#DejaVuSans-63"/>
      <use x="1018.832031" xlink:href="#DejaVuSans-20"/>
      <use x="1050.619141" xlink:href="#DejaVuSans-6d"/>
      <use x="1148.03125" xlink:href="#DejaVuSans-65"/>
      <use x="1209.554688" xlink:href="#DejaVuSans-61"/>
      <use x="1270.833984" xlink:href="#DejaVuSans-6e"/>
     </g>
    </g>
   </g>
   <g id="LineCollection_2">
    <path clip-path="url(#pc2b00db042)" d="M 125.781815 236.229195 
L 125.781815 22.318125 
" style="fill:none;stroke:#808080;stroke-dasharray:5.55,2.4;stroke-dashoffset:0;stroke-opacity:0.5;stroke-width:1.5;"/>
    <path clip-path="url(#pc2b00db042)" d="M 197.085505 236.229195 
L 197.085505 22.318125 
" style="fill:none;stroke:#808080;stroke-dasharray:5.55,2.4;stroke-dashoffset:0;stroke-opacity:0.5;stroke-width:1.5;"/>
   </g>
   <g id="line2d_26">
    <path clip-path="url(#pc2b00db042)" d="M 54.478125 236.229195 
L 268.389195 43.709232 
L 268.389195 43.709232 
" style="fill:none;stroke:#1f77b4;stroke-linecap:square;stroke-width:1.5;"/>
   </g>
   <g id="line2d_27">
    <path clip-path="url(#pc2b00db042)" d="M 54.478125 236.229195 
L 268.389195 65.100339 
L 268.389195 65.100339 
" style="fill:none;stroke:#ff7f0e;stroke-linecap:square;stroke-width:1.5;"/>
   </g>
   <g id="line2d_28">
    <path clip-path="url(#pc2b00db042)" d="M 54.478125 236.229195 
L 268.389195 86.491446 
L 268.389195 86.491446 
" style="fill:none;stroke:#2ca02c;stroke-linecap:square;stroke-width:1.5;"/>
   </g>
   <g id="line2d_29">
    <path clip-path="url(#pc2b00db042)" d="M 54.478125 236.229195 
L 268.389195 107.882553 
L 268.389195 107.882553 
" style="fill:none;stroke:#d62728;stroke-linecap:square;stroke-width:1.5;"/>
   </g>
   <g id="line2d_30">
    <path clip-path="url(#pc2b00db042)" d="M 54.478125 236.229195 
L 268.389195 129.27366 
L 268.389195 129.27366 
" style="fill:none;stroke:#9467bd;stroke-linecap:square;stroke-width:1.5;"/>
   </g>
   <g id="line2d_31">
    <path clip-path="url(#pc2b00db042)" d="M 54.478125 236.229195 
L 268.389195 150.664767 
L 268.389195 150.664767 
" style="fill:none;stroke:#8c564b;stroke-linecap:square;stroke-width:1.5;"/>
   </g>
   <g id="line2d_32">
    <path clip-path="url(#pc2b00db042)" d="M 54.478125 236.229195 
L 268.389195 172.055874 
L 268.389195 172.055874 
" style="fill:none;stroke:#e377c2;stroke-linecap:square;stroke-width:1.5;"/>
   </g>
   <g id="line2d_33">
    <path clip-path="url(#pc2b00db042)" d="M 54.478125 236.229195 
L 268.389195 193.446981 
L 268.389195 193.446981 
" style="fill:none;stroke:#7f7f7f;stroke-linecap:square;stroke-width:1.5;"/>
   </g>
   <g id="line2d_34">
    <path clip-path="url(#pc2b00db042)" d="M 54.478125 236.229195 
L 268.389195 214.838088 
L 268.389195 214.838088 
" style="fill:none;stroke:#bcbd22;stroke-linecap:square;stroke-width:1.5;"/>
   </g>
   <g id="patch_8">
    <path d="M 54.478125 236.229195 
L 54.478125 22.318125 
" style="fill:none;stroke:#000000;stroke-linecap:square;stroke-linejoin:miter;stroke-width:0.8;"/>
   </g>
   <g id="patch_9">
    <path d="M 268.389195 236.229195 
L 268.389195 22.318125 
" style="fill:none;stroke:#000000;stroke-linecap:square;stroke-linejoin:miter;stroke-width:0.8;"/>
   </g>
   <g id="patch_10">
    <path d="M 54.478125 236.229195 
L 268.389195 236.229195 
" style="fill:none;stroke:#000000;stroke-linecap:square;stroke-linejoin:miter;stroke-width:0.8;"/>
   </g>
   <g id="patch_11">
    <path d="M 54.478125 22.318125 
L 268.389195 22.318125 
" style="fill:none;stroke:#000000;stroke-linecap:square;stroke-linejoin:miter;stroke-width:0.8;"/>
   </g>
   <g id="text_22">
    <!-- Weighted Arithmetic Mean (WAM) -->
    <g transform="translate(60.148973 16.318125)scale(0.12 -0.12)">
     <defs>
      <path d="M 628 4666 
L 1569 4666 
L 2759 1491 
L 3956 4666 
L 4897 4666 
L 4897 0 
L 4281 0 
L 4281 4097 
L 3078 897 
L 2444 897 
L 1241 4097 
L 1241 0 
L 628 0 
L 628 4666 
z
" id="DejaVuSans-4d" transform="scale(0.015625)"/>
     </defs>
     <use xlink:href="#DejaVuSans-57"/>
     <use x="93.001953" xlink:href="#DejaVuSans-65"/>
     <use x="154.525391" xlink:href="#DejaVuSans-69"/>
     <use x="182.308594" xlink:href="#DejaVuSans-67"/>
     <use x="245.785156" xlink:href="#DejaVuSans-68"/>
     <use x="309.164062" xlink:href="#DejaVuSans-74"/>
     <use x="348.373047" xlink:href="#DejaVuSans-65"/>
     <use x="409.896484" xlink:href="#DejaVuSans-64"/>
     <use x="473.373047" xlink:href="#DejaVuSans-20"/>
     <use x="505.160156" xlink:href="#DejaVuSans-41"/>
     <use x="573.568359" xlink:href="#DejaVuSans-72"/>
     <use x="614.681641" xlink:href="#DejaVuSans-69"/>
     <use x="642.464844" xlink:href="#DejaVuSans-74"/>
     <use x="681.673828" xlink:href="#DejaVuSans-68"/>
     <use x="745.052734" xlink:href="#DejaVuSans-6d"/>
     <use x="842.464844" xlink:href="#DejaVuSans-65"/>
     <use x="903.988281" xlink:href="#DejaVuSans-74"/>
     <use x="943.197266" xlink:href="#DejaVuSans-69"/>
     <use x="970.980469" xlink:href="#DejaVuSans-63"/>
     <use x="1025.960938" xlink:href="#DejaVuSans-20"/>
     <use x="1057.748047" xlink:href="#DejaVuSans-4d"/>
     <use x="1144.027344" xlink:href="#DejaVuSans-65"/>
     <use x="1205.550781" xlink:href="#DejaVuSans-61"/>
     <use x="1266.830078" xlink:href="#DejaVuSans-6e"/>
     <use x="1330.208984" xlink:href="#DejaVuSans-20"/>
     <use x="1361.996094" xlink:href="#DejaVuSans-28"/>
     <use x="1401.009766" xlink:href="#DejaVuSans-57"/>
     <use x="1494.386719" xlink:href="#DejaVuSans-41"/>
     <use x="1562.794922" xlink:href="#DejaVuSans-4d"/>
     <use x="1649.074219" xlink:href="#DejaVuSans-29"/>
    </g>
   </g>
   <g id="legend_1">
    <g id="patch_12">
     <path d="M 60.778125 148.410937 
L 124.519219 148.410937 
Q 126.319219 148.410937 126.319219 146.610937 
L 126.319219 28.618125 
Q 126.319219 26.818125 124.519219 26.818125 
L 60.778125 26.818125 
Q 58.978125 26.818125 58.978125 28.618125 
L 58.978125 146.610937 
Q 58.978125 148.410937 60.778125 148.410937 
z
" style="fill:#ffffff;opacity:0.8;stroke:#cccccc;stroke-linejoin:miter;"/>
    </g>
    <g id="line2d_35">
     <path d="M 62.578125 34.106719 
L 80.578125 34.106719 
" style="fill:none;stroke:#1f77b4;stroke-linecap:square;stroke-width:1.5;"/>
    </g>
    <g id="line2d_36"/>
    <g id="text_23">
     <!-- w1=0.1 -->
     <g transform="translate(87.778125 37.256719)scale(0.09 -0.09)">
      <defs>
       <path d="M 269 3500 
L 844 3500 
L 1563 769 
L 2278 3500 
L 2956 3500 
L 3675 769 
L 4391 3500 
L 4966 3500 
L 4050 0 
L 3372 0 
L 2619 2869 
L 1863 0 
L 1184 0 
L 269 3500 
z
" id="DejaVuSans-77" transform="scale(0.015625)"/>
       <path d="M 678 2906 
L 4684 2906 
L 4684 2381 
L 678 2381 
L 678 2906 
z
M 678 1631 
L 4684 1631 
L 4684 1100 
L 678 1100 
L 678 1631 
z
" id="DejaVuSans-3d" transform="scale(0.015625)"/>
       <path d="M 684 794 
L 1344 794 
L 1344 0 
L 684 0 
L 684 794 
z
" id="DejaVuSans-2e" transform="scale(0.015625)"/>
      </defs>
      <use xlink:href="#DejaVuSans-77"/>
      <use x="81.787109" xlink:href="#DejaVuSans-31"/>
      <use x="145.410156" xlink:href="#DejaVuSans-3d"/>
      <use x="229.199219" xlink:href="#DejaVuSans-30"/>
      <use x="292.822266" xlink:href="#DejaVuSans-2e"/>
      <use x="324.609375" xlink:href="#DejaVuSans-31"/>
     </g>
    </g>
    <g id="line2d_37">
     <path d="M 62.578125 47.317031 
L 80.578125 47.317031 
" style="fill:none;stroke:#ff7f0e;stroke-linecap:square;stroke-width:1.5;"/>
    </g>
    <g id="line2d_38"/>
    <g id="text_24">
     <!-- w1=0.2 -->
     <g transform="translate(87.778125 50.467031)scale(0.09 -0.09)">
      <use xlink:href="#DejaVuSans-77"/>
      <use x="81.787109" xlink:href="#DejaVuSans-31"/>
      <use x="145.410156" xlink:href="#DejaVuSans-3d"/>
      <use x="229.199219" xlink:href="#DejaVuSans-30"/>
      <use x="292.822266" xlink:href="#DejaVuSans-2e"/>
      <use x="324.609375" xlink:href="#DejaVuSans-32"/>
     </g>
    </g>
    <g id="line2d_39">
     <path d="M 62.578125 60.527344 
L 80.578125 60.527344 
" style="fill:none;stroke:#2ca02c;stroke-linecap:square;stroke-width:1.5;"/>
    </g>
    <g id="line2d_40"/>
    <g id="text_25">
     <!-- w1=0.3 -->
     <g transform="translate(87.778125 63.677344)scale(0.09 -0.09)">
      <defs>
       <path d="M 2597 2516 
Q 3050 2419 3304 2112 
Q 3559 1806 3559 1356 
Q 3559 666 3084 287 
Q 2609 -91 1734 -91 
Q 1441 -91 1130 -33 
Q 819 25 488 141 
L 488 750 
Q 750 597 1062 519 
Q 1375 441 1716 441 
Q 2309 441 2620 675 
Q 2931 909 2931 1356 
Q 2931 1769 2642 2001 
Q 2353 2234 1838 2234 
L 1294 2234 
L 1294 2753 
L 1863 2753 
Q 2328 2753 2575 2939 
Q 2822 3125 2822 3475 
Q 2822 3834 2567 4026 
Q 2313 4219 1838 4219 
Q 1578 4219 1281 4162 
Q 984 4106 628 3988 
L 628 4550 
Q 988 4650 1302 4700 
Q 1616 4750 1894 4750 
Q 2613 4750 3031 4423 
Q 3450 4097 3450 3541 
Q 3450 3153 3228 2886 
Q 3006 2619 2597 2516 
z
" id="DejaVuSans-33" transform="scale(0.015625)"/>
      </defs>
      <use xlink:href="#DejaVuSans-77"/>
      <use x="81.787109" xlink:href="#DejaVuSans-31"/>
      <use x="145.410156" xlink:href="#DejaVuSans-3d"/>
      <use x="229.199219" xlink:href="#DejaVuSans-30"/>
      <use x="292.822266" xlink:href="#DejaVuSans-2e"/>
      <use x="324.609375" xlink:href="#DejaVuSans-33"/>
     </g>
    </g>
    <g id="line2d_41">
     <path d="M 62.578125 73.737656 
L 80.578125 73.737656 
" style="fill:none;stroke:#d62728;stroke-linecap:square;stroke-width:1.5;"/>
    </g>
    <g id="line2d_42"/>
    <g id="text_26">
     <!-- w1=0.4 -->
     <g transform="translate(87.778125 76.887656)scale(0.09 -0.09)">
      <defs>
       <path d="M 2419 4116 
L 825 1625 
L 2419 1625 
L 2419 4116 
z
M 2253 4666 
L 3047 4666 
L 3047 1625 
L 3713 1625 
L 3713 1100 
L 3047 1100 
L 3047 0 
L 2419 0 
L 2419 1100 
L 313 1100 
L 313 1709 
L 2253 4666 
z
" id="DejaVuSans-34" transform="scale(0.015625)"/>
      </defs>
      <use xlink:href="#DejaVuSans-77"/>
      <use x="81.787109" xlink:href="#DejaVuSans-31"/>
      <use x="145.410156" xlink:href="#DejaVuSans-3d"/>
      <use x="229.199219" xlink:href="#DejaVuSans-30"/>
      <use x="292.822266" xlink:href="#DejaVuSans-2e"/>
      <use x="324.609375" xlink:href="#DejaVuSans-34"/>
     </g>
    </g>
    <g id="line2d_43">
     <path d="M 62.578125 86.947969 
L 80.578125 86.947969 
" style="fill:none;stroke:#9467bd;stroke-linecap:square;stroke-width:1.5;"/>
    </g>
    <g id="line2d_44"/>
    <g id="text_27">
     <!-- w1=0.5 -->
     <g transform="translate(87.778125 90.097969)scale(0.09 -0.09)">
      <defs>
       <path d="M 691 4666 
L 3169 4666 
L 3169 4134 
L 1269 4134 
L 1269 2991 
Q 1406 3038 1543 3061 
Q 1681 3084 1819 3084 
Q 2600 3084 3056 2656 
Q 3513 2228 3513 1497 
Q 3513 744 3044 326 
Q 2575 -91 1722 -91 
Q 1428 -91 1123 -41 
Q 819 9 494 109 
L 494 744 
Q 775 591 1075 516 
Q 1375 441 1709 441 
Q 2250 441 2565 725 
Q 2881 1009 2881 1497 
Q 2881 1984 2565 2268 
Q 2250 2553 1709 2553 
Q 1456 2553 1204 2497 
Q 953 2441 691 2322 
L 691 4666 
z
" id="DejaVuSans-35" transform="scale(0.015625)"/>
      </defs>
      <use xlink:href="#DejaVuSans-77"/>
      <use x="81.787109" xlink:href="#DejaVuSans-31"/>
      <use x="145.410156" xlink:href="#DejaVuSans-3d"/>
      <use x="229.199219" xlink:href="#DejaVuSans-30"/>
      <use x="292.822266" xlink:href="#DejaVuSans-2e"/>
      <use x="324.609375" xlink:href="#DejaVuSans-35"/>
     </g>
    </g>
    <g id="line2d_45">
     <path d="M 62.578125 100.158281 
L 80.578125 100.158281 
" style="fill:none;stroke:#8c564b;stroke-linecap:square;stroke-width:1.5;"/>
    </g>
    <g id="line2d_46"/>
    <g id="text_28">
     <!-- w1=0.6 -->
     <g transform="translate(87.778125 103.308281)scale(0.09 -0.09)">
      <use xlink:href="#DejaVuSans-77"/>
      <use x="81.787109" xlink:href="#DejaVuSans-31"/>
      <use x="145.410156" xlink:href="#DejaVuSans-3d"/>
      <use x="229.199219" xlink:href="#DejaVuSans-30"/>
      <use x="292.822266" xlink:href="#DejaVuSans-2e"/>
      <use x="324.609375" xlink:href="#DejaVuSans-36"/>
     </g>
    </g>
    <g id="line2d_47">
     <path d="M 62.578125 113.368594 
L 80.578125 113.368594 
" style="fill:none;stroke:#e377c2;stroke-linecap:square;stroke-width:1.5;"/>
    </g>
    <g id="line2d_48"/>
    <g id="text_29">
     <!-- w1=0.7 -->
     <g transform="translate(87.778125 116.518594)scale(0.09 -0.09)">
      <defs>
       <path d="M 525 4666 
L 3525 4666 
L 3525 4397 
L 1831 0 
L 1172 0 
L 2766 4134 
L 525 4134 
L 525 4666 
z
" id="DejaVuSans-37" transform="scale(0.015625)"/>
      </defs>
      <use xlink:href="#DejaVuSans-77"/>
      <use x="81.787109" xlink:href="#DejaVuSans-31"/>
      <use x="145.410156" xlink:href="#DejaVuSans-3d"/>
      <use x="229.199219" xlink:href="#DejaVuSans-30"/>
      <use x="292.822266" xlink:href="#DejaVuSans-2e"/>
      <use x="324.609375" xlink:href="#DejaVuSans-37"/>
     </g>
    </g>
    <g id="line2d_49">
     <path d="M 62.578125 126.578906 
L 80.578125 126.578906 
" style="fill:none;stroke:#7f7f7f;stroke-linecap:square;stroke-width:1.5;"/>
    </g>
    <g id="line2d_50"/>
    <g id="text_30">
     <!-- w1=0.8 -->
     <g transform="translate(87.778125 129.728906)scale(0.09 -0.09)">
      <use xlink:href="#DejaVuSans-77"/>
      <use x="81.787109" xlink:href="#DejaVuSans-31"/>
      <use x="145.410156" xlink:href="#DejaVuSans-3d"/>
      <use x="229.199219" xlink:href="#DejaVuSans-30"/>
      <use x="292.822266" xlink:href="#DejaVuSans-2e"/>
      <use x="324.609375" xlink:href="#DejaVuSans-38"/>
     </g>
    </g>
    <g id="line2d_51">
     <path d="M 62.578125 139.789219 
L 80.578125 139.789219 
" style="fill:none;stroke:#bcbd22;stroke-linecap:square;stroke-width:1.5;"/>
    </g>
    <g id="line2d_52"/>
    <g id="text_31">
     <!-- w1=0.9 -->
     <g transform="translate(87.778125 142.939219)scale(0.09 -0.09)">
      <defs>
       <path d="M 703 97 
L 703 672 
Q 941 559 1184 500 
Q 1428 441 1663 441 
Q 2288 441 2617 861 
Q 2947 1281 2994 2138 
Q 2813 1869 2534 1725 
Q 2256 1581 1919 1581 
Q 1219 1581 811 2004 
Q 403 2428 403 3163 
Q 403 3881 828 4315 
Q 1253 4750 1959 4750 
Q 2769 4750 3195 4129 
Q 3622 3509 3622 2328 
Q 3622 1225 3098 567 
Q 2575 -91 1691 -91 
Q 1453 -91 1209 -44 
Q 966 3 703 97 
z
M 1959 2075 
Q 2384 2075 2632 2365 
Q 2881 2656 2881 3163 
Q 2881 3666 2632 3958 
Q 2384 4250 1959 4250 
Q 1534 4250 1286 3958 
Q 1038 3666 1038 3163 
Q 1038 2656 1286 2365 
Q 1534 2075 1959 2075 
z
" id="DejaVuSans-39" transform="scale(0.015625)"/>
      </defs>
      <use xlink:href="#DejaVuSans-77"/>
      <use x="81.787109" xlink:href="#DejaVuSans-31"/>
      <use x="145.410156" xlink:href="#DejaVuSans-3d"/>
      <use x="229.199219" xlink:href="#DejaVuSans-30"/>
      <use x="292.822266" xlink:href="#DejaVuSans-2e"/>
      <use x="324.609375" xlink:href="#DejaVuSans-39"/>
     </g>
    </g>
   </g>
  </g>
 </g>
 <defs>
  <clipPath id="p19a0bafb8a">
   <rect height="213.91107" width="213.91107" x="337.078125" y="22.318125"/>
  </clipPath>
  <clipPath id="pc2b00db042">
   <rect height="213.91107" width="213.91107" x="54.478125" y="22.318125"/>
  </clipPath>
 </defs>
</svg>
