<?xml version="1.0" encoding="utf-8" standalone="no"?>
<!DOCTYPE svg PUBLIC "-//W3C//DTD SVG 1.1//EN"
  "http://www.w3.org/Graphics/SVG/1.1/DTD/svg11.dtd">
<svg xmlns:xlink="http://www.w3.org/1999/xlink" width="570.762826pt" height="273.413763pt" viewBox="0 0 570.762826 273.413763" xmlns="http://www.w3.org/2000/svg" version="1.1">
 <metadata>
  <rdf:RDF xmlns:dc="http://purl.org/dc/elements/1.1/" xmlns:cc="http://creativecommons.org/ns#" xmlns:rdf="http://www.w3.org/1999/02/22-rdf-syntax-ns#">
   <cc:Work>
    <dc:type rdf:resource="http://purl.org/dc/dcmitype/StillImage"/>
    <dc:date>2022-08-31T14:37:50.215492</dc:date>
    <dc:format>image/svg+xml</dc:format>
    <dc:creator>
     <cc:Agent>
      <dc:title>Matplotlib v3.5.1, https://matplotlib.org/</dc:title>
     </cc:Agent>
    </dc:creator>
   </cc:Work>
  </rdf:RDF>
 </metadata>
 <defs>
  <style type="text/css">*{stroke-linejoin: round; stroke-linecap: butt}</style>
 </defs>
 <g id="figure_1">
  <g id="patch_1">
   <path d="M 0 273.413763 
L 570.762826 273.413763 
L 570.762826 0 
L 0 0 
z
" style="fill: #ffffff"/>
  </g>
  <g id="axes_1">
   <g id="patch_2">
    <path d="M 337.359375 235.174701 
L 550.262826 235.174701 
L 550.262826 22.27125 
L 337.359375 22.27125 
z
" style="fill: #ffffff"/>
   </g>
   <g id="matplotlib.axis_1">
    <g id="xtick_1">
     <g id="line2d_1">
      <defs>
       <path id="m835b68093e" d="M 0 0 
L 0 3.5 
" style="stroke: #000000; stroke-width: 0.8"/>
      </defs>
      <g>
       <use xlink:href="#m835b68093e" x="337.359375" y="235.174701" style="stroke: #000000; stroke-width: 0.8"/>
      </g>
     </g>
     <g id="text_1">
      <!-- $0^\circ$ -->
      <g transform="translate(330.409375 249.734076)scale(0.1 -0.1)">
       <defs>
        <path id="DejaVuSans-30" d="M 2034 4250 
Q 1547 4250 1301 3770 
Q 1056 3291 1056 2328 
Q 1056 1369 1301 889 
Q 1547 409 2034 409 
Q 2525 409 2770 889 
Q 3016 1369 3016 2328 
Q 3016 3291 2770 3770 
Q 2525 4250 2034 4250 
z
M 2034 4750 
Q 2819 4750 3233 4129 
Q 3647 3509 3647 2328 
Q 3647 1150 3233 529 
Q 2819 -91 2034 -91 
Q 1250 -91 836 529 
Q 422 1150 422 2328 
Q 422 3509 836 4129 
Q 1250 4750 2034 4750 
z
" transform="scale(0.015625)"/>
        <path id="DejaVuSans-2218" d="M 2000 2619 
Q 1750 2619 1578 2445 
Q 1406 2272 1406 2022 
Q 1406 1775 1578 1605 
Q 1750 1435 2000 1435 
Q 2250 1435 2422 1605 
Q 2594 1775 2594 2022 
Q 2594 2269 2420 2444 
Q 2247 2619 2000 2619 
z
M 2000 3022 
Q 2200 3022 2384 2945 
Q 2569 2869 2703 2725 
Q 2847 2585 2919 2406 
Q 2991 2228 2991 2022 
Q 2991 1610 2702 1324 
Q 2413 1038 1994 1038 
Q 1572 1038 1290 1319 
Q 1009 1600 1009 2022 
Q 1009 2441 1296 2731 
Q 1584 3022 2000 3022 
z
" transform="scale(0.015625)"/>
       </defs>
       <use xlink:href="#DejaVuSans-30" transform="translate(0 0.78125)"/>
       <use xlink:href="#DejaVuSans-2218" transform="translate(78.217773 39.0625)scale(0.7)"/>
      </g>
     </g>
    </g>
    <g id="xtick_2">
     <g id="line2d_2">
      <g>
       <use xlink:href="#m835b68093e" x="408.327192" y="235.174701" style="stroke: #000000; stroke-width: 0.8"/>
      </g>
     </g>
     <g id="text_2">
      <!-- $60^\circ$ -->
      <g transform="translate(398.177192 249.734076)scale(0.1 -0.1)">
       <defs>
        <path id="DejaVuSans-36" d="M 2113 2584 
Q 1688 2584 1439 2293 
Q 1191 2003 1191 1497 
Q 1191 994 1439 701 
Q 1688 409 2113 409 
Q 2538 409 2786 701 
Q 3034 994 3034 1497 
Q 3034 2003 2786 2293 
Q 2538 2584 2113 2584 
z
M 3366 4563 
L 3366 3988 
Q 3128 4100 2886 4159 
Q 2644 4219 2406 4219 
Q 1781 4219 1451 3797 
Q 1122 3375 1075 2522 
Q 1259 2794 1537 2939 
Q 1816 3084 2150 3084 
Q 2853 3084 3261 2657 
Q 3669 2231 3669 1497 
Q 3669 778 3244 343 
Q 2819 -91 2113 -91 
Q 1303 -91 875 529 
Q 447 1150 447 2328 
Q 447 3434 972 4092 
Q 1497 4750 2381 4750 
Q 2619 4750 2861 4703 
Q 3103 4656 3366 4563 
z
" transform="scale(0.015625)"/>
       </defs>
       <use xlink:href="#DejaVuSans-36" transform="translate(0 0.78125)"/>
       <use xlink:href="#DejaVuSans-30" transform="translate(63.623047 0.78125)"/>
       <use xlink:href="#DejaVuSans-2218" transform="translate(141.84082 39.0625)scale(0.7)"/>
      </g>
     </g>
    </g>
    <g id="xtick_3">
     <g id="line2d_3">
      <g>
       <use xlink:href="#m835b68093e" x="479.295009" y="235.174701" style="stroke: #000000; stroke-width: 0.8"/>
      </g>
     </g>
     <g id="text_3">
      <!-- $120^\circ$ -->
      <g transform="translate(465.995009 249.734076)scale(0.1 -0.1)">
       <defs>
        <path id="DejaVuSans-31" d="M 794 531 
L 1825 531 
L 1825 4091 
L 703 3866 
L 703 4441 
L 1819 4666 
L 2450 4666 
L 2450 531 
L 3481 531 
L 3481 0 
L 794 0 
L 794 531 
z
" transform="scale(0.015625)"/>
        <path id="DejaVuSans-32" d="M 1228 531 
L 3431 531 
L 3431 0 
L 469 0 
L 469 531 
Q 828 903 1448 1529 
Q 2069 2156 2228 2338 
Q 2531 2678 2651 2914 
Q 2772 3150 2772 3378 
Q 2772 3750 2511 3984 
Q 2250 4219 1831 4219 
Q 1534 4219 1204 4116 
Q 875 4013 500 3803 
L 500 4441 
Q 881 4594 1212 4672 
Q 1544 4750 1819 4750 
Q 2544 4750 2975 4387 
Q 3406 4025 3406 3419 
Q 3406 3131 3298 2873 
Q 3191 2616 2906 2266 
Q 2828 2175 2409 1742 
Q 1991 1309 1228 531 
z
" transform="scale(0.015625)"/>
       </defs>
       <use xlink:href="#DejaVuSans-31" transform="translate(0 0.78125)"/>
       <use xlink:href="#DejaVuSans-32" transform="translate(63.623047 0.78125)"/>
       <use xlink:href="#DejaVuSans-30" transform="translate(127.246094 0.78125)"/>
       <use xlink:href="#DejaVuSans-2218" transform="translate(205.463867 39.0625)scale(0.7)"/>
      </g>
     </g>
    </g>
    <g id="xtick_4">
     <g id="line2d_4">
      <g>
       <use xlink:href="#m835b68093e" x="550.262826" y="235.174701" style="stroke: #000000; stroke-width: 0.8"/>
      </g>
     </g>
     <g id="text_4">
      <!-- $180^\circ$ -->
      <g transform="translate(536.962826 249.734076)scale(0.1 -0.1)">
       <defs>
        <path id="DejaVuSans-38" d="M 2034 2216 
Q 1584 2216 1326 1975 
Q 1069 1734 1069 1313 
Q 1069 891 1326 650 
Q 1584 409 2034 409 
Q 2484 409 2743 651 
Q 3003 894 3003 1313 
Q 3003 1734 2745 1975 
Q 2488 2216 2034 2216 
z
M 1403 2484 
Q 997 2584 770 2862 
Q 544 3141 544 3541 
Q 544 4100 942 4425 
Q 1341 4750 2034 4750 
Q 2731 4750 3128 4425 
Q 3525 4100 3525 3541 
Q 3525 3141 3298 2862 
Q 3072 2584 2669 2484 
Q 3125 2378 3379 2068 
Q 3634 1759 3634 1313 
Q 3634 634 3220 271 
Q 2806 -91 2034 -91 
Q 1263 -91 848 271 
Q 434 634 434 1313 
Q 434 1759 690 2068 
Q 947 2378 1403 2484 
z
M 1172 3481 
Q 1172 3119 1398 2916 
Q 1625 2713 2034 2713 
Q 2441 2713 2670 2916 
Q 2900 3119 2900 3481 
Q 2900 3844 2670 4047 
Q 2441 4250 2034 4250 
Q 1625 4250 1398 4047 
Q 1172 3844 1172 3481 
z
" transform="scale(0.015625)"/>
       </defs>
       <use xlink:href="#DejaVuSans-31" transform="translate(0 0.78125)"/>
       <use xlink:href="#DejaVuSans-38" transform="translate(63.623047 0.78125)"/>
       <use xlink:href="#DejaVuSans-30" transform="translate(127.246094 0.78125)"/>
       <use xlink:href="#DejaVuSans-2218" transform="translate(205.463867 39.0625)scale(0.7)"/>
      </g>
     </g>
    </g>
    <g id="text_5">
     <!-- Angular position of C2 -->
     <g transform="translate(392.336882 263.813763)scale(0.1 -0.1)">
      <defs>
       <path id="AvenirNextLTPro-Regular-41" d="M 1062 1190 
L 3405 1190 
L 3904 0 
L 4416 0 
L 2470 4531 
L 2022 4531 
L 64 0 
L 570 0 
L 1062 1190 
z
M 2234 4019 
L 3232 1613 
L 1235 1613 
L 2234 4019 
z
" transform="scale(0.015625)"/>
       <path id="AvenirNextLTPro-Regular-6e" d="M 550 2995 
C 570 2790 576 2496 576 2336 
L 576 0 
L 1011 0 
L 1011 1536 
C 1011 2336 1459 2707 1920 2707 
C 2547 2707 2733 2285 2733 1658 
L 2733 0 
L 3168 0 
L 3168 1837 
C 3168 2579 2790 3072 2029 3072 
C 1606 3072 1171 2829 1005 2483 
L 992 2483 
C 992 2611 979 2835 966 2995 
L 550 2995 
z
" transform="scale(0.015625)"/>
       <path id="AvenirNextLTPro-Regular-67" d="M 422 -934 
C 774 -1306 1312 -1536 1862 -1536 
C 3187 -1536 3488 -627 3488 26 
L 3488 2995 
L 3053 2995 
L 3053 2477 
L 3040 2477 
C 2803 2861 2342 3072 1907 3072 
C 973 3072 358 2374 358 1523 
C 358 646 973 0 1907 0 
C 2342 0 2810 218 3040 589 
L 3053 589 
L 3053 26 
C 3053 -621 2739 -1152 1882 -1152 
C 1427 -1152 973 -909 736 -602 
L 422 -934 
z
M 819 1536 
C 819 2163 1229 2707 1952 2707 
C 2624 2707 3104 2163 3104 1536 
C 3104 845 2624 371 1952 371 
C 1229 371 819 909 819 1536 
z
" transform="scale(0.015625)"/>
       <path id="AvenirNextLTPro-Regular-75" d="M 3168 0 
C 3149 205 3142 499 3142 659 
L 3142 2995 
L 2707 2995 
L 2707 1459 
C 2707 659 2259 288 1798 288 
C 1171 288 986 710 986 1338 
L 986 2995 
L 550 2995 
L 550 1158 
C 550 416 928 -77 1690 -77 
C 2112 -77 2547 166 2714 512 
L 2726 512 
C 2726 384 2739 160 2752 0 
L 3168 0 
z
" transform="scale(0.015625)"/>
       <path id="AvenirNextLTPro-Regular-6c" d="M 1024 4838 
L 589 4838 
L 589 0 
L 1024 0 
L 1024 4838 
z
" transform="scale(0.015625)"/>
       <path id="AvenirNextLTPro-Regular-61" d="M 2464 1837 
C 1370 1837 352 1754 352 832 
C 352 166 934 -77 1389 -77 
C 1869 -77 2202 90 2477 486 
L 2490 486 
C 2490 326 2509 147 2534 0 
L 2925 0 
C 2893 166 2874 442 2874 672 
L 2874 1984 
C 2874 2714 2355 3072 1709 3072 
C 1197 3072 774 2886 531 2643 
L 774 2355 
C 986 2566 1312 2707 1664 2707 
C 2182 2707 2464 2451 2464 1933 
L 2464 1837 
z
M 2464 1498 
L 2464 1274 
C 2464 742 2118 282 1504 282 
C 1165 282 800 422 800 851 
C 800 1421 1626 1498 2336 1498 
L 2464 1498 
z
" transform="scale(0.015625)"/>
       <path id="AvenirNextLTPro-Regular-72" d="M 576 2336 
L 576 0 
L 1011 0 
L 1011 1536 
C 1011 2336 1427 2669 1888 2669 
C 2003 2669 2144 2650 2195 2630 
L 2253 3040 
C 2163 3066 2074 3072 1965 3072 
C 1542 3072 1171 2829 1005 2483 
L 992 2483 
C 992 2611 979 2835 966 2995 
L 550 2995 
C 570 2790 576 2496 576 2336 
z
" transform="scale(0.015625)"/>
       <path id="AvenirNextLTPro-Regular-20" transform="scale(0.015625)"/>
       <path id="AvenirNextLTPro-Regular-70" d="M 1011 506 
L 1030 506 
C 1280 134 1728 -77 2157 -77 
C 3091 -77 3706 614 3706 1498 
C 3706 2381 3091 3072 2157 3072 
C 1728 3072 1280 2867 1030 2477 
L 1011 2477 
L 1011 2995 
L 576 2995 
L 576 -1536 
L 1011 -1536 
L 1011 506 
z
M 3245 1498 
C 3245 832 2835 294 2112 294 
C 1440 294 960 813 960 1498 
C 960 2182 1440 2707 2112 2707 
C 2835 2707 3245 2163 3245 1498 
z
" transform="scale(0.015625)"/>
       <path id="AvenirNextLTPro-Regular-6f" d="M 3552 1498 
C 3552 2400 2886 3072 1952 3072 
C 1024 3072 358 2400 358 1498 
C 358 595 1024 -77 1952 -77 
C 2886 -77 3552 595 3552 1498 
z
M 3091 1498 
C 3091 826 2650 294 1952 294 
C 1261 294 819 826 819 1498 
C 819 2170 1261 2707 1952 2707 
C 2650 2707 3091 2170 3091 1498 
z
" transform="scale(0.015625)"/>
       <path id="AvenirNextLTPro-Regular-73" d="M 2502 2534 
C 2310 2874 1869 3072 1453 3072 
C 909 3072 384 2810 384 2202 
C 384 1632 890 1478 1242 1395 
C 1811 1261 2125 1133 2125 819 
C 2125 429 1792 294 1421 294 
C 1069 294 742 499 589 762 
L 243 506 
C 518 102 973 -77 1427 -77 
C 1978 -77 2554 166 2554 851 
C 2554 1318 2221 1581 1517 1728 
C 1024 1830 800 1958 800 2240 
C 800 2573 1120 2707 1434 2707 
C 1766 2707 2042 2534 2170 2285 
L 2502 2534 
z
" transform="scale(0.015625)"/>
       <path id="AvenirNextLTPro-Regular-69" d="M 1018 2995 
L 582 2995 
L 582 0 
L 1018 0 
L 1018 2995 
z
M 1107 4147 
C 1107 4326 954 4454 800 4454 
C 646 4454 493 4326 493 4147 
C 493 3968 646 3840 800 3840 
C 954 3840 1107 3968 1107 4147 
z
" transform="scale(0.015625)"/>
       <path id="AvenirNextLTPro-Regular-74" d="M 1926 2995 
L 1082 2995 
L 1082 3840 
L 646 3840 
L 646 2995 
L 26 2995 
L 26 2630 
L 646 2630 
L 646 762 
C 646 102 1094 -38 1414 -38 
C 1613 -38 1773 -6 1926 51 
L 1907 429 
C 1792 371 1651 333 1530 333 
C 1267 333 1082 435 1082 883 
L 1082 2630 
L 1926 2630 
L 1926 2995 
z
" transform="scale(0.015625)"/>
       <path id="AvenirNextLTPro-Regular-66" d="M 1843 2995 
L 1139 2995 
L 1139 3763 
C 1139 4198 1235 4531 1702 4531 
C 1818 4531 1914 4512 2003 4486 
L 2080 4870 
C 1971 4902 1830 4915 1722 4915 
C 1037 4915 704 4493 704 3814 
L 704 2995 
L 77 2995 
L 77 2630 
L 704 2630 
L 704 0 
L 1139 0 
L 1139 2630 
L 1843 2630 
L 1843 2995 
z
" transform="scale(0.015625)"/>
       <path id="AvenirNextLTPro-Regular-43" d="M 4058 960 
C 3744 493 3245 288 2726 288 
C 1562 288 845 1210 845 2266 
C 845 3322 1555 4243 2726 4243 
C 3302 4243 3757 3942 3949 3648 
L 4333 3930 
C 4019 4371 3386 4646 2720 4646 
C 1370 4646 358 3642 358 2266 
C 358 890 1350 -115 2720 -115 
C 3533 -115 4115 275 4416 730 
L 4058 960 
z
" transform="scale(0.015625)"/>
       <path id="AvenirNextLTPro-Regular-32" d="M 3226 410 
L 826 410 
L 2458 2029 
C 2854 2426 3194 2816 3194 3398 
C 3194 4224 2560 4646 1830 4646 
C 1120 4646 570 4179 442 3539 
L 896 3450 
C 992 3917 1344 4256 1830 4256 
C 2317 4256 2726 3917 2726 3392 
C 2726 2976 2458 2637 2182 2355 
L 326 480 
L 326 0 
L 3226 0 
L 3226 410 
z
" transform="scale(0.015625)"/>
      </defs>
      <use xlink:href="#AvenirNextLTPro-Regular-41"/>
      <use xlink:href="#AvenirNextLTPro-Regular-6e" x="69.999985"/>
      <use xlink:href="#AvenirNextLTPro-Regular-67" x="128.099976"/>
      <use xlink:href="#AvenirNextLTPro-Regular-75" x="191.299973"/>
      <use xlink:href="#AvenirNextLTPro-Regular-6c" x="249.399963"/>
      <use xlink:href="#AvenirNextLTPro-Regular-61" x="274.59996"/>
      <use xlink:href="#AvenirNextLTPro-Regular-72" x="327.999954"/>
      <use xlink:href="#AvenirNextLTPro-Regular-20" x="363.999939"/>
      <use xlink:href="#AvenirNextLTPro-Regular-70" x="388.999924"/>
      <use xlink:href="#AvenirNextLTPro-Regular-6f" x="452.499908"/>
      <use xlink:href="#AvenirNextLTPro-Regular-73" x="513.599899"/>
      <use xlink:href="#AvenirNextLTPro-Regular-69" x="557.999893"/>
      <use xlink:href="#AvenirNextLTPro-Regular-74" x="582.999878"/>
      <use xlink:href="#AvenirNextLTPro-Regular-69" x="614.699875"/>
      <use xlink:href="#AvenirNextLTPro-Regular-6f" x="639.69986"/>
      <use xlink:href="#AvenirNextLTPro-Regular-6e" x="700.79985"/>
      <use xlink:href="#AvenirNextLTPro-Regular-20" x="758.899841"/>
      <use xlink:href="#AvenirNextLTPro-Regular-6f" x="783.899826"/>
      <use xlink:href="#AvenirNextLTPro-Regular-66" x="844.999817"/>
      <use xlink:href="#AvenirNextLTPro-Regular-20" x="874.499802"/>
      <use xlink:href="#AvenirNextLTPro-Regular-43" x="899.499786"/>
      <use xlink:href="#AvenirNextLTPro-Regular-32" x="971.499771"/>
     </g>
    </g>
   </g>
   <g id="matplotlib.axis_2">
    <g id="ytick_1">
     <g id="line2d_5">
      <defs>
       <path id="m42e13ae97a" d="M 0 0 
L -3.5 0 
" style="stroke: #000000; stroke-width: 0.8"/>
      </defs>
      <g>
       <use xlink:href="#m42e13ae97a" x="337.359375" y="235.174701" style="stroke: #000000; stroke-width: 0.8"/>
      </g>
     </g>
     <g id="text_6">
      <!-- $0^\circ$ -->
      <g transform="translate(316.459375 238.954388)scale(0.1 -0.1)">
       <use xlink:href="#DejaVuSans-30" transform="translate(0 0.78125)"/>
       <use xlink:href="#DejaVuSans-2218" transform="translate(78.217773 39.0625)scale(0.7)"/>
      </g>
     </g>
    </g>
    <g id="ytick_2">
     <g id="line2d_6">
      <g>
       <use xlink:href="#m42e13ae97a" x="337.359375" y="164.206884" style="stroke: #000000; stroke-width: 0.8"/>
      </g>
     </g>
     <g id="text_7">
      <!-- $60^\circ$ -->
      <g transform="translate(310.059375 167.986571)scale(0.1 -0.1)">
       <use xlink:href="#DejaVuSans-36" transform="translate(0 0.78125)"/>
       <use xlink:href="#DejaVuSans-30" transform="translate(63.623047 0.78125)"/>
       <use xlink:href="#DejaVuSans-2218" transform="translate(141.84082 39.0625)scale(0.7)"/>
      </g>
     </g>
    </g>
    <g id="ytick_3">
     <g id="line2d_7">
      <g>
       <use xlink:href="#m42e13ae97a" x="337.359375" y="93.239067" style="stroke: #000000; stroke-width: 0.8"/>
      </g>
     </g>
     <g id="text_8">
      <!-- $120^\circ$ -->
      <g transform="translate(303.759375 97.018754)scale(0.1 -0.1)">
       <use xlink:href="#DejaVuSans-31" transform="translate(0 0.78125)"/>
       <use xlink:href="#DejaVuSans-32" transform="translate(63.623047 0.78125)"/>
       <use xlink:href="#DejaVuSans-30" transform="translate(127.246094 0.78125)"/>
       <use xlink:href="#DejaVuSans-2218" transform="translate(205.463867 39.0625)scale(0.7)"/>
      </g>
     </g>
    </g>
    <g id="ytick_4">
     <g id="line2d_8">
      <g>
       <use xlink:href="#m42e13ae97a" x="337.359375" y="22.27125" style="stroke: #000000; stroke-width: 0.8"/>
      </g>
     </g>
     <g id="text_9">
      <!-- $180^\circ$ -->
      <g transform="translate(303.759375 26.050938)scale(0.1 -0.1)">
       <use xlink:href="#DejaVuSans-31" transform="translate(0 0.78125)"/>
       <use xlink:href="#DejaVuSans-38" transform="translate(63.623047 0.78125)"/>
       <use xlink:href="#DejaVuSans-30" transform="translate(127.246094 0.78125)"/>
       <use xlink:href="#DejaVuSans-2218" transform="translate(205.463867 39.0625)scale(0.7)"/>
      </g>
     </g>
    </g>
    <g id="text_10">
     <!-- WVS Decision Variable L -->
     <g transform="translate(297.359375 184.454225)rotate(-90)scale(0.1 -0.1)">
      <defs>
       <path id="AvenirNextLTPro-Regular-57" d="M 576 4531 
L 90 4531 
L 1427 0 
L 1965 0 
L 3104 3891 
L 3117 3891 
L 4256 0 
L 4794 0 
L 6131 4531 
L 5645 4531 
L 4538 634 
L 4525 634 
L 3392 4531 
L 2842 4531 
L 1709 634 
L 1696 634 
L 576 4531 
z
" transform="scale(0.015625)"/>
       <path id="AvenirNextLTPro-Regular-56" d="M 518 4531 
L 19 4531 
L 1747 0 
L 2234 0 
L 3968 4531 
L 3475 4531 
L 2003 595 
L 1990 595 
L 518 4531 
z
" transform="scale(0.015625)"/>
       <path id="AvenirNextLTPro-Regular-53" d="M 3162 4096 
C 2944 4390 2490 4646 1882 4646 
C 1216 4646 435 4275 435 3398 
C 435 2579 1050 2317 1651 2131 
C 2227 1952 2758 1792 2758 1158 
C 2758 576 2221 282 1754 282 
C 1280 282 915 531 717 851 
L 320 557 
C 646 109 1197 -115 1747 -115 
C 2464 -115 3226 282 3226 1190 
C 3226 2099 2522 2304 1882 2515 
C 1376 2682 896 2829 896 3405 
C 896 3987 1414 4256 1862 4256 
C 2291 4256 2605 4077 2797 3802 
L 3162 4096 
z
" transform="scale(0.015625)"/>
       <path id="AvenirNextLTPro-Regular-44" d="M 602 0 
L 2106 0 
C 3238 0 4486 755 4486 2266 
C 4486 3776 3238 4531 2106 4531 
L 602 4531 
L 602 0 
z
M 1062 4122 
L 1978 4122 
C 3341 4122 4000 3200 4000 2266 
C 4000 1331 3341 410 1978 410 
L 1062 410 
L 1062 4122 
z
" transform="scale(0.015625)"/>
       <path id="AvenirNextLTPro-Regular-65" d="M 819 1728 
C 858 2240 1286 2707 1869 2707 
C 2490 2707 2835 2291 2861 1728 
L 819 1728 
z
M 3302 1587 
C 3302 2406 2810 3072 1869 3072 
C 1018 3072 358 2400 358 1498 
C 358 595 1018 -77 1907 -77 
C 2400 -77 2842 109 3194 557 
L 2867 813 
C 2701 544 2355 294 1907 294 
C 1293 294 826 781 813 1382 
L 3296 1382 
C 3302 1459 3302 1530 3302 1587 
z
" transform="scale(0.015625)"/>
       <path id="AvenirNextLTPro-Regular-63" d="M 3072 2554 
C 2816 2899 2362 3072 1958 3072 
C 992 3072 358 2400 358 1498 
C 358 595 992 -77 1958 -77 
C 2477 -77 2842 128 3098 442 
L 2771 685 
C 2598 454 2336 294 1958 294 
C 1261 294 819 819 819 1498 
C 819 2182 1267 2707 1965 2707 
C 2291 2707 2592 2541 2733 2310 
L 3072 2554 
z
" transform="scale(0.015625)"/>
       <path id="AvenirNextLTPro-Regular-62" d="M 1037 506 
C 1293 128 1741 -77 2170 -77 
C 3104 -77 3718 614 3718 1498 
C 3718 2381 3104 3072 2170 3072 
C 1741 3072 1293 2867 1037 2477 
L 1024 2477 
L 1024 4838 
L 589 4838 
L 589 0 
L 1024 0 
L 1024 506 
L 1037 506 
z
M 3258 1498 
C 3258 832 2848 294 2125 294 
C 1453 294 973 813 973 1498 
C 973 2182 1453 2707 2125 2707 
C 2848 2707 3258 2163 3258 1498 
z
" transform="scale(0.015625)"/>
       <path id="AvenirNextLTPro-Regular-4c" d="M 1062 4531 
L 602 4531 
L 602 0 
L 3174 0 
L 3174 410 
L 1062 410 
L 1062 4531 
z
" transform="scale(0.015625)"/>
      </defs>
      <use xlink:href="#AvenirNextLTPro-Regular-57"/>
      <use xlink:href="#AvenirNextLTPro-Regular-56" x="97.199982"/>
      <use xlink:href="#AvenirNextLTPro-Regular-53" x="159.499969"/>
      <use xlink:href="#AvenirNextLTPro-Regular-20" x="215.899963"/>
      <use xlink:href="#AvenirNextLTPro-Regular-44" x="240.899948"/>
      <use xlink:href="#AvenirNextLTPro-Regular-65" x="316.59993"/>
      <use xlink:href="#AvenirNextLTPro-Regular-63" x="373.799927"/>
      <use xlink:href="#AvenirNextLTPro-Regular-69" x="423.799911"/>
      <use xlink:href="#AvenirNextLTPro-Regular-73" x="448.799896"/>
      <use xlink:href="#AvenirNextLTPro-Regular-69" x="493.19989"/>
      <use xlink:href="#AvenirNextLTPro-Regular-6f" x="518.199875"/>
      <use xlink:href="#AvenirNextLTPro-Regular-6e" x="579.299866"/>
      <use xlink:href="#AvenirNextLTPro-Regular-20" x="637.399857"/>
      <use xlink:href="#AvenirNextLTPro-Regular-56" x="662.399841"/>
      <use xlink:href="#AvenirNextLTPro-Regular-61" x="724.699829"/>
      <use xlink:href="#AvenirNextLTPro-Regular-72" x="778.099823"/>
      <use xlink:href="#AvenirNextLTPro-Regular-69" x="814.099808"/>
      <use xlink:href="#AvenirNextLTPro-Regular-61" x="839.099792"/>
      <use xlink:href="#AvenirNextLTPro-Regular-62" x="892.499786"/>
      <use xlink:href="#AvenirNextLTPro-Regular-6c" x="956.199783"/>
      <use xlink:href="#AvenirNextLTPro-Regular-65" x="981.39978"/>
      <use xlink:href="#AvenirNextLTPro-Regular-20" x="1038.599777"/>
      <use xlink:href="#AvenirNextLTPro-Regular-4c" x="1063.599762"/>
     </g>
    </g>
   </g>
   <g id="line2d_9">
    <path d="M 337.359375 235.174701 
L 375.877461 200.358941 
L 396.403406 181.496176 
L 413.671603 165.330094 
L 429.215109 150.477543 
L 443.715284 136.316775 
L 457.597977 122.449154 
L 471.161284 108.586359 
L 484.745882 94.382276 
L 498.735038 79.429818 
L 513.767525 63.029981 
L 531.376401 43.475947 
L 550.262826 22.27125 
L 550.262826 22.27125 
" clip-path="url(#p1e3cd02c77)" style="fill: none; stroke: #1f77b4; stroke-width: 1.5; stroke-linecap: square"/>
   </g>
   <g id="line2d_10">
    <path d="M 337.359375 235.174701 
L 371.661551 207.590685 
L 389.589814 192.880278 
L 404.324207 180.509094 
L 417.227446 169.390096 
L 428.87443 159.064414 
L 439.605837 149.256333 
L 449.6133 139.811146 
L 459.067158 130.584275 
L 468.073875 121.484458 
L 476.761204 112.391683 
L 485.214317 103.222254 
L 493.539674 93.863291 
L 501.865032 84.169048 
L 510.360729 73.932549 
L 519.260983 62.855353 
L 529.012936 50.354244 
L 540.872844 34.769103 
L 550.262826 22.27125 
L 550.262826 22.27125 
" clip-path="url(#p1e3cd02c77)" style="fill: none; stroke: #ff7f0e; stroke-width: 1.5; stroke-linecap: square"/>
   </g>
   <g id="line2d_11">
    <path d="M 337.359375 235.174701 
L 372.534543 210.416648 
L 390.654438 197.38409 
L 405.261076 186.61119 
L 417.802343 177.09061 
L 428.87443 168.410482 
L 438.818015 160.336153 
L 447.846024 152.722507 
L 456.128797 145.45007 
L 463.794087 138.427121 
L 470.948359 131.573056 
L 477.655488 124.841649 
L 484.000646 118.160027 
L 490.047708 111.469658 
L 495.839261 104.730399 
L 501.439182 97.872387 
L 506.890055 90.845068 
L 512.277051 83.535175 
L 517.642755 75.877152 
L 523.093628 67.706871 
L 528.778719 58.778062 
L 534.932244 48.688228 
L 542.150393 36.405186 
L 550.262826 22.27125 
L 550.262826 22.27125 
" clip-path="url(#p1e3cd02c77)" style="fill: none; stroke: #2ca02c; stroke-width: 1.5; stroke-linecap: square"/>
   </g>
   <g id="line2d_12">
    <path d="M 337.359375 235.174701 
L 378.900992 210.120285 
L 399.725032 197.29627 
L 416.013775 187.01184 
L 429.555789 178.20524 
L 441.117602 170.426939 
L 451.146358 163.417765 
L 459.961442 156.991102 
L 467.797073 151.007955 
L 474.802297 145.383563 
L 481.126162 140.024684 
L 486.853837 134.883488 
L 492.091786 129.88647 
L 496.903885 124.991497 
L 501.354012 120.150398 
L 505.506045 115.306168 
L 509.381275 110.445061 
L 513.043581 105.494805 
L 516.514254 100.42973 
L 519.83588 95.187532 
L 523.029751 89.73029 
L 526.138452 83.975694 
L 529.183276 77.869407 
L 532.2281 71.258327 
L 535.294216 64.063769 
L 538.488087 55.991515 
L 541.937468 46.651588 
L 546.004331 34.96385 
L 550.262826 22.27125 
L 550.262826 22.27125 
" clip-path="url(#p1e3cd02c77)" style="fill: none; stroke: #d62728; stroke-width: 1.5; stroke-linecap: square"/>
   </g>
   <g id="line2d_13">
    <path d="M 337.359375 235.174701 
L 550.262826 128.722975 
L 550.262826 128.722975 
" clip-path="url(#p1e3cd02c77)" style="fill: none; stroke: #9467bd; stroke-width: 1.5; stroke-linecap: square"/>
   </g>
   <g id="line2d_14">
    <path d="M 337.359375 235.174701 
L 377.836369 219.103427 
L 398.128097 211.290036 
L 413.99099 205.412802 
L 427.149739 200.767949 
L 438.370873 197.037037 
L 448.080241 194.037439 
L 456.597231 191.633892 
L 464.113475 189.738584 
L 470.820604 188.272062 
L 476.825082 187.182155 
L 482.254663 186.41881 
L 487.173224 185.948066 
L 491.665936 185.738096 
L 495.775384 185.764623 
L 499.586737 186.009149 
L 503.121288 186.456939 
L 506.421621 187.097733 
L 509.50903 187.921207 
L 512.426099 188.926487 
L 515.215413 190.121905 
L 517.876972 191.502862 
L 520.453362 193.089439 
L 522.965874 194.899121 
L 525.414508 196.936837 
L 527.84185 199.247265 
L 530.269192 201.868316 
L 532.717827 204.845129 
L 535.209046 208.228724 
L 537.806728 212.139952 
L 540.57475 216.720644 
L 543.662159 222.276042 
L 547.494804 229.661607 
L 550.262826 235.174701 
L 550.262826 235.174701 
" clip-path="url(#p1e3cd02c77)" style="fill: none; stroke: #8c564b; stroke-width: 1.5; stroke-linecap: square"/>
   </g>
   <g id="line2d_15">
    <path d="M 337.359375 235.174701 
L 370.767267 225.268127 
L 387.971586 220.403645 
L 401.832987 216.709364 
L 413.692895 213.773097 
L 424.1475 211.40909 
L 433.516189 209.514671 
L 441.990594 208.023998 
L 449.741054 206.882924 
L 456.874033 206.054312 
L 463.4747 205.508062 
L 469.628225 205.218856 
L 475.398486 205.167681 
L 480.828067 205.339147 
L 485.980846 205.722174 
L 490.899407 206.309565 
L 495.605044 207.094043 
L 500.140341 208.073818 
L 504.547883 209.252044 
L 508.870256 210.637254 
L 513.12875 212.234996 
L 517.387245 214.071048 
L 521.688325 216.169776 
L 526.095867 218.571096 
L 530.695042 221.333478 
L 535.677481 224.591453 
L 541.405156 228.613037 
L 549.389834 234.520036 
L 550.262826 235.174701 
L 550.262826 235.174701 
" clip-path="url(#p1e3cd02c77)" style="fill: none; stroke: #e377c2; stroke-width: 1.5; stroke-linecap: square"/>
   </g>
   <g id="line2d_16">
    <path d="M 337.359375 235.174701 
L 369.170332 228.925796 
L 385.778462 225.8957 
L 399.405645 223.630048 
L 411.308138 221.872043 
L 422.018253 220.511139 
L 431.834084 219.484961 
L 440.92597 218.754969 
L 449.464252 218.290378 
L 457.512808 218.072762 
L 465.178098 218.085591 
L 472.545294 218.318697 
L 479.678273 218.766139 
L 486.61962 219.423452 
L 493.454504 220.293548 
L 500.246803 221.38226 
L 507.081688 222.703165 
L 514.086912 224.284773 
L 521.432815 226.174239 
L 529.417493 228.462695 
L 538.76489 231.382548 
L 550.262826 235.174701 
L 550.262826 235.174701 
" clip-path="url(#p1e3cd02c77)" style="fill: none; stroke: #7f7f7f; stroke-width: 1.5; stroke-linecap: square"/>
   </g>
   <g id="line2d_17">
    <path d="M 337.359375 235.174701 
L 372.300325 231.79217 
L 390.867363 230.224905 
L 406.410869 229.131688 
L 420.314855 228.373424 
L 433.175509 227.892434 
L 445.31222 227.659021 
L 456.980496 227.65552 
L 468.371969 227.873558 
L 479.678273 228.312252 
L 491.112332 228.979375 
L 502.950948 229.894968 
L 515.662555 231.104988 
L 530.311777 232.730896 
L 550.262826 235.174701 
L 550.262826 235.174701 
" clip-path="url(#p1e3cd02c77)" style="fill: none; stroke: #bcbd22; stroke-width: 1.5; stroke-linecap: square"/>
   </g>
   <g id="LineCollection_1">
    <path d="M 408.327192 235.174701 
L 408.327192 22.27125 
" clip-path="url(#p1e3cd02c77)" style="fill: none; stroke-dasharray: 5.55,2.4; stroke-dashoffset: 0; stroke: #808080; stroke-opacity: 0.5; stroke-width: 1.5"/>
    <path d="M 479.295009 235.174701 
L 479.295009 22.27125 
" clip-path="url(#p1e3cd02c77)" style="fill: none; stroke-dasharray: 5.55,2.4; stroke-dashoffset: 0; stroke: #808080; stroke-opacity: 0.5; stroke-width: 1.5"/>
   </g>
   <g id="patch_3">
    <path d="M 337.359375 235.174701 
L 337.359375 22.27125 
" style="fill: none; stroke: #000000; stroke-width: 0.8; stroke-linejoin: miter; stroke-linecap: square"/>
   </g>
   <g id="patch_4">
    <path d="M 550.262826 235.174701 
L 550.262826 22.27125 
" style="fill: none; stroke: #000000; stroke-width: 0.8; stroke-linejoin: miter; stroke-linecap: square"/>
   </g>
   <g id="patch_5">
    <path d="M 337.359375 235.174701 
L 550.262826 235.174701 
" style="fill: none; stroke: #000000; stroke-width: 0.8; stroke-linejoin: miter; stroke-linecap: square"/>
   </g>
   <g id="patch_6">
    <path d="M 337.359375 22.27125 
L 550.262826 22.27125 
" style="fill: none; stroke: #000000; stroke-width: 0.8; stroke-linejoin: miter; stroke-linecap: square"/>
   </g>
   <g id="text_11">
    <!-- Weighted Vector Sum (WVS) -->
    <g transform="translate(365.480163 16.27125)scale(0.12 -0.12)">
     <defs>
      <path id="AvenirNextLTPro-Regular-68" d="M 1024 2502 
L 1024 4838 
L 589 4838 
L 589 0 
L 1024 0 
L 1024 1536 
C 1024 2336 1472 2707 1933 2707 
C 2560 2707 2746 2285 2746 1658 
L 2746 0 
L 3181 0 
L 3181 1837 
C 3181 2579 2803 3072 2042 3072 
C 1619 3072 1197 2848 1037 2502 
L 1024 2502 
z
" transform="scale(0.015625)"/>
      <path id="AvenirNextLTPro-Regular-64" d="M 3040 506 
L 3053 506 
L 3053 0 
L 3488 0 
L 3488 4838 
L 3053 4838 
L 3053 2477 
L 3040 2477 
C 2784 2867 2336 3072 1907 3072 
C 973 3072 358 2381 358 1498 
C 358 614 973 -77 1907 -77 
C 2336 -77 2784 128 3040 506 
z
M 819 1498 
C 819 2163 1229 2707 1952 2707 
C 2624 2707 3104 2182 3104 1498 
C 3104 813 2624 294 1952 294 
C 1229 294 819 832 819 1498 
z
" transform="scale(0.015625)"/>
      <path id="AvenirNextLTPro-Regular-6d" d="M 1005 2483 
L 992 2483 
C 992 2611 979 2835 966 2995 
L 550 2995 
C 570 2790 576 2496 576 2336 
L 576 0 
L 1011 0 
L 1011 1536 
C 1011 2336 1466 2707 1882 2707 
C 2464 2707 2605 2330 2605 1747 
L 2605 0 
L 3040 0 
L 3040 1594 
C 3040 2150 3264 2707 3891 2707 
C 4454 2707 4666 2285 4666 1658 
L 4666 0 
L 5101 0 
L 5101 1837 
C 5101 2579 4723 3072 3962 3072 
C 3482 3072 3117 2848 2912 2438 
C 2714 2950 2317 3072 1990 3072 
C 1562 3072 1178 2829 1005 2483 
z
" transform="scale(0.015625)"/>
      <path id="AvenirNextLTPro-Regular-28" d="M 627 1843 
C 627 851 986 -122 1472 -806 
L 1139 -1018 
C 602 -307 205 742 205 1843 
C 205 2944 602 3994 1139 4704 
L 1472 4493 
C 986 3808 627 2835 627 1843 
z
" transform="scale(0.015625)"/>
      <path id="AvenirNextLTPro-Regular-29" d="M 1293 1843 
C 1293 851 934 -122 448 -806 
L 781 -1018 
C 1318 -307 1715 742 1715 1843 
C 1715 2944 1318 3994 781 4704 
L 448 4493 
C 934 3808 1293 2835 1293 1843 
z
" transform="scale(0.015625)"/>
     </defs>
     <use xlink:href="#AvenirNextLTPro-Regular-57"/>
     <use xlink:href="#AvenirNextLTPro-Regular-65" x="97.199982"/>
     <use xlink:href="#AvenirNextLTPro-Regular-69" x="154.399979"/>
     <use xlink:href="#AvenirNextLTPro-Regular-67" x="179.399963"/>
     <use xlink:href="#AvenirNextLTPro-Regular-68" x="242.59996"/>
     <use xlink:href="#AvenirNextLTPro-Regular-74" x="300.899948"/>
     <use xlink:href="#AvenirNextLTPro-Regular-65" x="332.599945"/>
     <use xlink:href="#AvenirNextLTPro-Regular-64" x="389.799942"/>
     <use xlink:href="#AvenirNextLTPro-Regular-20" x="453.499939"/>
     <use xlink:href="#AvenirNextLTPro-Regular-56" x="478.499924"/>
     <use xlink:href="#AvenirNextLTPro-Regular-65" x="540.799911"/>
     <use xlink:href="#AvenirNextLTPro-Regular-63" x="597.999908"/>
     <use xlink:href="#AvenirNextLTPro-Regular-74" x="647.999893"/>
     <use xlink:href="#AvenirNextLTPro-Regular-6f" x="679.69989"/>
     <use xlink:href="#AvenirNextLTPro-Regular-72" x="740.799881"/>
     <use xlink:href="#AvenirNextLTPro-Regular-20" x="776.799866"/>
     <use xlink:href="#AvenirNextLTPro-Regular-53" x="801.79985"/>
     <use xlink:href="#AvenirNextLTPro-Regular-75" x="858.199844"/>
     <use xlink:href="#AvenirNextLTPro-Regular-6d" x="916.299835"/>
     <use xlink:href="#AvenirNextLTPro-Regular-20" x="1004.599823"/>
     <use xlink:href="#AvenirNextLTPro-Regular-28" x="1029.599808"/>
     <use xlink:href="#AvenirNextLTPro-Regular-57" x="1059.599792"/>
     <use xlink:href="#AvenirNextLTPro-Regular-56" x="1156.799774"/>
     <use xlink:href="#AvenirNextLTPro-Regular-53" x="1219.099762"/>
     <use xlink:href="#AvenirNextLTPro-Regular-29" x="1275.499756"/>
    </g>
   </g>
  </g>
  <g id="axes_2">
   <g id="patch_7">
    <path d="M 54.759375 235.174701 
L 267.662826 235.174701 
L 267.662826 22.27125 
L 54.759375 22.27125 
z
" style="fill: #ffffff"/>
   </g>
   <g id="matplotlib.axis_3">
    <g id="xtick_5">
     <g id="line2d_18">
      <g>
       <use xlink:href="#m835b68093e" x="54.759375" y="235.174701" style="stroke: #000000; stroke-width: 0.8"/>
      </g>
     </g>
     <g id="text_12">
      <!-- $0^\circ$ -->
      <g transform="translate(47.809375 249.734076)scale(0.1 -0.1)">
       <use xlink:href="#DejaVuSans-30" transform="translate(0 0.78125)"/>
       <use xlink:href="#DejaVuSans-2218" transform="translate(78.217773 39.0625)scale(0.7)"/>
      </g>
     </g>
    </g>
    <g id="xtick_6">
     <g id="line2d_19">
      <g>
       <use xlink:href="#m835b68093e" x="125.727192" y="235.174701" style="stroke: #000000; stroke-width: 0.8"/>
      </g>
     </g>
     <g id="text_13">
      <!-- $60^\circ$ -->
      <g transform="translate(115.577192 249.734076)scale(0.1 -0.1)">
       <use xlink:href="#DejaVuSans-36" transform="translate(0 0.78125)"/>
       <use xlink:href="#DejaVuSans-30" transform="translate(63.623047 0.78125)"/>
       <use xlink:href="#DejaVuSans-2218" transform="translate(141.84082 39.0625)scale(0.7)"/>
      </g>
     </g>
    </g>
    <g id="xtick_7">
     <g id="line2d_20">
      <g>
       <use xlink:href="#m835b68093e" x="196.695009" y="235.174701" style="stroke: #000000; stroke-width: 0.8"/>
      </g>
     </g>
     <g id="text_14">
      <!-- $120^\circ$ -->
      <g transform="translate(183.395009 249.734076)scale(0.1 -0.1)">
       <use xlink:href="#DejaVuSans-31" transform="translate(0 0.78125)"/>
       <use xlink:href="#DejaVuSans-32" transform="translate(63.623047 0.78125)"/>
       <use xlink:href="#DejaVuSans-30" transform="translate(127.246094 0.78125)"/>
       <use xlink:href="#DejaVuSans-2218" transform="translate(205.463867 39.0625)scale(0.7)"/>
      </g>
     </g>
    </g>
    <g id="xtick_8">
     <g id="line2d_21">
      <g>
       <use xlink:href="#m835b68093e" x="267.662826" y="235.174701" style="stroke: #000000; stroke-width: 0.8"/>
      </g>
     </g>
     <g id="text_15">
      <!-- $180^\circ$ -->
      <g transform="translate(254.362826 249.734076)scale(0.1 -0.1)">
       <use xlink:href="#DejaVuSans-31" transform="translate(0 0.78125)"/>
       <use xlink:href="#DejaVuSans-38" transform="translate(63.623047 0.78125)"/>
       <use xlink:href="#DejaVuSans-30" transform="translate(127.246094 0.78125)"/>
       <use xlink:href="#DejaVuSans-2218" transform="translate(205.463867 39.0625)scale(0.7)"/>
      </g>
     </g>
    </g>
    <g id="text_16">
     <!-- Position of C2 -->
     <g transform="translate(129.461882 263.693451)scale(0.1 -0.1)">
      <defs>
       <path id="AvenirNextLTPro-Regular-50" d="M 602 0 
L 1062 0 
L 1062 2106 
L 1869 2106 
C 2790 2106 3411 2509 3411 3322 
C 3411 4134 2803 4531 1882 4531 
L 602 4531 
L 602 0 
z
M 1062 4134 
L 1843 4134 
C 2541 4134 2950 3878 2950 3322 
C 2950 2784 2560 2496 1843 2496 
L 1062 2496 
L 1062 4134 
z
" transform="scale(0.015625)"/>
      </defs>
      <use xlink:href="#AvenirNextLTPro-Regular-50"/>
      <use xlink:href="#AvenirNextLTPro-Regular-6f" x="57.999985"/>
      <use xlink:href="#AvenirNextLTPro-Regular-73" x="119.099976"/>
      <use xlink:href="#AvenirNextLTPro-Regular-69" x="163.499969"/>
      <use xlink:href="#AvenirNextLTPro-Regular-74" x="188.499954"/>
      <use xlink:href="#AvenirNextLTPro-Regular-69" x="220.199951"/>
      <use xlink:href="#AvenirNextLTPro-Regular-6f" x="245.199936"/>
      <use xlink:href="#AvenirNextLTPro-Regular-6e" x="306.299927"/>
      <use xlink:href="#AvenirNextLTPro-Regular-20" x="364.399918"/>
      <use xlink:href="#AvenirNextLTPro-Regular-6f" x="389.399902"/>
      <use xlink:href="#AvenirNextLTPro-Regular-66" x="450.499893"/>
      <use xlink:href="#AvenirNextLTPro-Regular-20" x="479.999878"/>
      <use xlink:href="#AvenirNextLTPro-Regular-43" x="504.999863"/>
      <use xlink:href="#AvenirNextLTPro-Regular-32" x="576.999847"/>
     </g>
    </g>
   </g>
   <g id="matplotlib.axis_4">
    <g id="ytick_5">
     <g id="line2d_22">
      <g>
       <use xlink:href="#m42e13ae97a" x="54.759375" y="235.174701" style="stroke: #000000; stroke-width: 0.8"/>
      </g>
     </g>
     <g id="text_17">
      <!-- $0^\circ$ -->
      <g transform="translate(33.859375 238.954388)scale(0.1 -0.1)">
       <use xlink:href="#DejaVuSans-30" transform="translate(0 0.78125)"/>
       <use xlink:href="#DejaVuSans-2218" transform="translate(78.217773 39.0625)scale(0.7)"/>
      </g>
     </g>
    </g>
    <g id="ytick_6">
     <g id="line2d_23">
      <g>
       <use xlink:href="#m42e13ae97a" x="54.759375" y="164.206884" style="stroke: #000000; stroke-width: 0.8"/>
      </g>
     </g>
     <g id="text_18">
      <!-- $60^\circ$ -->
      <g transform="translate(27.459375 167.986571)scale(0.1 -0.1)">
       <use xlink:href="#DejaVuSans-36" transform="translate(0 0.78125)"/>
       <use xlink:href="#DejaVuSans-30" transform="translate(63.623047 0.78125)"/>
       <use xlink:href="#DejaVuSans-2218" transform="translate(141.84082 39.0625)scale(0.7)"/>
      </g>
     </g>
    </g>
    <g id="ytick_7">
     <g id="line2d_24">
      <g>
       <use xlink:href="#m42e13ae97a" x="54.759375" y="93.239067" style="stroke: #000000; stroke-width: 0.8"/>
      </g>
     </g>
     <g id="text_19">
      <!-- $120^\circ$ -->
      <g transform="translate(21.159375 97.018754)scale(0.1 -0.1)">
       <use xlink:href="#DejaVuSans-31" transform="translate(0 0.78125)"/>
       <use xlink:href="#DejaVuSans-32" transform="translate(63.623047 0.78125)"/>
       <use xlink:href="#DejaVuSans-30" transform="translate(127.246094 0.78125)"/>
       <use xlink:href="#DejaVuSans-2218" transform="translate(205.463867 39.0625)scale(0.7)"/>
      </g>
     </g>
    </g>
    <g id="ytick_8">
     <g id="line2d_25">
      <g>
       <use xlink:href="#m42e13ae97a" x="54.759375" y="22.27125" style="stroke: #000000; stroke-width: 0.8"/>
      </g>
     </g>
     <g id="text_20">
      <!-- $180^\circ$ -->
      <g transform="translate(21.159375 26.050937)scale(0.1 -0.1)">
       <use xlink:href="#DejaVuSans-31" transform="translate(0 0.78125)"/>
       <use xlink:href="#DejaVuSans-38" transform="translate(63.623047 0.78125)"/>
       <use xlink:href="#DejaVuSans-30" transform="translate(127.246094 0.78125)"/>
       <use xlink:href="#DejaVuSans-2218" transform="translate(205.463867 39.0625)scale(0.7)"/>
      </g>
     </g>
    </g>
    <g id="text_21">
     <!-- Weighted arithmetic mean -->
     <g transform="translate(14.759375 189.579225)rotate(-90)scale(0.1 -0.1)">
      <use xlink:href="#AvenirNextLTPro-Regular-57"/>
      <use xlink:href="#AvenirNextLTPro-Regular-65" x="97.199982"/>
      <use xlink:href="#AvenirNextLTPro-Regular-69" x="154.399979"/>
      <use xlink:href="#AvenirNextLTPro-Regular-67" x="179.399963"/>
      <use xlink:href="#AvenirNextLTPro-Regular-68" x="242.59996"/>
      <use xlink:href="#AvenirNextLTPro-Regular-74" x="300.899948"/>
      <use xlink:href="#AvenirNextLTPro-Regular-65" x="332.599945"/>
      <use xlink:href="#AvenirNextLTPro-Regular-64" x="389.799942"/>
      <use xlink:href="#AvenirNextLTPro-Regular-20" x="453.499939"/>
      <use xlink:href="#AvenirNextLTPro-Regular-61" x="478.499924"/>
      <use xlink:href="#AvenirNextLTPro-Regular-72" x="531.899918"/>
      <use xlink:href="#AvenirNextLTPro-Regular-69" x="567.899902"/>
      <use xlink:href="#AvenirNextLTPro-Regular-74" x="592.899887"/>
      <use xlink:href="#AvenirNextLTPro-Regular-68" x="624.599884"/>
      <use xlink:href="#AvenirNextLTPro-Regular-6d" x="682.899872"/>
      <use xlink:href="#AvenirNextLTPro-Regular-65" x="771.19986"/>
      <use xlink:href="#AvenirNextLTPro-Regular-74" x="828.399857"/>
      <use xlink:href="#AvenirNextLTPro-Regular-69" x="860.099854"/>
      <use xlink:href="#AvenirNextLTPro-Regular-63" x="885.099838"/>
      <use xlink:href="#AvenirNextLTPro-Regular-20" x="935.099823"/>
      <use xlink:href="#AvenirNextLTPro-Regular-6d" x="960.099808"/>
      <use xlink:href="#AvenirNextLTPro-Regular-65" x="1048.399796"/>
      <use xlink:href="#AvenirNextLTPro-Regular-61" x="1105.599792"/>
      <use xlink:href="#AvenirNextLTPro-Regular-6e" x="1158.999786"/>
     </g>
    </g>
   </g>
   <g id="line2d_26">
    <path d="M 54.759375 235.174701 
L 267.662826 43.561595 
L 267.662826 43.561595 
" clip-path="url(#p6d19b0de1d)" style="fill: none; stroke: #1f77b4; stroke-width: 1.5; stroke-linecap: square"/>
   </g>
   <g id="line2d_27">
    <path d="M 54.759375 235.174701 
L 267.662826 64.85194 
L 267.662826 64.85194 
" clip-path="url(#p6d19b0de1d)" style="fill: none; stroke: #ff7f0e; stroke-width: 1.5; stroke-linecap: square"/>
   </g>
   <g id="line2d_28">
    <path d="M 54.759375 235.174701 
L 267.662826 86.142285 
L 267.662826 86.142285 
" clip-path="url(#p6d19b0de1d)" style="fill: none; stroke: #2ca02c; stroke-width: 1.5; stroke-linecap: square"/>
   </g>
   <g id="line2d_29">
    <path d="M 54.759375 235.174701 
L 267.662826 107.43263 
L 267.662826 107.43263 
" clip-path="url(#p6d19b0de1d)" style="fill: none; stroke: #d62728; stroke-width: 1.5; stroke-linecap: square"/>
   </g>
   <g id="line2d_30">
    <path d="M 54.759375 235.174701 
L 267.662826 128.722975 
L 267.662826 128.722975 
" clip-path="url(#p6d19b0de1d)" style="fill: none; stroke: #9467bd; stroke-width: 1.5; stroke-linecap: square"/>
   </g>
   <g id="line2d_31">
    <path d="M 54.759375 235.174701 
L 267.662826 150.01332 
L 267.662826 150.01332 
" clip-path="url(#p6d19b0de1d)" style="fill: none; stroke: #8c564b; stroke-width: 1.5; stroke-linecap: square"/>
   </g>
   <g id="line2d_32">
    <path d="M 54.759375 235.174701 
L 267.662826 171.303665 
L 267.662826 171.303665 
" clip-path="url(#p6d19b0de1d)" style="fill: none; stroke: #e377c2; stroke-width: 1.5; stroke-linecap: square"/>
   </g>
   <g id="line2d_33">
    <path d="M 54.759375 235.174701 
L 267.662826 192.594011 
L 267.662826 192.594011 
" clip-path="url(#p6d19b0de1d)" style="fill: none; stroke: #7f7f7f; stroke-width: 1.5; stroke-linecap: square"/>
   </g>
   <g id="line2d_34">
    <path d="M 54.759375 235.174701 
L 267.662826 213.884356 
L 267.662826 213.884356 
" clip-path="url(#p6d19b0de1d)" style="fill: none; stroke: #bcbd22; stroke-width: 1.5; stroke-linecap: square"/>
   </g>
   <g id="LineCollection_2">
    <path d="M 125.727192 235.174701 
L 125.727192 22.27125 
" clip-path="url(#p6d19b0de1d)" style="fill: none; stroke-dasharray: 5.55,2.4; stroke-dashoffset: 0; stroke: #808080; stroke-opacity: 0.5; stroke-width: 1.5"/>
    <path d="M 196.695009 235.174701 
L 196.695009 22.27125 
" clip-path="url(#p6d19b0de1d)" style="fill: none; stroke-dasharray: 5.55,2.4; stroke-dashoffset: 0; stroke: #808080; stroke-opacity: 0.5; stroke-width: 1.5"/>
   </g>
   <g id="patch_8">
    <path d="M 54.759375 235.174701 
L 54.759375 22.27125 
" style="fill: none; stroke: #000000; stroke-width: 0.8; stroke-linejoin: miter; stroke-linecap: square"/>
   </g>
   <g id="patch_9">
    <path d="M 267.662826 235.174701 
L 267.662826 22.27125 
" style="fill: none; stroke: #000000; stroke-width: 0.8; stroke-linejoin: miter; stroke-linecap: square"/>
   </g>
   <g id="patch_10">
    <path d="M 54.759375 235.174701 
L 267.662826 235.174701 
" style="fill: none; stroke: #000000; stroke-width: 0.8; stroke-linejoin: miter; stroke-linecap: square"/>
   </g>
   <g id="patch_11">
    <path d="M 54.759375 22.27125 
L 267.662826 22.27125 
" style="fill: none; stroke: #000000; stroke-width: 0.8; stroke-linejoin: miter; stroke-linecap: square"/>
   </g>
   <g id="text_22">
    <!-- Weighted Arithmetic Mean (WAM) -->
    <g transform="translate(66.72235 16.27125)scale(0.12 -0.12)">
     <defs>
      <path id="AvenirNextLTPro-Regular-4d" d="M 1306 4531 
L 602 4531 
L 602 0 
L 1062 0 
L 1062 3936 
L 1075 3936 
L 2714 0 
L 2957 0 
L 4595 3936 
L 4608 3936 
L 4608 0 
L 5069 0 
L 5069 4531 
L 4365 4531 
L 2848 781 
L 2842 781 
L 1306 4531 
z
" transform="scale(0.015625)"/>
     </defs>
     <use xlink:href="#AvenirNextLTPro-Regular-57"/>
     <use xlink:href="#AvenirNextLTPro-Regular-65" x="97.199982"/>
     <use xlink:href="#AvenirNextLTPro-Regular-69" x="154.399979"/>
     <use xlink:href="#AvenirNextLTPro-Regular-67" x="179.399963"/>
     <use xlink:href="#AvenirNextLTPro-Regular-68" x="242.59996"/>
     <use xlink:href="#AvenirNextLTPro-Regular-74" x="300.899948"/>
     <use xlink:href="#AvenirNextLTPro-Regular-65" x="332.599945"/>
     <use xlink:href="#AvenirNextLTPro-Regular-64" x="389.799942"/>
     <use xlink:href="#AvenirNextLTPro-Regular-20" x="453.499939"/>
     <use xlink:href="#AvenirNextLTPro-Regular-41" x="478.499924"/>
     <use xlink:href="#AvenirNextLTPro-Regular-72" x="548.499908"/>
     <use xlink:href="#AvenirNextLTPro-Regular-69" x="584.499893"/>
     <use xlink:href="#AvenirNextLTPro-Regular-74" x="609.499878"/>
     <use xlink:href="#AvenirNextLTPro-Regular-68" x="641.199875"/>
     <use xlink:href="#AvenirNextLTPro-Regular-6d" x="699.499863"/>
     <use xlink:href="#AvenirNextLTPro-Regular-65" x="787.79985"/>
     <use xlink:href="#AvenirNextLTPro-Regular-74" x="844.999847"/>
     <use xlink:href="#AvenirNextLTPro-Regular-69" x="876.699844"/>
     <use xlink:href="#AvenirNextLTPro-Regular-63" x="901.699829"/>
     <use xlink:href="#AvenirNextLTPro-Regular-20" x="951.699814"/>
     <use xlink:href="#AvenirNextLTPro-Regular-4d" x="976.699799"/>
     <use xlink:href="#AvenirNextLTPro-Regular-65" x="1065.299789"/>
     <use xlink:href="#AvenirNextLTPro-Regular-61" x="1122.499786"/>
     <use xlink:href="#AvenirNextLTPro-Regular-6e" x="1175.89978"/>
     <use xlink:href="#AvenirNextLTPro-Regular-20" x="1233.999771"/>
     <use xlink:href="#AvenirNextLTPro-Regular-28" x="1258.999756"/>
     <use xlink:href="#AvenirNextLTPro-Regular-57" x="1288.999741"/>
     <use xlink:href="#AvenirNextLTPro-Regular-41" x="1386.199722"/>
     <use xlink:href="#AvenirNextLTPro-Regular-4d" x="1456.199707"/>
     <use xlink:href="#AvenirNextLTPro-Regular-29" x="1544.799698"/>
    </g>
   </g>
   <g id="legend_1">
    <g id="patch_12">
     <path d="M 61.059375 150.642187 
L 120.56625 150.642187 
Q 122.36625 150.642187 122.36625 148.842187 
L 122.36625 28.57125 
Q 122.36625 26.77125 120.56625 26.77125 
L 61.059375 26.77125 
Q 59.259375 26.77125 59.259375 28.57125 
L 59.259375 148.842187 
Q 59.259375 150.642187 61.059375 150.642187 
z
" style="fill: #ffffff; opacity: 0.8; stroke: #cccccc; stroke-linejoin: miter"/>
    </g>
    <g id="line2d_35">
     <path d="M 62.859375 34.024687 
L 71.859375 34.024687 
L 80.859375 34.024687 
" style="fill: none; stroke: #1f77b4; stroke-width: 1.5; stroke-linecap: square"/>
    </g>
    <g id="text_23">
     <!-- w1=0.1 -->
     <g transform="translate(88.059375 37.174687)scale(0.09 -0.09)">
      <defs>
       <path id="AvenirNextLTPro-Regular-77" d="M 166 2995 
L 1114 0 
L 1587 0 
L 2374 2426 
L 2387 2426 
L 3187 0 
L 3661 0 
L 4608 2995 
L 4147 2995 
L 3430 563 
L 3418 563 
L 2598 2995 
L 2176 2995 
L 1370 563 
L 1357 563 
L 634 2995 
L 166 2995 
z
" transform="scale(0.015625)"/>
       <path id="AvenirNextLTPro-Regular-31" d="M 2291 4531 
L 1882 4531 
L 730 3584 
L 1011 3264 
L 1830 3962 
L 1830 0 
L 2291 0 
L 2291 4531 
z
" transform="scale(0.015625)"/>
       <path id="AvenirNextLTPro-Regular-3d" d="M 499 2611 
L 499 2227 
L 3763 2227 
L 3763 2611 
L 499 2611 
z
M 499 1651 
L 499 1267 
L 3763 1267 
L 3763 1651 
L 499 1651 
z
" transform="scale(0.015625)"/>
       <path id="AvenirNextLTPro-Regular-30" d="M 1856 4646 
C 717 4646 371 3437 371 2259 
C 371 1082 717 -115 1856 -115 
C 2982 -115 3341 1082 3341 2259 
C 3341 3437 2982 4646 1856 4646 
z
M 1856 4256 
C 2650 4256 2874 3162 2874 2259 
C 2874 1357 2650 282 1856 282 
C 1050 282 838 1357 838 2259 
C 838 3162 1050 4256 1856 4256 
z
" transform="scale(0.015625)"/>
       <path id="AvenirNextLTPro-Regular-2e" d="M 1178 307 
C 1178 486 1037 653 832 653 
C 627 653 486 486 486 307 
C 486 128 627 -38 832 -38 
C 1037 -38 1178 128 1178 307 
z
" transform="scale(0.015625)"/>
      </defs>
      <use xlink:href="#AvenirNextLTPro-Regular-77"/>
      <use xlink:href="#AvenirNextLTPro-Regular-31" x="74.599991"/>
      <use xlink:href="#AvenirNextLTPro-Regular-3d" x="132.599976"/>
      <use xlink:href="#AvenirNextLTPro-Regular-30" x="199.199966"/>
      <use xlink:href="#AvenirNextLTPro-Regular-2e" x="257.199951"/>
      <use xlink:href="#AvenirNextLTPro-Regular-31" x="283.199936"/>
     </g>
    </g>
    <g id="line2d_36">
     <path d="M 62.859375 47.488125 
L 71.859375 47.488125 
L 80.859375 47.488125 
" style="fill: none; stroke: #ff7f0e; stroke-width: 1.5; stroke-linecap: square"/>
    </g>
    <g id="text_24">
     <!-- w1=0.2 -->
     <g transform="translate(88.059375 50.638125)scale(0.09 -0.09)">
      <use xlink:href="#AvenirNextLTPro-Regular-77"/>
      <use xlink:href="#AvenirNextLTPro-Regular-31" x="74.599991"/>
      <use xlink:href="#AvenirNextLTPro-Regular-3d" x="132.599976"/>
      <use xlink:href="#AvenirNextLTPro-Regular-30" x="199.199966"/>
      <use xlink:href="#AvenirNextLTPro-Regular-2e" x="257.199951"/>
      <use xlink:href="#AvenirNextLTPro-Regular-32" x="283.199936"/>
     </g>
    </g>
    <g id="line2d_37">
     <path d="M 62.859375 60.951562 
L 71.859375 60.951562 
L 80.859375 60.951562 
" style="fill: none; stroke: #2ca02c; stroke-width: 1.5; stroke-linecap: square"/>
    </g>
    <g id="text_25">
     <!-- w1=0.3 -->
     <g transform="translate(88.059375 64.101562)scale(0.09 -0.09)">
      <defs>
       <path id="AvenirNextLTPro-Regular-33" d="M 1370 2176 
L 1568 2176 
C 2163 2176 2746 1939 2746 1254 
C 2746 646 2266 282 1747 282 
C 1286 282 902 544 749 973 
L 314 813 
C 570 218 1088 -115 1747 -115 
C 2534 -115 3206 390 3206 1254 
C 3206 1862 2810 2272 2291 2381 
L 2291 2394 
C 2739 2515 3078 2899 3078 3430 
C 3078 4218 2464 4646 1754 4646 
C 1203 4646 755 4416 474 3930 
L 864 3725 
C 1043 4070 1350 4256 1728 4256 
C 2214 4256 2624 3910 2624 3405 
C 2624 2803 2150 2573 1568 2573 
L 1370 2573 
L 1370 2176 
z
" transform="scale(0.015625)"/>
      </defs>
      <use xlink:href="#AvenirNextLTPro-Regular-77"/>
      <use xlink:href="#AvenirNextLTPro-Regular-31" x="74.599991"/>
      <use xlink:href="#AvenirNextLTPro-Regular-3d" x="132.599976"/>
      <use xlink:href="#AvenirNextLTPro-Regular-30" x="199.199966"/>
      <use xlink:href="#AvenirNextLTPro-Regular-2e" x="257.199951"/>
      <use xlink:href="#AvenirNextLTPro-Regular-33" x="283.199936"/>
     </g>
    </g>
    <g id="line2d_38">
     <path d="M 62.859375 74.415 
L 71.859375 74.415 
L 80.859375 74.415 
" style="fill: none; stroke: #d62728; stroke-width: 1.5; stroke-linecap: square"/>
    </g>
    <g id="text_26">
     <!-- w1=0.4 -->
     <g transform="translate(88.059375 77.565)scale(0.09 -0.09)">
      <defs>
       <path id="AvenirNextLTPro-Regular-34" d="M 2790 4531 
L 2189 4531 
L 269 1542 
L 269 1094 
L 2342 1094 
L 2342 0 
L 2790 0 
L 2790 1094 
L 3456 1094 
L 3456 1498 
L 2790 1498 
L 2790 4531 
z
M 2342 1498 
L 749 1498 
L 2330 4013 
L 2342 4013 
L 2342 1498 
z
" transform="scale(0.015625)"/>
      </defs>
      <use xlink:href="#AvenirNextLTPro-Regular-77"/>
      <use xlink:href="#AvenirNextLTPro-Regular-31" x="74.599991"/>
      <use xlink:href="#AvenirNextLTPro-Regular-3d" x="132.599976"/>
      <use xlink:href="#AvenirNextLTPro-Regular-30" x="199.199966"/>
      <use xlink:href="#AvenirNextLTPro-Regular-2e" x="257.199951"/>
      <use xlink:href="#AvenirNextLTPro-Regular-34" x="283.199936"/>
     </g>
    </g>
    <g id="line2d_39">
     <path d="M 62.859375 87.878437 
L 71.859375 87.878437 
L 80.859375 87.878437 
" style="fill: none; stroke: #9467bd; stroke-width: 1.5; stroke-linecap: square"/>
    </g>
    <g id="text_27">
     <!-- w1=0.5 -->
     <g transform="translate(88.059375 91.028437)scale(0.09 -0.09)">
      <defs>
       <path id="AvenirNextLTPro-Regular-35" d="M 3040 4531 
L 730 4531 
L 685 2195 
C 973 2349 1299 2445 1626 2445 
C 2272 2445 2752 2029 2752 1357 
C 2752 742 2304 282 1690 282 
C 1293 282 934 525 774 896 
L 358 710 
C 608 211 1062 -115 1715 -115 
C 2611 -115 3219 525 3219 1402 
C 3219 2246 2598 2822 1747 2822 
C 1542 2822 1312 2790 1120 2720 
L 1152 4122 
L 3040 4122 
L 3040 4531 
z
" transform="scale(0.015625)"/>
      </defs>
      <use xlink:href="#AvenirNextLTPro-Regular-77"/>
      <use xlink:href="#AvenirNextLTPro-Regular-31" x="74.599991"/>
      <use xlink:href="#AvenirNextLTPro-Regular-3d" x="132.599976"/>
      <use xlink:href="#AvenirNextLTPro-Regular-30" x="199.199966"/>
      <use xlink:href="#AvenirNextLTPro-Regular-2e" x="257.199951"/>
      <use xlink:href="#AvenirNextLTPro-Regular-35" x="283.199936"/>
     </g>
    </g>
    <g id="line2d_40">
     <path d="M 62.859375 101.341875 
L 71.859375 101.341875 
L 80.859375 101.341875 
" style="fill: none; stroke: #8c564b; stroke-width: 1.5; stroke-linecap: square"/>
    </g>
    <g id="text_28">
     <!-- w1=0.6 -->
     <g transform="translate(88.059375 104.491875)scale(0.09 -0.09)">
      <defs>
       <path id="AvenirNextLTPro-Regular-36" d="M 2560 4531 
L 2029 4531 
L 794 2541 
C 570 2176 384 1779 384 1312 
C 384 467 1005 -115 1856 -115 
C 2707 -115 3328 467 3328 1312 
C 3328 2138 2733 2707 1946 2707 
C 1715 2707 1434 2643 1299 2541 
L 1286 2554 
L 2560 4531 
z
M 845 1312 
C 845 1894 1235 2336 1856 2336 
C 2477 2336 2867 1894 2867 1312 
C 2867 723 2451 275 1856 275 
C 1261 275 845 723 845 1312 
z
" transform="scale(0.015625)"/>
      </defs>
      <use xlink:href="#AvenirNextLTPro-Regular-77"/>
      <use xlink:href="#AvenirNextLTPro-Regular-31" x="74.599991"/>
      <use xlink:href="#AvenirNextLTPro-Regular-3d" x="132.599976"/>
      <use xlink:href="#AvenirNextLTPro-Regular-30" x="199.199966"/>
      <use xlink:href="#AvenirNextLTPro-Regular-2e" x="257.199951"/>
      <use xlink:href="#AvenirNextLTPro-Regular-36" x="283.199936"/>
     </g>
    </g>
    <g id="line2d_41">
     <path d="M 62.859375 114.805312 
L 71.859375 114.805312 
L 80.859375 114.805312 
" style="fill: none; stroke: #e377c2; stroke-width: 1.5; stroke-linecap: square"/>
    </g>
    <g id="text_29">
     <!-- w1=0.7 -->
     <g transform="translate(88.059375 117.955312)scale(0.09 -0.09)">
      <defs>
       <path id="AvenirNextLTPro-Regular-37" d="M 3187 4531 
L 499 4531 
L 499 4122 
L 2720 4122 
L 845 0 
L 1363 0 
L 3187 4109 
L 3187 4531 
z
" transform="scale(0.015625)"/>
      </defs>
      <use xlink:href="#AvenirNextLTPro-Regular-77"/>
      <use xlink:href="#AvenirNextLTPro-Regular-31" x="74.599991"/>
      <use xlink:href="#AvenirNextLTPro-Regular-3d" x="132.599976"/>
      <use xlink:href="#AvenirNextLTPro-Regular-30" x="199.199966"/>
      <use xlink:href="#AvenirNextLTPro-Regular-2e" x="257.199951"/>
      <use xlink:href="#AvenirNextLTPro-Regular-37" x="283.199936"/>
     </g>
    </g>
    <g id="line2d_42">
     <path d="M 62.859375 128.26875 
L 71.859375 128.26875 
L 80.859375 128.26875 
" style="fill: none; stroke: #7f7f7f; stroke-width: 1.5; stroke-linecap: square"/>
    </g>
    <g id="text_30">
     <!-- w1=0.8 -->
     <g transform="translate(88.059375 131.41875)scale(0.09 -0.09)">
      <defs>
       <path id="AvenirNextLTPro-Regular-38" d="M 2451 2400 
L 2451 2413 
C 2854 2547 3136 2970 3136 3437 
C 3136 4173 2547 4646 1856 4646 
C 1165 4646 576 4173 576 3437 
C 576 2970 858 2547 1261 2413 
L 1261 2400 
C 768 2253 403 1798 403 1190 
C 403 397 1082 -115 1856 -115 
C 2630 -115 3309 397 3309 1190 
C 3309 1798 2944 2259 2451 2400 
z
M 1024 3411 
C 1024 3898 1382 4256 1856 4256 
C 2330 4256 2688 3898 2688 3411 
C 2688 2938 2317 2598 1856 2598 
C 1395 2598 1024 2938 1024 3411 
z
M 864 1242 
C 864 1786 1261 2189 1856 2189 
C 2451 2189 2848 1786 2848 1242 
C 2848 691 2451 275 1856 275 
C 1261 275 864 691 864 1242 
z
" transform="scale(0.015625)"/>
      </defs>
      <use xlink:href="#AvenirNextLTPro-Regular-77"/>
      <use xlink:href="#AvenirNextLTPro-Regular-31" x="74.599991"/>
      <use xlink:href="#AvenirNextLTPro-Regular-3d" x="132.599976"/>
      <use xlink:href="#AvenirNextLTPro-Regular-30" x="199.199966"/>
      <use xlink:href="#AvenirNextLTPro-Regular-2e" x="257.199951"/>
      <use xlink:href="#AvenirNextLTPro-Regular-38" x="283.199936"/>
     </g>
    </g>
    <g id="line2d_43">
     <path d="M 62.859375 141.732187 
L 71.859375 141.732187 
L 80.859375 141.732187 
" style="fill: none; stroke: #bcbd22; stroke-width: 1.5; stroke-linecap: square"/>
    </g>
    <g id="text_31">
     <!-- w1=0.9 -->
     <g transform="translate(88.059375 144.882187)scale(0.09 -0.09)">
      <defs>
       <path id="AvenirNextLTPro-Regular-39" d="M 1165 0 
L 1696 0 
L 2931 1990 
C 3155 2355 3341 2752 3341 3219 
C 3341 4064 2720 4646 1869 4646 
C 1018 4646 397 4064 397 3219 
C 397 2394 992 1824 1779 1824 
C 2010 1824 2291 1888 2426 1990 
L 2438 1978 
L 1165 0 
z
M 2880 3219 
C 2880 2637 2490 2195 1869 2195 
C 1248 2195 858 2637 858 3219 
C 858 3808 1274 4256 1869 4256 
C 2464 4256 2880 3808 2880 3219 
z
" transform="scale(0.015625)"/>
      </defs>
      <use xlink:href="#AvenirNextLTPro-Regular-77"/>
      <use xlink:href="#AvenirNextLTPro-Regular-31" x="74.599991"/>
      <use xlink:href="#AvenirNextLTPro-Regular-3d" x="132.599976"/>
      <use xlink:href="#AvenirNextLTPro-Regular-30" x="199.199966"/>
      <use xlink:href="#AvenirNextLTPro-Regular-2e" x="257.199951"/>
      <use xlink:href="#AvenirNextLTPro-Regular-39" x="283.199936"/>
     </g>
    </g>
   </g>
  </g>
 </g>
 <defs>
  <clipPath id="p1e3cd02c77">
   <rect x="337.359375" y="22.27125" width="212.903451" height="212.903451"/>
  </clipPath>
  <clipPath id="p6d19b0de1d">
   <rect x="54.759375" y="22.27125" width="212.903451" height="212.903451"/>
  </clipPath>
 </defs>
</svg>
