<?xml version="1.0" encoding="utf-8" standalone="no"?>
<!DOCTYPE svg PUBLIC "-//W3C//DTD SVG 1.1//EN"
  "http://www.w3.org/Graphics/SVG/1.1/DTD/svg11.dtd">
<svg height="232.2275pt" version="1.1" viewBox="0 0 614.0975 232.2275" width="614.0975pt" xmlns="http://www.w3.org/2000/svg" xmlns:xlink="http://www.w3.org/1999/xlink">
 <metadata>
  <rdf:RDF xmlns:cc="http://creativecommons.org/ns#" xmlns:dc="http://purl.org/dc/elements/1.1/" xmlns:rdf="http://www.w3.org/1999/02/22-rdf-syntax-ns#">
   <cc:Work>
    <dc:type rdf:resource="http://purl.org/dc/dcmitype/StillImage"/>
    <dc:date>2022-03-25T10:00:53.292183</dc:date>
    <dc:format>image/svg+xml</dc:format>
    <dc:creator>
     <cc:Agent>
      <dc:title>Matplotlib v3.4.3, https://matplotlib.org/</dc:title>
     </cc:Agent>
    </dc:creator>
   </cc:Work>
  </rdf:RDF>
 </metadata>
 <defs>
  <style type="text/css">*{stroke-linecap:butt;stroke-linejoin:round;}</style>
 </defs>
 <g id="figure_1">
  <g id="patch_1">
   <path d="M 0 232.2275 
L 614.0975 232.2275 
L 614.0975 0 
L 0 0 
z
" style="fill:#ffffff;"/>
  </g>
  <g id="axes_1">
   <g id="patch_2">
    <path d="M 424.544559 190.8 
L 606.8975 190.8 
L 606.8975 24.48 
L 424.544559 24.48 
z
" style="fill:#ffffff;"/>
   </g>
   <g id="line2d_1">
    <path clip-path="url(#p34ed02191e)" d="M 424.544559 71.332344 
L 606.8975 71.332344 
" style="fill:none;stroke:#8b0000;stroke-dasharray:3.7,1.6;stroke-dashoffset:0;"/>
   </g>
   <g id="line2d_2">
    <path clip-path="url(#p34ed02191e)" d="M 424.544559 83.457072 
L 606.8975 83.457072 
" style="fill:none;stroke:#cd5c5c;stroke-dasharray:6.4,1.6,1,1.6;stroke-dashoffset:0;stroke-opacity:0.5;"/>
   </g>
   <g id="matplotlib.axis_1">
    <g id="xtick_1">
     <g id="line2d_3">
      <defs>
       <path d="M 0 0 
L 0 3.5 
" id="m21ae969409" style="stroke:#000000;stroke-width:0.8;"/>
      </defs>
      <g>
       <use style="stroke:#000000;stroke-width:0.8;" x="461.015147" xlink:href="#m21ae969409" y="190.8"/>
      </g>
     </g>
     <g id="text_1">
      <!-- 1.0 -->
      <g transform="translate(451.473272 206.918125)scale(0.12 -0.12)">
       <defs>
        <path d="M 794 531 
L 1825 531 
L 1825 4091 
L 703 3866 
L 703 4441 
L 1819 4666 
L 2450 4666 
L 2450 531 
L 3481 531 
L 3481 0 
L 794 0 
L 794 531 
z
" id="DejaVuSans-31" transform="scale(0.015625)"/>
        <path d="M 684 794 
L 1344 794 
L 1344 0 
L 684 0 
L 684 794 
z
" id="DejaVuSans-2e" transform="scale(0.015625)"/>
        <path d="M 2034 4250 
Q 1547 4250 1301 3770 
Q 1056 3291 1056 2328 
Q 1056 1369 1301 889 
Q 1547 409 2034 409 
Q 2525 409 2770 889 
Q 3016 1369 3016 2328 
Q 3016 3291 2770 3770 
Q 2525 4250 2034 4250 
z
M 2034 4750 
Q 2819 4750 3233 4129 
Q 3647 3509 3647 2328 
Q 3647 1150 3233 529 
Q 2819 -91 2034 -91 
Q 1250 -91 836 529 
Q 422 1150 422 2328 
Q 422 3509 836 4129 
Q 1250 4750 2034 4750 
z
" id="DejaVuSans-30" transform="scale(0.015625)"/>
       </defs>
       <use xlink:href="#DejaVuSans-31"/>
       <use x="63.623047" xlink:href="#DejaVuSans-2e"/>
       <use x="95.410156" xlink:href="#DejaVuSans-30"/>
      </g>
     </g>
    </g>
    <g id="xtick_2">
     <g id="line2d_4">
      <g>
       <use style="stroke:#000000;stroke-width:0.8;" x="497.485735" xlink:href="#m21ae969409" y="190.8"/>
      </g>
     </g>
     <g id="text_2">
      <!-- 1.5 -->
      <g transform="translate(487.94386 206.918125)scale(0.12 -0.12)">
       <defs>
        <path d="M 691 4666 
L 3169 4666 
L 3169 4134 
L 1269 4134 
L 1269 2991 
Q 1406 3038 1543 3061 
Q 1681 3084 1819 3084 
Q 2600 3084 3056 2656 
Q 3513 2228 3513 1497 
Q 3513 744 3044 326 
Q 2575 -91 1722 -91 
Q 1428 -91 1123 -41 
Q 819 9 494 109 
L 494 744 
Q 775 591 1075 516 
Q 1375 441 1709 441 
Q 2250 441 2565 725 
Q 2881 1009 2881 1497 
Q 2881 1984 2565 2268 
Q 2250 2553 1709 2553 
Q 1456 2553 1204 2497 
Q 953 2441 691 2322 
L 691 4666 
z
" id="DejaVuSans-35" transform="scale(0.015625)"/>
       </defs>
       <use xlink:href="#DejaVuSans-31"/>
       <use x="63.623047" xlink:href="#DejaVuSans-2e"/>
       <use x="95.410156" xlink:href="#DejaVuSans-35"/>
      </g>
     </g>
    </g>
    <g id="xtick_3">
     <g id="line2d_5">
      <g>
       <use style="stroke:#000000;stroke-width:0.8;" x="526.662206" xlink:href="#m21ae969409" y="190.8"/>
      </g>
     </g>
     <g id="text_3">
      <!-- 1.9 -->
      <g transform="translate(517.120331 206.918125)scale(0.12 -0.12)">
       <defs>
        <path d="M 703 97 
L 703 672 
Q 941 559 1184 500 
Q 1428 441 1663 441 
Q 2288 441 2617 861 
Q 2947 1281 2994 2138 
Q 2813 1869 2534 1725 
Q 2256 1581 1919 1581 
Q 1219 1581 811 2004 
Q 403 2428 403 3163 
Q 403 3881 828 4315 
Q 1253 4750 1959 4750 
Q 2769 4750 3195 4129 
Q 3622 3509 3622 2328 
Q 3622 1225 3098 567 
Q 2575 -91 1691 -91 
Q 1453 -91 1209 -44 
Q 966 3 703 97 
z
M 1959 2075 
Q 2384 2075 2632 2365 
Q 2881 2656 2881 3163 
Q 2881 3666 2632 3958 
Q 2384 4250 1959 4250 
Q 1534 4250 1286 3958 
Q 1038 3666 1038 3163 
Q 1038 2656 1286 2365 
Q 1534 2075 1959 2075 
z
" id="DejaVuSans-39" transform="scale(0.015625)"/>
       </defs>
       <use xlink:href="#DejaVuSans-31"/>
       <use x="63.623047" xlink:href="#DejaVuSans-2e"/>
       <use x="95.410156" xlink:href="#DejaVuSans-39"/>
      </g>
     </g>
    </g>
    <g id="xtick_4">
     <g id="line2d_6">
      <g>
       <use style="stroke:#000000;stroke-width:0.8;" x="570.426912" xlink:href="#m21ae969409" y="190.8"/>
      </g>
     </g>
     <g id="text_4">
      <!-- 2.5 -->
      <g transform="translate(560.885037 206.918125)scale(0.12 -0.12)">
       <defs>
        <path d="M 1228 531 
L 3431 531 
L 3431 0 
L 469 0 
L 469 531 
Q 828 903 1448 1529 
Q 2069 2156 2228 2338 
Q 2531 2678 2651 2914 
Q 2772 3150 2772 3378 
Q 2772 3750 2511 3984 
Q 2250 4219 1831 4219 
Q 1534 4219 1204 4116 
Q 875 4013 500 3803 
L 500 4441 
Q 881 4594 1212 4672 
Q 1544 4750 1819 4750 
Q 2544 4750 2975 4387 
Q 3406 4025 3406 3419 
Q 3406 3131 3298 2873 
Q 3191 2616 2906 2266 
Q 2828 2175 2409 1742 
Q 1991 1309 1228 531 
z
" id="DejaVuSans-32" transform="scale(0.015625)"/>
       </defs>
       <use xlink:href="#DejaVuSans-32"/>
       <use x="63.623047" xlink:href="#DejaVuSans-2e"/>
       <use x="95.410156" xlink:href="#DejaVuSans-35"/>
      </g>
     </g>
    </g>
    <g id="text_5">
     <!-- Wind speed (m/s) -->
     <g transform="translate(463.030717 222.531875)scale(0.12 -0.12)">
      <defs>
       <path d="M 213 4666 
L 850 4666 
L 1831 722 
L 2809 4666 
L 3519 4666 
L 4500 722 
L 5478 4666 
L 6119 4666 
L 4947 0 
L 4153 0 
L 3169 4050 
L 2175 0 
L 1381 0 
L 213 4666 
z
" id="DejaVuSans-57" transform="scale(0.015625)"/>
       <path d="M 603 3500 
L 1178 3500 
L 1178 0 
L 603 0 
L 603 3500 
z
M 603 4863 
L 1178 4863 
L 1178 4134 
L 603 4134 
L 603 4863 
z
" id="DejaVuSans-69" transform="scale(0.015625)"/>
       <path d="M 3513 2113 
L 3513 0 
L 2938 0 
L 2938 2094 
Q 2938 2591 2744 2837 
Q 2550 3084 2163 3084 
Q 1697 3084 1428 2787 
Q 1159 2491 1159 1978 
L 1159 0 
L 581 0 
L 581 3500 
L 1159 3500 
L 1159 2956 
Q 1366 3272 1645 3428 
Q 1925 3584 2291 3584 
Q 2894 3584 3203 3211 
Q 3513 2838 3513 2113 
z
" id="DejaVuSans-6e" transform="scale(0.015625)"/>
       <path d="M 2906 2969 
L 2906 4863 
L 3481 4863 
L 3481 0 
L 2906 0 
L 2906 525 
Q 2725 213 2448 61 
Q 2172 -91 1784 -91 
Q 1150 -91 751 415 
Q 353 922 353 1747 
Q 353 2572 751 3078 
Q 1150 3584 1784 3584 
Q 2172 3584 2448 3432 
Q 2725 3281 2906 2969 
z
M 947 1747 
Q 947 1113 1208 752 
Q 1469 391 1925 391 
Q 2381 391 2643 752 
Q 2906 1113 2906 1747 
Q 2906 2381 2643 2742 
Q 2381 3103 1925 3103 
Q 1469 3103 1208 2742 
Q 947 2381 947 1747 
z
" id="DejaVuSans-64" transform="scale(0.015625)"/>
       <path id="DejaVuSans-20" transform="scale(0.015625)"/>
       <path d="M 2834 3397 
L 2834 2853 
Q 2591 2978 2328 3040 
Q 2066 3103 1784 3103 
Q 1356 3103 1142 2972 
Q 928 2841 928 2578 
Q 928 2378 1081 2264 
Q 1234 2150 1697 2047 
L 1894 2003 
Q 2506 1872 2764 1633 
Q 3022 1394 3022 966 
Q 3022 478 2636 193 
Q 2250 -91 1575 -91 
Q 1294 -91 989 -36 
Q 684 19 347 128 
L 347 722 
Q 666 556 975 473 
Q 1284 391 1588 391 
Q 1994 391 2212 530 
Q 2431 669 2431 922 
Q 2431 1156 2273 1281 
Q 2116 1406 1581 1522 
L 1381 1569 
Q 847 1681 609 1914 
Q 372 2147 372 2553 
Q 372 3047 722 3315 
Q 1072 3584 1716 3584 
Q 2034 3584 2315 3537 
Q 2597 3491 2834 3397 
z
" id="DejaVuSans-73" transform="scale(0.015625)"/>
       <path d="M 1159 525 
L 1159 -1331 
L 581 -1331 
L 581 3500 
L 1159 3500 
L 1159 2969 
Q 1341 3281 1617 3432 
Q 1894 3584 2278 3584 
Q 2916 3584 3314 3078 
Q 3713 2572 3713 1747 
Q 3713 922 3314 415 
Q 2916 -91 2278 -91 
Q 1894 -91 1617 61 
Q 1341 213 1159 525 
z
M 3116 1747 
Q 3116 2381 2855 2742 
Q 2594 3103 2138 3103 
Q 1681 3103 1420 2742 
Q 1159 2381 1159 1747 
Q 1159 1113 1420 752 
Q 1681 391 2138 391 
Q 2594 391 2855 752 
Q 3116 1113 3116 1747 
z
" id="DejaVuSans-70" transform="scale(0.015625)"/>
       <path d="M 3597 1894 
L 3597 1613 
L 953 1613 
Q 991 1019 1311 708 
Q 1631 397 2203 397 
Q 2534 397 2845 478 
Q 3156 559 3463 722 
L 3463 178 
Q 3153 47 2828 -22 
Q 2503 -91 2169 -91 
Q 1331 -91 842 396 
Q 353 884 353 1716 
Q 353 2575 817 3079 
Q 1281 3584 2069 3584 
Q 2775 3584 3186 3129 
Q 3597 2675 3597 1894 
z
M 3022 2063 
Q 3016 2534 2758 2815 
Q 2500 3097 2075 3097 
Q 1594 3097 1305 2825 
Q 1016 2553 972 2059 
L 3022 2063 
z
" id="DejaVuSans-65" transform="scale(0.015625)"/>
       <path d="M 1984 4856 
Q 1566 4138 1362 3434 
Q 1159 2731 1159 2009 
Q 1159 1288 1364 580 
Q 1569 -128 1984 -844 
L 1484 -844 
Q 1016 -109 783 600 
Q 550 1309 550 2009 
Q 550 2706 781 3412 
Q 1013 4119 1484 4856 
L 1984 4856 
z
" id="DejaVuSans-28" transform="scale(0.015625)"/>
       <path d="M 3328 2828 
Q 3544 3216 3844 3400 
Q 4144 3584 4550 3584 
Q 5097 3584 5394 3201 
Q 5691 2819 5691 2113 
L 5691 0 
L 5113 0 
L 5113 2094 
Q 5113 2597 4934 2840 
Q 4756 3084 4391 3084 
Q 3944 3084 3684 2787 
Q 3425 2491 3425 1978 
L 3425 0 
L 2847 0 
L 2847 2094 
Q 2847 2600 2669 2842 
Q 2491 3084 2119 3084 
Q 1678 3084 1418 2786 
Q 1159 2488 1159 1978 
L 1159 0 
L 581 0 
L 581 3500 
L 1159 3500 
L 1159 2956 
Q 1356 3278 1631 3431 
Q 1906 3584 2284 3584 
Q 2666 3584 2933 3390 
Q 3200 3197 3328 2828 
z
" id="DejaVuSans-6d" transform="scale(0.015625)"/>
       <path d="M 1625 4666 
L 2156 4666 
L 531 -594 
L 0 -594 
L 1625 4666 
z
" id="DejaVuSans-2f" transform="scale(0.015625)"/>
       <path d="M 513 4856 
L 1013 4856 
Q 1481 4119 1714 3412 
Q 1947 2706 1947 2009 
Q 1947 1309 1714 600 
Q 1481 -109 1013 -844 
L 513 -844 
Q 928 -128 1133 580 
Q 1338 1288 1338 2009 
Q 1338 2731 1133 3434 
Q 928 4138 513 4856 
z
" id="DejaVuSans-29" transform="scale(0.015625)"/>
      </defs>
      <use xlink:href="#DejaVuSans-57"/>
      <use x="96.626953" xlink:href="#DejaVuSans-69"/>
      <use x="124.410156" xlink:href="#DejaVuSans-6e"/>
      <use x="187.789062" xlink:href="#DejaVuSans-64"/>
      <use x="251.265625" xlink:href="#DejaVuSans-20"/>
      <use x="283.052734" xlink:href="#DejaVuSans-73"/>
      <use x="335.152344" xlink:href="#DejaVuSans-70"/>
      <use x="398.628906" xlink:href="#DejaVuSans-65"/>
      <use x="460.152344" xlink:href="#DejaVuSans-65"/>
      <use x="521.675781" xlink:href="#DejaVuSans-64"/>
      <use x="585.152344" xlink:href="#DejaVuSans-20"/>
      <use x="616.939453" xlink:href="#DejaVuSans-28"/>
      <use x="655.953125" xlink:href="#DejaVuSans-6d"/>
      <use x="753.365234" xlink:href="#DejaVuSans-2f"/>
      <use x="787.056641" xlink:href="#DejaVuSans-73"/>
      <use x="839.15625" xlink:href="#DejaVuSans-29"/>
     </g>
    </g>
   </g>
   <g id="matplotlib.axis_2"/>
   <g id="LineCollection_1">
    <path clip-path="url(#p34ed02191e)" d="M 461.015147 112.654072 
L 461.015147 96.804728 
" style="fill:none;stroke:#1f77b4;stroke-width:1.5;"/>
    <path clip-path="url(#p34ed02191e)" d="M 497.485735 95.21015 
L 497.485735 81.167602 
" style="fill:none;stroke:#1f77b4;stroke-width:1.5;"/>
    <path clip-path="url(#p34ed02191e)" d="M 526.662206 92.378046 
L 526.662206 77.280378 
" style="fill:none;stroke:#1f77b4;stroke-width:1.5;"/>
    <path clip-path="url(#p34ed02191e)" d="M 570.426912 84.65025 
L 570.426912 69.59031 
" style="fill:none;stroke:#1f77b4;stroke-width:1.5;"/>
   </g>
   <g id="line2d_7">
    <defs>
     <path d="M 0 1.5 
C 0.397805 1.5 0.77937 1.341951 1.06066 1.06066 
C 1.341951 0.77937 1.5 0.397805 1.5 0 
C 1.5 -0.397805 1.341951 -0.77937 1.06066 -1.06066 
C 0.77937 -1.341951 0.397805 -1.5 0 -1.5 
C -0.397805 -1.5 -0.77937 -1.341951 -1.06066 -1.06066 
C -1.341951 -0.77937 -1.5 -0.397805 -1.5 0 
C -1.5 0.397805 -1.341951 0.77937 -1.06066 1.06066 
C -0.77937 1.341951 -0.397805 1.5 0 1.5 
z
" id="m0b24471be9" style="stroke:#1f77b4;"/>
    </defs>
    <g clip-path="url(#p34ed02191e)">
     <use style="fill:#1f77b4;stroke:#1f77b4;" x="461.015147" xlink:href="#m0b24471be9" y="104.7294"/>
     <use style="fill:#1f77b4;stroke:#1f77b4;" x="497.485735" xlink:href="#m0b24471be9" y="88.188876"/>
     <use style="fill:#1f77b4;stroke:#1f77b4;" x="526.662206" xlink:href="#m0b24471be9" y="84.829212"/>
     <use style="fill:#1f77b4;stroke:#1f77b4;" x="570.426912" xlink:href="#m0b24471be9" y="77.12028"/>
    </g>
   </g>
   <g id="patch_3">
    <path d="M 424.544559 190.8 
L 424.544559 24.48 
" style="fill:none;stroke:#000000;stroke-linecap:square;stroke-linejoin:miter;stroke-width:0.8;"/>
   </g>
   <g id="patch_4">
    <path d="M 606.8975 190.8 
L 606.8975 24.48 
" style="fill:none;stroke:#000000;stroke-linecap:square;stroke-linejoin:miter;stroke-width:0.8;"/>
   </g>
   <g id="patch_5">
    <path d="M 424.544559 190.8 
L 606.8975 190.8 
" style="fill:none;stroke:#000000;stroke-linecap:square;stroke-linejoin:miter;stroke-width:0.8;"/>
   </g>
   <g id="patch_6">
    <path d="M 424.544559 24.48 
L 606.8975 24.48 
" style="fill:none;stroke:#000000;stroke-linecap:square;stroke-linejoin:miter;stroke-width:0.8;"/>
   </g>
   <g id="line2d_8">
    <path clip-path="url(#p34ed02191e)" d="M 461.015147 101.420493 
L 462.120316 101.155006 
L 463.225486 100.889519 
L 464.330655 100.624032 
L 465.435824 100.358545 
L 466.540994 100.093058 
L 467.646163 99.827571 
L 468.751332 99.562084 
L 469.856502 99.296597 
L 470.961671 99.03111 
L 472.06684 98.765623 
L 473.17201 98.500136 
L 474.277179 98.234649 
L 475.382348 97.969162 
L 476.487518 97.703675 
L 477.592687 97.438188 
L 478.697857 97.172701 
L 479.803026 96.907214 
L 480.908195 96.641728 
L 482.013365 96.376241 
L 483.118534 96.110754 
L 484.223703 95.845267 
L 485.328873 95.57978 
L 486.434042 95.314293 
L 487.539211 95.048806 
L 488.644381 94.783319 
L 489.74955 94.517832 
L 490.854719 94.252345 
L 491.959889 93.986858 
L 493.065058 93.721371 
L 494.170227 93.455884 
L 495.275397 93.190397 
L 496.380566 92.92491 
L 497.485735 92.659423 
L 498.590905 92.393936 
L 499.696074 92.128449 
L 500.801243 91.862962 
L 501.906413 91.597475 
L 503.011582 91.331988 
L 504.116751 91.066502 
L 505.221921 90.801015 
L 506.32709 90.535528 
L 507.432259 90.270041 
L 508.537429 90.004554 
L 509.642598 89.739067 
L 510.747767 89.47358 
L 511.852937 89.208093 
L 512.958106 88.942606 
L 514.063275 88.677119 
L 515.168445 88.411632 
L 516.273614 88.146145 
L 517.378783 87.880658 
L 518.483953 87.615171 
L 519.589122 87.349684 
L 520.694291 87.084197 
L 521.799461 86.81871 
L 522.90463 86.553223 
L 524.009799 86.287736 
L 525.114969 86.022249 
L 526.220138 85.756762 
L 527.325307 85.491276 
L 528.430477 85.225789 
L 529.535646 84.960302 
L 530.640816 84.694815 
L 531.745985 84.429328 
L 532.851154 84.163841 
L 533.956324 83.898354 
L 535.061493 83.632867 
L 536.166662 83.36738 
L 537.271832 83.101893 
L 538.377001 82.836406 
L 539.48217 82.570919 
L 540.58734 82.305432 
L 541.692509 82.039945 
L 542.797678 81.774458 
L 543.902848 81.508971 
L 545.008017 81.243484 
L 546.113186 80.977997 
L 547.218356 80.71251 
L 548.323525 80.447023 
L 549.428694 80.181536 
L 550.533864 79.91605 
L 551.639033 79.650563 
L 552.744202 79.385076 
L 553.849372 79.119589 
L 554.954541 78.854102 
L 556.05971 78.588615 
L 557.16488 78.323128 
L 558.270049 78.057641 
L 559.375218 77.792154 
L 560.480388 77.526667 
L 561.585557 77.26118 
L 562.690726 76.995693 
L 563.795896 76.730206 
L 564.901065 76.464719 
L 566.006234 76.199232 
L 567.111404 75.933745 
L 568.216573 75.668258 
L 569.321742 75.402771 
L 570.426912 75.137284 
" style="fill:none;stroke:#1f77b4;stroke-linecap:square;stroke-opacity:0.3;stroke-width:1.5;"/>
   </g>
   <g id="legend_1">
    <g id="patch_7">
     <path d="M 435.82375 54.365 
L 601.2975 54.365 
Q 602.8975 54.365 602.8975 52.765 
L 602.8975 30.08 
Q 602.8975 28.48 601.2975 28.48 
L 435.82375 28.48 
Q 434.22375 28.48 434.22375 30.08 
L 434.22375 52.765 
Q 434.22375 54.365 435.82375 54.365 
z
" style="fill:#ffffff;opacity:0.8;stroke:#cccccc;stroke-linejoin:miter;"/>
    </g>
    <g id="line2d_9">
     <path d="M 437.42375 34.95875 
L 453.42375 34.95875 
" style="fill:none;stroke:#1f77b4;stroke-linecap:square;stroke-opacity:0.3;stroke-width:1.5;"/>
    </g>
    <g id="line2d_10"/>
    <g id="text_6">
     <!-- Linear precision estimator -->
     <g transform="translate(459.82375 37.75875)scale(0.08 -0.08)">
      <defs>
       <path d="M 628 4666 
L 1259 4666 
L 1259 531 
L 3531 531 
L 3531 0 
L 628 0 
L 628 4666 
z
" id="DejaVuSans-4c" transform="scale(0.015625)"/>
       <path d="M 2194 1759 
Q 1497 1759 1228 1600 
Q 959 1441 959 1056 
Q 959 750 1161 570 
Q 1363 391 1709 391 
Q 2188 391 2477 730 
Q 2766 1069 2766 1631 
L 2766 1759 
L 2194 1759 
z
M 3341 1997 
L 3341 0 
L 2766 0 
L 2766 531 
Q 2569 213 2275 61 
Q 1981 -91 1556 -91 
Q 1019 -91 701 211 
Q 384 513 384 1019 
Q 384 1609 779 1909 
Q 1175 2209 1959 2209 
L 2766 2209 
L 2766 2266 
Q 2766 2663 2505 2880 
Q 2244 3097 1772 3097 
Q 1472 3097 1187 3025 
Q 903 2953 641 2809 
L 641 3341 
Q 956 3463 1253 3523 
Q 1550 3584 1831 3584 
Q 2591 3584 2966 3190 
Q 3341 2797 3341 1997 
z
" id="DejaVuSans-61" transform="scale(0.015625)"/>
       <path d="M 2631 2963 
Q 2534 3019 2420 3045 
Q 2306 3072 2169 3072 
Q 1681 3072 1420 2755 
Q 1159 2438 1159 1844 
L 1159 0 
L 581 0 
L 581 3500 
L 1159 3500 
L 1159 2956 
Q 1341 3275 1631 3429 
Q 1922 3584 2338 3584 
Q 2397 3584 2469 3576 
Q 2541 3569 2628 3553 
L 2631 2963 
z
" id="DejaVuSans-72" transform="scale(0.015625)"/>
       <path d="M 3122 3366 
L 3122 2828 
Q 2878 2963 2633 3030 
Q 2388 3097 2138 3097 
Q 1578 3097 1268 2742 
Q 959 2388 959 1747 
Q 959 1106 1268 751 
Q 1578 397 2138 397 
Q 2388 397 2633 464 
Q 2878 531 3122 666 
L 3122 134 
Q 2881 22 2623 -34 
Q 2366 -91 2075 -91 
Q 1284 -91 818 406 
Q 353 903 353 1747 
Q 353 2603 823 3093 
Q 1294 3584 2113 3584 
Q 2378 3584 2631 3529 
Q 2884 3475 3122 3366 
z
" id="DejaVuSans-63" transform="scale(0.015625)"/>
       <path d="M 1959 3097 
Q 1497 3097 1228 2736 
Q 959 2375 959 1747 
Q 959 1119 1226 758 
Q 1494 397 1959 397 
Q 2419 397 2687 759 
Q 2956 1122 2956 1747 
Q 2956 2369 2687 2733 
Q 2419 3097 1959 3097 
z
M 1959 3584 
Q 2709 3584 3137 3096 
Q 3566 2609 3566 1747 
Q 3566 888 3137 398 
Q 2709 -91 1959 -91 
Q 1206 -91 779 398 
Q 353 888 353 1747 
Q 353 2609 779 3096 
Q 1206 3584 1959 3584 
z
" id="DejaVuSans-6f" transform="scale(0.015625)"/>
       <path d="M 1172 4494 
L 1172 3500 
L 2356 3500 
L 2356 3053 
L 1172 3053 
L 1172 1153 
Q 1172 725 1289 603 
Q 1406 481 1766 481 
L 2356 481 
L 2356 0 
L 1766 0 
Q 1100 0 847 248 
Q 594 497 594 1153 
L 594 3053 
L 172 3053 
L 172 3500 
L 594 3500 
L 594 4494 
L 1172 4494 
z
" id="DejaVuSans-74" transform="scale(0.015625)"/>
      </defs>
      <use xlink:href="#DejaVuSans-4c"/>
      <use x="55.712891" xlink:href="#DejaVuSans-69"/>
      <use x="83.496094" xlink:href="#DejaVuSans-6e"/>
      <use x="146.875" xlink:href="#DejaVuSans-65"/>
      <use x="208.398438" xlink:href="#DejaVuSans-61"/>
      <use x="269.677734" xlink:href="#DejaVuSans-72"/>
      <use x="310.791016" xlink:href="#DejaVuSans-20"/>
      <use x="342.578125" xlink:href="#DejaVuSans-70"/>
      <use x="406.054688" xlink:href="#DejaVuSans-72"/>
      <use x="444.917969" xlink:href="#DejaVuSans-65"/>
      <use x="506.441406" xlink:href="#DejaVuSans-63"/>
      <use x="561.421875" xlink:href="#DejaVuSans-69"/>
      <use x="589.205078" xlink:href="#DejaVuSans-73"/>
      <use x="641.304688" xlink:href="#DejaVuSans-69"/>
      <use x="669.087891" xlink:href="#DejaVuSans-6f"/>
      <use x="730.269531" xlink:href="#DejaVuSans-6e"/>
      <use x="793.648438" xlink:href="#DejaVuSans-20"/>
      <use x="825.435547" xlink:href="#DejaVuSans-65"/>
      <use x="886.958984" xlink:href="#DejaVuSans-73"/>
      <use x="939.058594" xlink:href="#DejaVuSans-74"/>
      <use x="978.267578" xlink:href="#DejaVuSans-69"/>
      <use x="1006.050781" xlink:href="#DejaVuSans-6d"/>
      <use x="1103.462891" xlink:href="#DejaVuSans-61"/>
      <use x="1164.742188" xlink:href="#DejaVuSans-74"/>
      <use x="1203.951172" xlink:href="#DejaVuSans-6f"/>
      <use x="1265.132812" xlink:href="#DejaVuSans-72"/>
     </g>
    </g>
    <g id="LineCollection_2">
     <path d="M 445.42375 50.70125 
L 445.42375 42.70125 
" style="fill:none;stroke:#1f77b4;stroke-width:1.5;"/>
    </g>
    <g id="line2d_11"/>
    <g id="line2d_12">
     <g>
      <use style="fill:#1f77b4;stroke:#1f77b4;" x="445.42375" xlink:href="#m0b24471be9" y="46.70125"/>
     </g>
    </g>
    <g id="text_7">
     <!-- Mean precision with standard error -->
     <g transform="translate(459.82375 49.50125)scale(0.08 -0.08)">
      <defs>
       <path d="M 628 4666 
L 1569 4666 
L 2759 1491 
L 3956 4666 
L 4897 4666 
L 4897 0 
L 4281 0 
L 4281 4097 
L 3078 897 
L 2444 897 
L 1241 4097 
L 1241 0 
L 628 0 
L 628 4666 
z
" id="DejaVuSans-4d" transform="scale(0.015625)"/>
       <path d="M 269 3500 
L 844 3500 
L 1563 769 
L 2278 3500 
L 2956 3500 
L 3675 769 
L 4391 3500 
L 4966 3500 
L 4050 0 
L 3372 0 
L 2619 2869 
L 1863 0 
L 1184 0 
L 269 3500 
z
" id="DejaVuSans-77" transform="scale(0.015625)"/>
       <path d="M 3513 2113 
L 3513 0 
L 2938 0 
L 2938 2094 
Q 2938 2591 2744 2837 
Q 2550 3084 2163 3084 
Q 1697 3084 1428 2787 
Q 1159 2491 1159 1978 
L 1159 0 
L 581 0 
L 581 4863 
L 1159 4863 
L 1159 2956 
Q 1366 3272 1645 3428 
Q 1925 3584 2291 3584 
Q 2894 3584 3203 3211 
Q 3513 2838 3513 2113 
z
" id="DejaVuSans-68" transform="scale(0.015625)"/>
      </defs>
      <use xlink:href="#DejaVuSans-4d"/>
      <use x="86.279297" xlink:href="#DejaVuSans-65"/>
      <use x="147.802734" xlink:href="#DejaVuSans-61"/>
      <use x="209.082031" xlink:href="#DejaVuSans-6e"/>
      <use x="272.460938" xlink:href="#DejaVuSans-20"/>
      <use x="304.248047" xlink:href="#DejaVuSans-70"/>
      <use x="367.724609" xlink:href="#DejaVuSans-72"/>
      <use x="406.587891" xlink:href="#DejaVuSans-65"/>
      <use x="468.111328" xlink:href="#DejaVuSans-63"/>
      <use x="523.091797" xlink:href="#DejaVuSans-69"/>
      <use x="550.875" xlink:href="#DejaVuSans-73"/>
      <use x="602.974609" xlink:href="#DejaVuSans-69"/>
      <use x="630.757812" xlink:href="#DejaVuSans-6f"/>
      <use x="691.939453" xlink:href="#DejaVuSans-6e"/>
      <use x="755.318359" xlink:href="#DejaVuSans-20"/>
      <use x="787.105469" xlink:href="#DejaVuSans-77"/>
      <use x="868.892578" xlink:href="#DejaVuSans-69"/>
      <use x="896.675781" xlink:href="#DejaVuSans-74"/>
      <use x="935.884766" xlink:href="#DejaVuSans-68"/>
      <use x="999.263672" xlink:href="#DejaVuSans-20"/>
      <use x="1031.050781" xlink:href="#DejaVuSans-73"/>
      <use x="1083.150391" xlink:href="#DejaVuSans-74"/>
      <use x="1122.359375" xlink:href="#DejaVuSans-61"/>
      <use x="1183.638672" xlink:href="#DejaVuSans-6e"/>
      <use x="1247.017578" xlink:href="#DejaVuSans-64"/>
      <use x="1310.494141" xlink:href="#DejaVuSans-61"/>
      <use x="1371.773438" xlink:href="#DejaVuSans-72"/>
      <use x="1411.136719" xlink:href="#DejaVuSans-64"/>
      <use x="1474.613281" xlink:href="#DejaVuSans-20"/>
      <use x="1506.400391" xlink:href="#DejaVuSans-65"/>
      <use x="1567.923828" xlink:href="#DejaVuSans-72"/>
      <use x="1607.287109" xlink:href="#DejaVuSans-72"/>
      <use x="1646.150391" xlink:href="#DejaVuSans-6f"/>
      <use x="1707.332031" xlink:href="#DejaVuSans-72"/>
     </g>
    </g>
   </g>
  </g>
  <g id="axes_2">
   <g id="patch_8">
    <path d="M 48.8975 190.8 
L 419.073971 190.8 
L 419.073971 24.48 
L 48.8975 24.48 
z
" style="fill:#ffffff;"/>
   </g>
   <g id="line2d_13">
    <path clip-path="url(#pfc292a5b57)" d="M 290.316937 71.332344 
L 419.073971 71.332344 
" style="fill:none;stroke:#8b0000;stroke-dasharray:3.7,1.6;stroke-dashoffset:0;"/>
   </g>
   <g id="line2d_14">
    <path clip-path="url(#pfc292a5b57)" d="M 350.671797 83.457072 
L 419.073971 83.457072 
" style="fill:none;stroke:#cd5c5c;stroke-dasharray:6.4,1.6,1,1.6;stroke-dashoffset:0;stroke-opacity:0.5;"/>
   </g>
   <g id="matplotlib.axis_3">
    <g id="xtick_5">
     <g id="line2d_15">
      <g>
       <use style="stroke:#000000;stroke-width:0.8;" x="53.152402" xlink:href="#m21ae969409" y="190.8"/>
      </g>
     </g>
     <g id="text_8">
      <!-- 5 -->
      <g transform="translate(49.334902 206.918125)scale(0.12 -0.12)">
       <use xlink:href="#DejaVuSans-35"/>
      </g>
     </g>
    </g>
    <g id="xtick_6">
     <g id="line2d_16">
      <g>
       <use style="stroke:#000000;stroke-width:0.8;" x="116.975931" xlink:href="#m21ae969409" y="190.8"/>
      </g>
     </g>
     <g id="text_9">
      <!-- 20 -->
      <g transform="translate(109.340931 206.918125)scale(0.12 -0.12)">
       <use xlink:href="#DejaVuSans-32"/>
       <use x="63.623047" xlink:href="#DejaVuSans-30"/>
      </g>
     </g>
    </g>
    <g id="xtick_7">
     <g id="line2d_17">
      <g>
       <use style="stroke:#000000;stroke-width:0.8;" x="223.34848" xlink:href="#m21ae969409" y="190.8"/>
      </g>
     </g>
     <g id="text_10">
      <!-- 45 -->
      <g transform="translate(215.71348 206.918125)scale(0.12 -0.12)">
       <defs>
        <path d="M 2419 4116 
L 825 1625 
L 2419 1625 
L 2419 4116 
z
M 2253 4666 
L 3047 4666 
L 3047 1625 
L 3713 1625 
L 3713 1100 
L 3047 1100 
L 3047 0 
L 2419 0 
L 2419 1100 
L 313 1100 
L 313 1709 
L 2253 4666 
z
" id="DejaVuSans-34" transform="scale(0.015625)"/>
       </defs>
       <use xlink:href="#DejaVuSans-34"/>
       <use x="63.623047" xlink:href="#DejaVuSans-35"/>
      </g>
     </g>
    </g>
    <g id="xtick_8">
     <g id="line2d_18">
      <g>
       <use style="stroke:#000000;stroke-width:0.8;" x="287.17201" xlink:href="#m21ae969409" y="190.8"/>
      </g>
     </g>
     <g id="text_11">
      <!-- 60 -->
      <g transform="translate(279.53701 206.918125)scale(0.12 -0.12)">
       <defs>
        <path d="M 2113 2584 
Q 1688 2584 1439 2293 
Q 1191 2003 1191 1497 
Q 1191 994 1439 701 
Q 1688 409 2113 409 
Q 2538 409 2786 701 
Q 3034 994 3034 1497 
Q 3034 2003 2786 2293 
Q 2538 2584 2113 2584 
z
M 3366 4563 
L 3366 3988 
Q 3128 4100 2886 4159 
Q 2644 4219 2406 4219 
Q 1781 4219 1451 3797 
Q 1122 3375 1075 2522 
Q 1259 2794 1537 2939 
Q 1816 3084 2150 3084 
Q 2853 3084 3261 2657 
Q 3669 2231 3669 1497 
Q 3669 778 3244 343 
Q 2819 -91 2113 -91 
Q 1303 -91 875 529 
Q 447 1150 447 2328 
Q 447 3434 972 4092 
Q 1497 4750 2381 4750 
Q 2619 4750 2861 4703 
Q 3103 4656 3366 4563 
z
" id="DejaVuSans-36" transform="scale(0.015625)"/>
       </defs>
       <use xlink:href="#DejaVuSans-36"/>
       <use x="63.623047" xlink:href="#DejaVuSans-30"/>
      </g>
     </g>
    </g>
    <g id="xtick_9">
     <g id="line2d_19">
      <g>
       <use style="stroke:#000000;stroke-width:0.8;" x="350.995539" xlink:href="#m21ae969409" y="190.8"/>
      </g>
     </g>
     <g id="text_12">
      <!-- 75 -->
      <g transform="translate(343.360539 206.918125)scale(0.12 -0.12)">
       <defs>
        <path d="M 525 4666 
L 3525 4666 
L 3525 4397 
L 1831 0 
L 1172 0 
L 2766 4134 
L 525 4134 
L 525 4666 
z
" id="DejaVuSans-37" transform="scale(0.015625)"/>
       </defs>
       <use xlink:href="#DejaVuSans-37"/>
       <use x="63.623047" xlink:href="#DejaVuSans-35"/>
      </g>
     </g>
    </g>
    <g id="xtick_10">
     <g id="line2d_20">
      <g>
       <use style="stroke:#000000;stroke-width:0.8;" x="372.270049" xlink:href="#m21ae969409" y="190.8"/>
      </g>
     </g>
     <g id="text_13">
      <!-- 80 -->
      <g transform="translate(364.635049 206.918125)scale(0.12 -0.12)">
       <defs>
        <path d="M 2034 2216 
Q 1584 2216 1326 1975 
Q 1069 1734 1069 1313 
Q 1069 891 1326 650 
Q 1584 409 2034 409 
Q 2484 409 2743 651 
Q 3003 894 3003 1313 
Q 3003 1734 2745 1975 
Q 2488 2216 2034 2216 
z
M 1403 2484 
Q 997 2584 770 2862 
Q 544 3141 544 3541 
Q 544 4100 942 4425 
Q 1341 4750 2034 4750 
Q 2731 4750 3128 4425 
Q 3525 4100 3525 3541 
Q 3525 3141 3298 2862 
Q 3072 2584 2669 2484 
Q 3125 2378 3379 2068 
Q 3634 1759 3634 1313 
Q 3634 634 3220 271 
Q 2806 -91 2034 -91 
Q 1263 -91 848 271 
Q 434 634 434 1313 
Q 434 1759 690 2068 
Q 947 2378 1403 2484 
z
M 1172 3481 
Q 1172 3119 1398 2916 
Q 1625 2713 2034 2713 
Q 2441 2713 2670 2916 
Q 2900 3119 2900 3481 
Q 2900 3844 2670 4047 
Q 2441 4250 2034 4250 
Q 1625 4250 1398 4047 
Q 1172 3844 1172 3481 
z
" id="DejaVuSans-38" transform="scale(0.015625)"/>
       </defs>
       <use xlink:href="#DejaVuSans-38"/>
       <use x="63.623047" xlink:href="#DejaVuSans-30"/>
      </g>
     </g>
    </g>
    <g id="xtick_11">
     <g id="line2d_21">
      <g>
       <use style="stroke:#000000;stroke-width:0.8;" x="380.779853" xlink:href="#m21ae969409" y="190.8"/>
      </g>
     </g>
    </g>
    <g id="xtick_12">
     <g id="line2d_22">
      <g>
       <use style="stroke:#000000;stroke-width:0.8;" x="389.289657" xlink:href="#m21ae969409" y="190.8"/>
      </g>
     </g>
    </g>
    <g id="xtick_13">
     <g id="line2d_23">
      <g>
       <use style="stroke:#000000;stroke-width:0.8;" x="397.799461" xlink:href="#m21ae969409" y="190.8"/>
      </g>
     </g>
    </g>
    <g id="xtick_14">
     <g id="line2d_24">
      <g>
       <use style="stroke:#000000;stroke-width:0.8;" x="406.309265" xlink:href="#m21ae969409" y="190.8"/>
      </g>
     </g>
    </g>
    <g id="xtick_15">
     <g id="line2d_25">
      <g>
       <use style="stroke:#000000;stroke-width:0.8;" x="414.819069" xlink:href="#m21ae969409" y="190.8"/>
      </g>
     </g>
     <g id="text_14">
      <!-- 90 -->
      <g transform="translate(407.184069 206.918125)scale(0.12 -0.12)">
       <use xlink:href="#DejaVuSans-39"/>
       <use x="63.623047" xlink:href="#DejaVuSans-30"/>
      </g>
     </g>
    </g>
    <g id="text_15">
     <!-- Light elevation (degrees) -->
     <g transform="translate(158.59386 222.531875)scale(0.12 -0.12)">
      <defs>
       <path d="M 2906 1791 
Q 2906 2416 2648 2759 
Q 2391 3103 1925 3103 
Q 1463 3103 1205 2759 
Q 947 2416 947 1791 
Q 947 1169 1205 825 
Q 1463 481 1925 481 
Q 2391 481 2648 825 
Q 2906 1169 2906 1791 
z
M 3481 434 
Q 3481 -459 3084 -895 
Q 2688 -1331 1869 -1331 
Q 1566 -1331 1297 -1286 
Q 1028 -1241 775 -1147 
L 775 -588 
Q 1028 -725 1275 -790 
Q 1522 -856 1778 -856 
Q 2344 -856 2625 -561 
Q 2906 -266 2906 331 
L 2906 616 
Q 2728 306 2450 153 
Q 2172 0 1784 0 
Q 1141 0 747 490 
Q 353 981 353 1791 
Q 353 2603 747 3093 
Q 1141 3584 1784 3584 
Q 2172 3584 2450 3431 
Q 2728 3278 2906 2969 
L 2906 3500 
L 3481 3500 
L 3481 434 
z
" id="DejaVuSans-67" transform="scale(0.015625)"/>
       <path d="M 603 4863 
L 1178 4863 
L 1178 0 
L 603 0 
L 603 4863 
z
" id="DejaVuSans-6c" transform="scale(0.015625)"/>
       <path d="M 191 3500 
L 800 3500 
L 1894 563 
L 2988 3500 
L 3597 3500 
L 2284 0 
L 1503 0 
L 191 3500 
z
" id="DejaVuSans-76" transform="scale(0.015625)"/>
      </defs>
      <use xlink:href="#DejaVuSans-4c"/>
      <use x="55.712891" xlink:href="#DejaVuSans-69"/>
      <use x="83.496094" xlink:href="#DejaVuSans-67"/>
      <use x="146.972656" xlink:href="#DejaVuSans-68"/>
      <use x="210.351562" xlink:href="#DejaVuSans-74"/>
      <use x="249.560547" xlink:href="#DejaVuSans-20"/>
      <use x="281.347656" xlink:href="#DejaVuSans-65"/>
      <use x="342.871094" xlink:href="#DejaVuSans-6c"/>
      <use x="370.654297" xlink:href="#DejaVuSans-65"/>
      <use x="432.177734" xlink:href="#DejaVuSans-76"/>
      <use x="491.357422" xlink:href="#DejaVuSans-61"/>
      <use x="552.636719" xlink:href="#DejaVuSans-74"/>
      <use x="591.845703" xlink:href="#DejaVuSans-69"/>
      <use x="619.628906" xlink:href="#DejaVuSans-6f"/>
      <use x="680.810547" xlink:href="#DejaVuSans-6e"/>
      <use x="744.189453" xlink:href="#DejaVuSans-20"/>
      <use x="775.976562" xlink:href="#DejaVuSans-28"/>
      <use x="814.990234" xlink:href="#DejaVuSans-64"/>
      <use x="878.466797" xlink:href="#DejaVuSans-65"/>
      <use x="939.990234" xlink:href="#DejaVuSans-67"/>
      <use x="1003.466797" xlink:href="#DejaVuSans-72"/>
      <use x="1042.330078" xlink:href="#DejaVuSans-65"/>
      <use x="1103.853516" xlink:href="#DejaVuSans-65"/>
      <use x="1165.376953" xlink:href="#DejaVuSans-73"/>
      <use x="1217.476562" xlink:href="#DejaVuSans-29"/>
     </g>
    </g>
   </g>
   <g id="matplotlib.axis_4">
    <g id="ytick_1">
     <g id="line2d_26">
      <defs>
       <path d="M 0 0 
L -3.5 0 
" id="m596208a5c0" style="stroke:#000000;stroke-width:0.8;"/>
      </defs>
      <g>
       <use style="stroke:#000000;stroke-width:0.8;" x="48.8975" xlink:href="#m596208a5c0" y="190.8"/>
      </g>
     </g>
     <g id="text_16">
      <!-- 0.0 -->
      <g transform="translate(22.81375 195.359062)scale(0.12 -0.12)">
       <use xlink:href="#DejaVuSans-30"/>
       <use x="63.623047" xlink:href="#DejaVuSans-2e"/>
       <use x="95.410156" xlink:href="#DejaVuSans-30"/>
      </g>
     </g>
    </g>
    <g id="ytick_2">
     <g id="line2d_27">
      <g>
       <use style="stroke:#000000;stroke-width:0.8;" x="48.8975" xlink:href="#m596208a5c0" y="157.536"/>
      </g>
     </g>
     <g id="text_17">
      <!-- 0.2 -->
      <g transform="translate(22.81375 162.095062)scale(0.12 -0.12)">
       <use xlink:href="#DejaVuSans-30"/>
       <use x="63.623047" xlink:href="#DejaVuSans-2e"/>
       <use x="95.410156" xlink:href="#DejaVuSans-32"/>
      </g>
     </g>
    </g>
    <g id="ytick_3">
     <g id="line2d_28">
      <g>
       <use style="stroke:#000000;stroke-width:0.8;" x="48.8975" xlink:href="#m596208a5c0" y="124.272"/>
      </g>
     </g>
     <g id="text_18">
      <!-- 0.4 -->
      <g transform="translate(22.81375 128.831062)scale(0.12 -0.12)">
       <use xlink:href="#DejaVuSans-30"/>
       <use x="63.623047" xlink:href="#DejaVuSans-2e"/>
       <use x="95.410156" xlink:href="#DejaVuSans-34"/>
      </g>
     </g>
    </g>
    <g id="ytick_4">
     <g id="line2d_29">
      <g>
       <use style="stroke:#000000;stroke-width:0.8;" x="48.8975" xlink:href="#m596208a5c0" y="91.008"/>
      </g>
     </g>
     <g id="text_19">
      <!-- 0.6 -->
      <g transform="translate(22.81375 95.567062)scale(0.12 -0.12)">
       <use xlink:href="#DejaVuSans-30"/>
       <use x="63.623047" xlink:href="#DejaVuSans-2e"/>
       <use x="95.410156" xlink:href="#DejaVuSans-36"/>
      </g>
     </g>
    </g>
    <g id="ytick_5">
     <g id="line2d_30">
      <g>
       <use style="stroke:#000000;stroke-width:0.8;" x="48.8975" xlink:href="#m596208a5c0" y="57.744"/>
      </g>
     </g>
     <g id="text_20">
      <!-- 0.8 -->
      <g transform="translate(22.81375 62.303062)scale(0.12 -0.12)">
       <use xlink:href="#DejaVuSans-30"/>
       <use x="63.623047" xlink:href="#DejaVuSans-2e"/>
       <use x="95.410156" xlink:href="#DejaVuSans-38"/>
      </g>
     </g>
    </g>
    <g id="ytick_6">
     <g id="line2d_31">
      <g>
       <use style="stroke:#000000;stroke-width:0.8;" x="48.8975" xlink:href="#m596208a5c0" y="24.48"/>
      </g>
     </g>
     <g id="text_21">
      <!-- 1.0 -->
      <g transform="translate(22.81375 29.039062)scale(0.12 -0.12)">
       <use xlink:href="#DejaVuSans-31"/>
       <use x="63.623047" xlink:href="#DejaVuSans-2e"/>
       <use x="95.410156" xlink:href="#DejaVuSans-30"/>
      </g>
     </g>
    </g>
    <g id="text_22">
     <!-- R value -->
     <g transform="translate(16.318125 130.105312)rotate(-90)scale(0.12 -0.12)">
      <defs>
       <path d="M 2841 2188 
Q 3044 2119 3236 1894 
Q 3428 1669 3622 1275 
L 4263 0 
L 3584 0 
L 2988 1197 
Q 2756 1666 2539 1819 
Q 2322 1972 1947 1972 
L 1259 1972 
L 1259 0 
L 628 0 
L 628 4666 
L 2053 4666 
Q 2853 4666 3247 4331 
Q 3641 3997 3641 3322 
Q 3641 2881 3436 2590 
Q 3231 2300 2841 2188 
z
M 1259 4147 
L 1259 2491 
L 2053 2491 
Q 2509 2491 2742 2702 
Q 2975 2913 2975 3322 
Q 2975 3731 2742 3939 
Q 2509 4147 2053 4147 
L 1259 4147 
z
" id="DejaVuSans-52" transform="scale(0.015625)"/>
       <path d="M 544 1381 
L 544 3500 
L 1119 3500 
L 1119 1403 
Q 1119 906 1312 657 
Q 1506 409 1894 409 
Q 2359 409 2629 706 
Q 2900 1003 2900 1516 
L 2900 3500 
L 3475 3500 
L 3475 0 
L 2900 0 
L 2900 538 
Q 2691 219 2414 64 
Q 2138 -91 1772 -91 
Q 1169 -91 856 284 
Q 544 659 544 1381 
z
M 1991 3584 
L 1991 3584 
z
" id="DejaVuSans-75" transform="scale(0.015625)"/>
      </defs>
      <use xlink:href="#DejaVuSans-52"/>
      <use x="69.482422" xlink:href="#DejaVuSans-20"/>
      <use x="101.269531" xlink:href="#DejaVuSans-76"/>
      <use x="160.449219" xlink:href="#DejaVuSans-61"/>
      <use x="221.728516" xlink:href="#DejaVuSans-6c"/>
      <use x="249.511719" xlink:href="#DejaVuSans-75"/>
      <use x="312.890625" xlink:href="#DejaVuSans-65"/>
     </g>
    </g>
   </g>
   <g id="LineCollection_3">
    <path clip-path="url(#pfc292a5b57)" d="M 53.152402 72.859142 
L 53.152402 60.009298 
" style="fill:none;stroke:#228b22;stroke-width:1.5;"/>
    <path clip-path="url(#pfc292a5b57)" d="M 116.975931 73.753644 
L 116.975931 60.445356 
" style="fill:none;stroke:#228b22;stroke-width:1.5;"/>
    <path clip-path="url(#pfc292a5b57)" d="M 223.34848 79.167968 
L 223.34848 64.594432 
" style="fill:none;stroke:#228b22;stroke-width:1.5;"/>
    <path clip-path="url(#pfc292a5b57)" d="M 287.17201 77.875054 
L 287.17201 64.789634 
" style="fill:none;stroke:#228b22;stroke-width:1.5;"/>
    <path clip-path="url(#pfc292a5b57)" d="M 350.995539 91.733722 
L 350.995539 75.180422 
" style="fill:none;stroke:#228b22;stroke-width:1.5;"/>
    <path clip-path="url(#pfc292a5b57)" d="M 372.270049 107.994831 
L 372.270049 92.449425 
" style="fill:none;stroke:#228b22;stroke-width:1.5;"/>
    <path clip-path="url(#pfc292a5b57)" d="M 380.779853 102.276748 
L 380.779853 90.766268 
" style="fill:none;stroke:#228b22;stroke-width:1.5;"/>
    <path clip-path="url(#pfc292a5b57)" d="M 389.289657 113.834111 
L 389.289657 97.554001 
" style="fill:none;stroke:#228b22;stroke-width:1.5;"/>
    <path clip-path="url(#pfc292a5b57)" d="M 397.799461 131.254681 
L 397.799461 115.110527 
" style="fill:none;stroke:#228b22;stroke-width:1.5;"/>
    <path clip-path="url(#pfc292a5b57)" d="M 406.309265 140.853514 
L 406.309265 126.617702 
" style="fill:none;stroke:#228b22;stroke-width:1.5;"/>
    <path clip-path="url(#pfc292a5b57)" d="M 414.819069 139.433348 
L 414.819069 127.522276 
" style="fill:none;stroke:#228b22;stroke-width:1.5;"/>
   </g>
   <g id="LineCollection_4">
    <path clip-path="url(#pfc292a5b57)" d="M 287.17201 77.875054 
L 287.17201 64.789634 
" style="fill:none;stroke:#8b0000;stroke-width:1.5;"/>
   </g>
   <g id="LineCollection_5">
    <path clip-path="url(#pfc292a5b57)" d="M 350.995539 91.733722 
L 350.995539 75.180422 
" style="fill:none;stroke:#cd5c5c;stroke-width:1.5;"/>
   </g>
   <g id="line2d_32">
    <path clip-path="url(#pfc292a5b57)" d="M 53.152402 64.55839 
L 354.948343 79.300741 
L 354.948343 79.300741 
" style="fill:none;stroke:#2ca02c;stroke-linecap:square;stroke-opacity:0.3;stroke-width:1.5;"/>
   </g>
   <g id="line2d_33">
    <path clip-path="url(#pfc292a5b57)" d="M 355.250441 83.191578 
L 414.819069 134.423585 
L 414.819069 134.423585 
" style="fill:none;stroke:#2ca02c;stroke-linecap:square;stroke-opacity:0.3;stroke-width:1.5;"/>
   </g>
   <g id="line2d_34">
    <defs>
     <path d="M 0 1.5 
C 0.397805 1.5 0.77937 1.341951 1.06066 1.06066 
C 1.341951 0.77937 1.5 0.397805 1.5 0 
C 1.5 -0.397805 1.341951 -0.77937 1.06066 -1.06066 
C 0.77937 -1.341951 0.397805 -1.5 0 -1.5 
C -0.397805 -1.5 -0.77937 -1.341951 -1.06066 -1.06066 
C -1.341951 -0.77937 -1.5 -0.397805 -1.5 0 
C -1.5 0.397805 -1.341951 0.77937 -1.06066 1.06066 
C -0.77937 1.341951 -0.397805 1.5 0 1.5 
z
" id="meff2ff733f" style="stroke:#228b22;"/>
    </defs>
    <g clip-path="url(#pfc292a5b57)">
     <use style="fill:#228b22;stroke:#228b22;" x="53.152402" xlink:href="#meff2ff733f" y="66.43422"/>
     <use style="fill:#228b22;stroke:#228b22;" x="116.975931" xlink:href="#meff2ff733f" y="67.0995"/>
     <use style="fill:#228b22;stroke:#228b22;" x="223.34848" xlink:href="#meff2ff733f" y="71.8812"/>
     <use style="fill:#228b22;stroke:#228b22;" x="287.17201" xlink:href="#meff2ff733f" y="71.332344"/>
     <use style="fill:#228b22;stroke:#228b22;" x="350.995539" xlink:href="#meff2ff733f" y="83.457072"/>
     <use style="fill:#228b22;stroke:#228b22;" x="372.270049" xlink:href="#meff2ff733f" y="100.222128"/>
     <use style="fill:#228b22;stroke:#228b22;" x="380.779853" xlink:href="#meff2ff733f" y="96.521508"/>
     <use style="fill:#228b22;stroke:#228b22;" x="389.289657" xlink:href="#meff2ff733f" y="105.694056"/>
     <use style="fill:#228b22;stroke:#228b22;" x="397.799461" xlink:href="#meff2ff733f" y="123.182604"/>
     <use style="fill:#228b22;stroke:#228b22;" x="406.309265" xlink:href="#meff2ff733f" y="133.735608"/>
     <use style="fill:#228b22;stroke:#228b22;" x="414.819069" xlink:href="#meff2ff733f" y="133.477812"/>
    </g>
   </g>
   <g id="line2d_35">
    <defs>
     <path d="M 0 1.5 
C 0.397805 1.5 0.77937 1.341951 1.06066 1.06066 
C 1.341951 0.77937 1.5 0.397805 1.5 0 
C 1.5 -0.397805 1.341951 -0.77937 1.06066 -1.06066 
C 0.77937 -1.341951 0.397805 -1.5 0 -1.5 
C -0.397805 -1.5 -0.77937 -1.341951 -1.06066 -1.06066 
C -1.341951 -0.77937 -1.5 -0.397805 -1.5 0 
C -1.5 0.397805 -1.341951 0.77937 -1.06066 1.06066 
C -0.77937 1.341951 -0.397805 1.5 0 1.5 
z
" id="m128bea4c26" style="stroke:#8b0000;"/>
    </defs>
    <g clip-path="url(#pfc292a5b57)">
     <use style="fill:#8b0000;stroke:#8b0000;" x="287.17201" xlink:href="#m128bea4c26" y="71.332344"/>
    </g>
   </g>
   <g id="line2d_36">
    <path clip-path="url(#pfc292a5b57)" d="M 350.995539 83.457072 
" style="fill:none;stroke:#cd5c5c;stroke-dasharray:9.6,2.4,1.5,2.4;stroke-dashoffset:0;stroke-width:1.5;"/>
    <defs>
     <path d="M 0 1.5 
C 0.397805 1.5 0.77937 1.341951 1.06066 1.06066 
C 1.341951 0.77937 1.5 0.397805 1.5 0 
C 1.5 -0.397805 1.341951 -0.77937 1.06066 -1.06066 
C 0.77937 -1.341951 0.397805 -1.5 0 -1.5 
C -0.397805 -1.5 -0.77937 -1.341951 -1.06066 -1.06066 
C -1.341951 -0.77937 -1.5 -0.397805 -1.5 0 
C -1.5 0.397805 -1.341951 0.77937 -1.06066 1.06066 
C -0.77937 1.341951 -0.397805 1.5 0 1.5 
z
" id="m371215a19f" style="stroke:#cd5c5c;"/>
    </defs>
    <g clip-path="url(#pfc292a5b57)">
     <use style="fill:#cd5c5c;stroke:#cd5c5c;" x="350.995539" xlink:href="#m371215a19f" y="83.457072"/>
    </g>
   </g>
   <g id="patch_9">
    <path d="M 48.8975 190.8 
L 48.8975 24.48 
" style="fill:none;stroke:#000000;stroke-linecap:square;stroke-linejoin:miter;stroke-width:0.8;"/>
   </g>
   <g id="patch_10">
    <path d="M 419.073971 190.8 
L 419.073971 24.48 
" style="fill:none;stroke:#000000;stroke-linecap:square;stroke-linejoin:miter;stroke-width:0.8;"/>
   </g>
   <g id="patch_11">
    <path d="M 48.8975 190.8 
L 419.073971 190.8 
" style="fill:none;stroke:#000000;stroke-linecap:square;stroke-linejoin:miter;stroke-width:0.8;"/>
   </g>
   <g id="patch_12">
    <path d="M 48.8975 24.48 
L 419.073971 24.48 
" style="fill:none;stroke:#000000;stroke-linecap:square;stroke-linejoin:miter;stroke-width:0.8;"/>
   </g>
   <g id="legend_2">
    <g id="patch_13">
     <path d="M 248.000221 54.365 
L 413.473971 54.365 
Q 415.073971 54.365 415.073971 52.765 
L 415.073971 30.08 
Q 415.073971 28.48 413.473971 28.48 
L 248.000221 28.48 
Q 246.400221 28.48 246.400221 30.08 
L 246.400221 52.765 
Q 246.400221 54.365 248.000221 54.365 
z
" style="fill:#ffffff;opacity:0.8;stroke:#cccccc;stroke-linejoin:miter;"/>
    </g>
    <g id="line2d_37">
     <path d="M 249.600221 34.95875 
L 265.600221 34.95875 
" style="fill:none;stroke:#2ca02c;stroke-linecap:square;stroke-opacity:0.3;stroke-width:1.5;"/>
    </g>
    <g id="line2d_38"/>
    <g id="text_23">
     <!-- Split-linear precision estimator -->
     <g transform="translate(272.000221 37.75875)scale(0.08 -0.08)">
      <defs>
       <path d="M 3425 4513 
L 3425 3897 
Q 3066 4069 2747 4153 
Q 2428 4238 2131 4238 
Q 1616 4238 1336 4038 
Q 1056 3838 1056 3469 
Q 1056 3159 1242 3001 
Q 1428 2844 1947 2747 
L 2328 2669 
Q 3034 2534 3370 2195 
Q 3706 1856 3706 1288 
Q 3706 609 3251 259 
Q 2797 -91 1919 -91 
Q 1588 -91 1214 -16 
Q 841 59 441 206 
L 441 856 
Q 825 641 1194 531 
Q 1563 422 1919 422 
Q 2459 422 2753 634 
Q 3047 847 3047 1241 
Q 3047 1584 2836 1778 
Q 2625 1972 2144 2069 
L 1759 2144 
Q 1053 2284 737 2584 
Q 422 2884 422 3419 
Q 422 4038 858 4394 
Q 1294 4750 2059 4750 
Q 2388 4750 2728 4690 
Q 3069 4631 3425 4513 
z
" id="DejaVuSans-53" transform="scale(0.015625)"/>
       <path d="M 313 2009 
L 1997 2009 
L 1997 1497 
L 313 1497 
L 313 2009 
z
" id="DejaVuSans-2d" transform="scale(0.015625)"/>
      </defs>
      <use xlink:href="#DejaVuSans-53"/>
      <use x="63.476562" xlink:href="#DejaVuSans-70"/>
      <use x="126.953125" xlink:href="#DejaVuSans-6c"/>
      <use x="154.736328" xlink:href="#DejaVuSans-69"/>
      <use x="182.519531" xlink:href="#DejaVuSans-74"/>
      <use x="221.728516" xlink:href="#DejaVuSans-2d"/>
      <use x="257.8125" xlink:href="#DejaVuSans-6c"/>
      <use x="285.595703" xlink:href="#DejaVuSans-69"/>
      <use x="313.378906" xlink:href="#DejaVuSans-6e"/>
      <use x="376.757812" xlink:href="#DejaVuSans-65"/>
      <use x="438.28125" xlink:href="#DejaVuSans-61"/>
      <use x="499.560547" xlink:href="#DejaVuSans-72"/>
      <use x="540.673828" xlink:href="#DejaVuSans-20"/>
      <use x="572.460938" xlink:href="#DejaVuSans-70"/>
      <use x="635.9375" xlink:href="#DejaVuSans-72"/>
      <use x="674.800781" xlink:href="#DejaVuSans-65"/>
      <use x="736.324219" xlink:href="#DejaVuSans-63"/>
      <use x="791.304688" xlink:href="#DejaVuSans-69"/>
      <use x="819.087891" xlink:href="#DejaVuSans-73"/>
      <use x="871.1875" xlink:href="#DejaVuSans-69"/>
      <use x="898.970703" xlink:href="#DejaVuSans-6f"/>
      <use x="960.152344" xlink:href="#DejaVuSans-6e"/>
      <use x="1023.53125" xlink:href="#DejaVuSans-20"/>
      <use x="1055.318359" xlink:href="#DejaVuSans-65"/>
      <use x="1116.841797" xlink:href="#DejaVuSans-73"/>
      <use x="1168.941406" xlink:href="#DejaVuSans-74"/>
      <use x="1208.150391" xlink:href="#DejaVuSans-69"/>
      <use x="1235.933594" xlink:href="#DejaVuSans-6d"/>
      <use x="1333.345703" xlink:href="#DejaVuSans-61"/>
      <use x="1394.625" xlink:href="#DejaVuSans-74"/>
      <use x="1433.833984" xlink:href="#DejaVuSans-6f"/>
      <use x="1495.015625" xlink:href="#DejaVuSans-72"/>
     </g>
    </g>
    <g id="LineCollection_6">
     <path d="M 257.600221 50.70125 
L 257.600221 42.70125 
" style="fill:none;stroke:#228b22;stroke-width:1.5;"/>
    </g>
    <g id="line2d_39"/>
    <g id="line2d_40">
     <g>
      <use style="fill:#228b22;stroke:#228b22;" x="257.600221" xlink:href="#meff2ff733f" y="46.70125"/>
     </g>
    </g>
    <g id="text_24">
     <!-- Mean precision with standard error -->
     <g transform="translate(272.000221 49.50125)scale(0.08 -0.08)">
      <use xlink:href="#DejaVuSans-4d"/>
      <use x="86.279297" xlink:href="#DejaVuSans-65"/>
      <use x="147.802734" xlink:href="#DejaVuSans-61"/>
      <use x="209.082031" xlink:href="#DejaVuSans-6e"/>
      <use x="272.460938" xlink:href="#DejaVuSans-20"/>
      <use x="304.248047" xlink:href="#DejaVuSans-70"/>
      <use x="367.724609" xlink:href="#DejaVuSans-72"/>
      <use x="406.587891" xlink:href="#DejaVuSans-65"/>
      <use x="468.111328" xlink:href="#DejaVuSans-63"/>
      <use x="523.091797" xlink:href="#DejaVuSans-69"/>
      <use x="550.875" xlink:href="#DejaVuSans-73"/>
      <use x="602.974609" xlink:href="#DejaVuSans-69"/>
      <use x="630.757812" xlink:href="#DejaVuSans-6f"/>
      <use x="691.939453" xlink:href="#DejaVuSans-6e"/>
      <use x="755.318359" xlink:href="#DejaVuSans-20"/>
      <use x="787.105469" xlink:href="#DejaVuSans-77"/>
      <use x="868.892578" xlink:href="#DejaVuSans-69"/>
      <use x="896.675781" xlink:href="#DejaVuSans-74"/>
      <use x="935.884766" xlink:href="#DejaVuSans-68"/>
      <use x="999.263672" xlink:href="#DejaVuSans-20"/>
      <use x="1031.050781" xlink:href="#DejaVuSans-73"/>
      <use x="1083.150391" xlink:href="#DejaVuSans-74"/>
      <use x="1122.359375" xlink:href="#DejaVuSans-61"/>
      <use x="1183.638672" xlink:href="#DejaVuSans-6e"/>
      <use x="1247.017578" xlink:href="#DejaVuSans-64"/>
      <use x="1310.494141" xlink:href="#DejaVuSans-61"/>
      <use x="1371.773438" xlink:href="#DejaVuSans-72"/>
      <use x="1411.136719" xlink:href="#DejaVuSans-64"/>
      <use x="1474.613281" xlink:href="#DejaVuSans-20"/>
      <use x="1506.400391" xlink:href="#DejaVuSans-65"/>
      <use x="1567.923828" xlink:href="#DejaVuSans-72"/>
      <use x="1607.287109" xlink:href="#DejaVuSans-72"/>
      <use x="1646.150391" xlink:href="#DejaVuSans-6f"/>
      <use x="1707.332031" xlink:href="#DejaVuSans-72"/>
     </g>
    </g>
   </g>
  </g>
  <g id="text_25">
   <!-- Orientation precision with increasing light elevation and wind speed -->
   <g transform="translate(114.433437 16.318125)scale(0.12 -0.12)">
    <defs>
     <path d="M 2522 4238 
Q 1834 4238 1429 3725 
Q 1025 3213 1025 2328 
Q 1025 1447 1429 934 
Q 1834 422 2522 422 
Q 3209 422 3611 934 
Q 4013 1447 4013 2328 
Q 4013 3213 3611 3725 
Q 3209 4238 2522 4238 
z
M 2522 4750 
Q 3503 4750 4090 4092 
Q 4678 3434 4678 2328 
Q 4678 1225 4090 567 
Q 3503 -91 2522 -91 
Q 1538 -91 948 565 
Q 359 1222 359 2328 
Q 359 3434 948 4092 
Q 1538 4750 2522 4750 
z
" id="DejaVuSans-4f" transform="scale(0.015625)"/>
    </defs>
    <use xlink:href="#DejaVuSans-4f"/>
    <use x="78.710938" xlink:href="#DejaVuSans-72"/>
    <use x="119.824219" xlink:href="#DejaVuSans-69"/>
    <use x="147.607422" xlink:href="#DejaVuSans-65"/>
    <use x="209.130859" xlink:href="#DejaVuSans-6e"/>
    <use x="272.509766" xlink:href="#DejaVuSans-74"/>
    <use x="311.71875" xlink:href="#DejaVuSans-61"/>
    <use x="372.998047" xlink:href="#DejaVuSans-74"/>
    <use x="412.207031" xlink:href="#DejaVuSans-69"/>
    <use x="439.990234" xlink:href="#DejaVuSans-6f"/>
    <use x="501.171875" xlink:href="#DejaVuSans-6e"/>
    <use x="564.550781" xlink:href="#DejaVuSans-20"/>
    <use x="596.337891" xlink:href="#DejaVuSans-70"/>
    <use x="659.814453" xlink:href="#DejaVuSans-72"/>
    <use x="698.677734" xlink:href="#DejaVuSans-65"/>
    <use x="760.201172" xlink:href="#DejaVuSans-63"/>
    <use x="815.181641" xlink:href="#DejaVuSans-69"/>
    <use x="842.964844" xlink:href="#DejaVuSans-73"/>
    <use x="895.064453" xlink:href="#DejaVuSans-69"/>
    <use x="922.847656" xlink:href="#DejaVuSans-6f"/>
    <use x="984.029297" xlink:href="#DejaVuSans-6e"/>
    <use x="1047.408203" xlink:href="#DejaVuSans-20"/>
    <use x="1079.195312" xlink:href="#DejaVuSans-77"/>
    <use x="1160.982422" xlink:href="#DejaVuSans-69"/>
    <use x="1188.765625" xlink:href="#DejaVuSans-74"/>
    <use x="1227.974609" xlink:href="#DejaVuSans-68"/>
    <use x="1291.353516" xlink:href="#DejaVuSans-20"/>
    <use x="1323.140625" xlink:href="#DejaVuSans-69"/>
    <use x="1350.923828" xlink:href="#DejaVuSans-6e"/>
    <use x="1414.302734" xlink:href="#DejaVuSans-63"/>
    <use x="1469.283203" xlink:href="#DejaVuSans-72"/>
    <use x="1508.146484" xlink:href="#DejaVuSans-65"/>
    <use x="1569.669922" xlink:href="#DejaVuSans-61"/>
    <use x="1630.949219" xlink:href="#DejaVuSans-73"/>
    <use x="1683.048828" xlink:href="#DejaVuSans-69"/>
    <use x="1710.832031" xlink:href="#DejaVuSans-6e"/>
    <use x="1774.210938" xlink:href="#DejaVuSans-67"/>
    <use x="1837.6875" xlink:href="#DejaVuSans-20"/>
    <use x="1869.474609" xlink:href="#DejaVuSans-6c"/>
    <use x="1897.257812" xlink:href="#DejaVuSans-69"/>
    <use x="1925.041016" xlink:href="#DejaVuSans-67"/>
    <use x="1988.517578" xlink:href="#DejaVuSans-68"/>
    <use x="2051.896484" xlink:href="#DejaVuSans-74"/>
    <use x="2091.105469" xlink:href="#DejaVuSans-20"/>
    <use x="2122.892578" xlink:href="#DejaVuSans-65"/>
    <use x="2184.416016" xlink:href="#DejaVuSans-6c"/>
    <use x="2212.199219" xlink:href="#DejaVuSans-65"/>
    <use x="2273.722656" xlink:href="#DejaVuSans-76"/>
    <use x="2332.902344" xlink:href="#DejaVuSans-61"/>
    <use x="2394.181641" xlink:href="#DejaVuSans-74"/>
    <use x="2433.390625" xlink:href="#DejaVuSans-69"/>
    <use x="2461.173828" xlink:href="#DejaVuSans-6f"/>
    <use x="2522.355469" xlink:href="#DejaVuSans-6e"/>
    <use x="2585.734375" xlink:href="#DejaVuSans-20"/>
    <use x="2617.521484" xlink:href="#DejaVuSans-61"/>
    <use x="2678.800781" xlink:href="#DejaVuSans-6e"/>
    <use x="2742.179688" xlink:href="#DejaVuSans-64"/>
    <use x="2805.65625" xlink:href="#DejaVuSans-20"/>
    <use x="2837.443359" xlink:href="#DejaVuSans-77"/>
    <use x="2919.230469" xlink:href="#DejaVuSans-69"/>
    <use x="2947.013672" xlink:href="#DejaVuSans-6e"/>
    <use x="3010.392578" xlink:href="#DejaVuSans-64"/>
    <use x="3073.869141" xlink:href="#DejaVuSans-20"/>
    <use x="3105.65625" xlink:href="#DejaVuSans-73"/>
    <use x="3157.755859" xlink:href="#DejaVuSans-70"/>
    <use x="3221.232422" xlink:href="#DejaVuSans-65"/>
    <use x="3282.755859" xlink:href="#DejaVuSans-65"/>
    <use x="3344.279297" xlink:href="#DejaVuSans-64"/>
   </g>
  </g>
 </g>
 <defs>
  <clipPath id="p34ed02191e">
   <rect height="166.32" width="182.352941" x="424.544559" y="24.48"/>
  </clipPath>
  <clipPath id="pfc292a5b57">
   <rect height="166.32" width="370.176471" x="48.8975" y="24.48"/>
  </clipPath>
 </defs>
</svg>
