<?xml version="1.0" encoding="utf-8" standalone="no"?>
<!DOCTYPE svg PUBLIC "-//W3C//DTD SVG 1.1//EN"
  "http://www.w3.org/Graphics/SVG/1.1/DTD/svg11.dtd">
<svg height="313.698125pt" version="1.1" viewBox="0 0 494.203125 313.698125" width="494.203125pt" xmlns="http://www.w3.org/2000/svg" xmlns:xlink="http://www.w3.org/1999/xlink">
 <metadata>
  <rdf:RDF xmlns:cc="http://creativecommons.org/ns#" xmlns:dc="http://purl.org/dc/elements/1.1/" xmlns:rdf="http://www.w3.org/1999/02/22-rdf-syntax-ns#">
   <cc:Work>
    <dc:type rdf:resource="http://purl.org/dc/dcmitype/StillImage"/>
    <dc:date>2022-08-18T10:56:29.116294</dc:date>
    <dc:format>image/svg+xml</dc:format>
    <dc:creator>
     <cc:Agent>
      <dc:title>Matplotlib v3.4.3, https://matplotlib.org/</dc:title>
     </cc:Agent>
    </dc:creator>
   </cc:Work>
  </rdf:RDF>
 </metadata>
 <defs>
  <style type="text/css">*{stroke-linecap:butt;stroke-linejoin:round;}</style>
 </defs>
 <g id="figure_1">
  <g id="patch_1">
   <path d="M 0 313.698125 
L 494.203125 313.698125 
L 494.203125 0 
L 0 0 
z
" style="fill:#ffffff;"/>
  </g>
  <g id="axes_1">
   <g id="patch_2">
    <path d="M 40.603125 276.12 
L 487.003125 276.12 
L 487.003125 26.64 
L 40.603125 26.64 
z
" style="fill:#ffffff;"/>
   </g>
   <g id="matplotlib.axis_1">
    <g id="xtick_1">
     <g id="line2d_1">
      <defs>
       <path d="M 0 0 
L 0 3.5 
" id="m6d3ab93003" style="stroke:#000000;stroke-width:0.8;"/>
      </defs>
      <g>
       <use style="stroke:#000000;stroke-width:0.8;" x="60.894034" xlink:href="#m6d3ab93003" y="276.12"/>
      </g>
     </g>
     <g id="text_1">
      <!-- 0.0 -->
      <g transform="translate(52.942472 290.718437)scale(0.1 -0.1)">
       <defs>
        <path d="M 2034 4250 
Q 1547 4250 1301 3770 
Q 1056 3291 1056 2328 
Q 1056 1369 1301 889 
Q 1547 409 2034 409 
Q 2525 409 2770 889 
Q 3016 1369 3016 2328 
Q 3016 3291 2770 3770 
Q 2525 4250 2034 4250 
z
M 2034 4750 
Q 2819 4750 3233 4129 
Q 3647 3509 3647 2328 
Q 3647 1150 3233 529 
Q 2819 -91 2034 -91 
Q 1250 -91 836 529 
Q 422 1150 422 2328 
Q 422 3509 836 4129 
Q 1250 4750 2034 4750 
z
" id="DejaVuSans-30" transform="scale(0.015625)"/>
        <path d="M 684 794 
L 1344 794 
L 1344 0 
L 684 0 
L 684 794 
z
" id="DejaVuSans-2e" transform="scale(0.015625)"/>
       </defs>
       <use xlink:href="#DejaVuSans-30"/>
       <use x="63.623047" xlink:href="#DejaVuSans-2e"/>
       <use x="95.410156" xlink:href="#DejaVuSans-30"/>
      </g>
     </g>
    </g>
    <g id="xtick_2">
     <g id="line2d_2">
      <g>
       <use style="stroke:#000000;stroke-width:0.8;" x="143.714071" xlink:href="#m6d3ab93003" y="276.12"/>
      </g>
     </g>
     <g id="text_2">
      <!-- 0.2 -->
      <g transform="translate(135.762509 290.718437)scale(0.1 -0.1)">
       <defs>
        <path d="M 1228 531 
L 3431 531 
L 3431 0 
L 469 0 
L 469 531 
Q 828 903 1448 1529 
Q 2069 2156 2228 2338 
Q 2531 2678 2651 2914 
Q 2772 3150 2772 3378 
Q 2772 3750 2511 3984 
Q 2250 4219 1831 4219 
Q 1534 4219 1204 4116 
Q 875 4013 500 3803 
L 500 4441 
Q 881 4594 1212 4672 
Q 1544 4750 1819 4750 
Q 2544 4750 2975 4387 
Q 3406 4025 3406 3419 
Q 3406 3131 3298 2873 
Q 3191 2616 2906 2266 
Q 2828 2175 2409 1742 
Q 1991 1309 1228 531 
z
" id="DejaVuSans-32" transform="scale(0.015625)"/>
       </defs>
       <use xlink:href="#DejaVuSans-30"/>
       <use x="63.623047" xlink:href="#DejaVuSans-2e"/>
       <use x="95.410156" xlink:href="#DejaVuSans-32"/>
      </g>
     </g>
    </g>
    <g id="xtick_3">
     <g id="line2d_3">
      <g>
       <use style="stroke:#000000;stroke-width:0.8;" x="226.534108" xlink:href="#m6d3ab93003" y="276.12"/>
      </g>
     </g>
     <g id="text_3">
      <!-- 0.4 -->
      <g transform="translate(218.582546 290.718437)scale(0.1 -0.1)">
       <defs>
        <path d="M 2419 4116 
L 825 1625 
L 2419 1625 
L 2419 4116 
z
M 2253 4666 
L 3047 4666 
L 3047 1625 
L 3713 1625 
L 3713 1100 
L 3047 1100 
L 3047 0 
L 2419 0 
L 2419 1100 
L 313 1100 
L 313 1709 
L 2253 4666 
z
" id="DejaVuSans-34" transform="scale(0.015625)"/>
       </defs>
       <use xlink:href="#DejaVuSans-30"/>
       <use x="63.623047" xlink:href="#DejaVuSans-2e"/>
       <use x="95.410156" xlink:href="#DejaVuSans-34"/>
      </g>
     </g>
    </g>
    <g id="xtick_4">
     <g id="line2d_4">
      <g>
       <use style="stroke:#000000;stroke-width:0.8;" x="309.354145" xlink:href="#m6d3ab93003" y="276.12"/>
      </g>
     </g>
     <g id="text_4">
      <!-- 0.6 -->
      <g transform="translate(301.402583 290.718437)scale(0.1 -0.1)">
       <defs>
        <path d="M 2113 2584 
Q 1688 2584 1439 2293 
Q 1191 2003 1191 1497 
Q 1191 994 1439 701 
Q 1688 409 2113 409 
Q 2538 409 2786 701 
Q 3034 994 3034 1497 
Q 3034 2003 2786 2293 
Q 2538 2584 2113 2584 
z
M 3366 4563 
L 3366 3988 
Q 3128 4100 2886 4159 
Q 2644 4219 2406 4219 
Q 1781 4219 1451 3797 
Q 1122 3375 1075 2522 
Q 1259 2794 1537 2939 
Q 1816 3084 2150 3084 
Q 2853 3084 3261 2657 
Q 3669 2231 3669 1497 
Q 3669 778 3244 343 
Q 2819 -91 2113 -91 
Q 1303 -91 875 529 
Q 447 1150 447 2328 
Q 447 3434 972 4092 
Q 1497 4750 2381 4750 
Q 2619 4750 2861 4703 
Q 3103 4656 3366 4563 
z
" id="DejaVuSans-36" transform="scale(0.015625)"/>
       </defs>
       <use xlink:href="#DejaVuSans-30"/>
       <use x="63.623047" xlink:href="#DejaVuSans-2e"/>
       <use x="95.410156" xlink:href="#DejaVuSans-36"/>
      </g>
     </g>
    </g>
    <g id="xtick_5">
     <g id="line2d_5">
      <g>
       <use style="stroke:#000000;stroke-width:0.8;" x="392.174183" xlink:href="#m6d3ab93003" y="276.12"/>
      </g>
     </g>
     <g id="text_5">
      <!-- 0.8 -->
      <g transform="translate(384.22262 290.718437)scale(0.1 -0.1)">
       <defs>
        <path d="M 2034 2216 
Q 1584 2216 1326 1975 
Q 1069 1734 1069 1313 
Q 1069 891 1326 650 
Q 1584 409 2034 409 
Q 2484 409 2743 651 
Q 3003 894 3003 1313 
Q 3003 1734 2745 1975 
Q 2488 2216 2034 2216 
z
M 1403 2484 
Q 997 2584 770 2862 
Q 544 3141 544 3541 
Q 544 4100 942 4425 
Q 1341 4750 2034 4750 
Q 2731 4750 3128 4425 
Q 3525 4100 3525 3541 
Q 3525 3141 3298 2862 
Q 3072 2584 2669 2484 
Q 3125 2378 3379 2068 
Q 3634 1759 3634 1313 
Q 3634 634 3220 271 
Q 2806 -91 2034 -91 
Q 1263 -91 848 271 
Q 434 634 434 1313 
Q 434 1759 690 2068 
Q 947 2378 1403 2484 
z
M 1172 3481 
Q 1172 3119 1398 2916 
Q 1625 2713 2034 2713 
Q 2441 2713 2670 2916 
Q 2900 3119 2900 3481 
Q 2900 3844 2670 4047 
Q 2441 4250 2034 4250 
Q 1625 4250 1398 4047 
Q 1172 3844 1172 3481 
z
" id="DejaVuSans-38" transform="scale(0.015625)"/>
       </defs>
       <use xlink:href="#DejaVuSans-30"/>
       <use x="63.623047" xlink:href="#DejaVuSans-2e"/>
       <use x="95.410156" xlink:href="#DejaVuSans-38"/>
      </g>
     </g>
    </g>
    <g id="xtick_6">
     <g id="line2d_6">
      <g>
       <use style="stroke:#000000;stroke-width:0.8;" x="474.99422" xlink:href="#m6d3ab93003" y="276.12"/>
      </g>
     </g>
     <g id="text_6">
      <!-- 1.0 -->
      <g transform="translate(467.042657 290.718437)scale(0.1 -0.1)">
       <defs>
        <path d="M 794 531 
L 1825 531 
L 1825 4091 
L 703 3866 
L 703 4441 
L 1819 4666 
L 2450 4666 
L 2450 531 
L 3481 531 
L 3481 0 
L 794 0 
L 794 531 
z
" id="DejaVuSans-31" transform="scale(0.015625)"/>
       </defs>
       <use xlink:href="#DejaVuSans-31"/>
       <use x="63.623047" xlink:href="#DejaVuSans-2e"/>
       <use x="95.410156" xlink:href="#DejaVuSans-30"/>
      </g>
     </g>
    </g>
    <g id="text_7">
     <!-- Mean vector length - $R$ -->
     <g transform="translate(206.703125 304.398125)scale(0.1 -0.1)">
      <defs>
       <path d="M 628 4666 
L 1569 4666 
L 2759 1491 
L 3956 4666 
L 4897 4666 
L 4897 0 
L 4281 0 
L 4281 4097 
L 3078 897 
L 2444 897 
L 1241 4097 
L 1241 0 
L 628 0 
L 628 4666 
z
" id="DejaVuSans-4d" transform="scale(0.015625)"/>
       <path d="M 3597 1894 
L 3597 1613 
L 953 1613 
Q 991 1019 1311 708 
Q 1631 397 2203 397 
Q 2534 397 2845 478 
Q 3156 559 3463 722 
L 3463 178 
Q 3153 47 2828 -22 
Q 2503 -91 2169 -91 
Q 1331 -91 842 396 
Q 353 884 353 1716 
Q 353 2575 817 3079 
Q 1281 3584 2069 3584 
Q 2775 3584 3186 3129 
Q 3597 2675 3597 1894 
z
M 3022 2063 
Q 3016 2534 2758 2815 
Q 2500 3097 2075 3097 
Q 1594 3097 1305 2825 
Q 1016 2553 972 2059 
L 3022 2063 
z
" id="DejaVuSans-65" transform="scale(0.015625)"/>
       <path d="M 2194 1759 
Q 1497 1759 1228 1600 
Q 959 1441 959 1056 
Q 959 750 1161 570 
Q 1363 391 1709 391 
Q 2188 391 2477 730 
Q 2766 1069 2766 1631 
L 2766 1759 
L 2194 1759 
z
M 3341 1997 
L 3341 0 
L 2766 0 
L 2766 531 
Q 2569 213 2275 61 
Q 1981 -91 1556 -91 
Q 1019 -91 701 211 
Q 384 513 384 1019 
Q 384 1609 779 1909 
Q 1175 2209 1959 2209 
L 2766 2209 
L 2766 2266 
Q 2766 2663 2505 2880 
Q 2244 3097 1772 3097 
Q 1472 3097 1187 3025 
Q 903 2953 641 2809 
L 641 3341 
Q 956 3463 1253 3523 
Q 1550 3584 1831 3584 
Q 2591 3584 2966 3190 
Q 3341 2797 3341 1997 
z
" id="DejaVuSans-61" transform="scale(0.015625)"/>
       <path d="M 3513 2113 
L 3513 0 
L 2938 0 
L 2938 2094 
Q 2938 2591 2744 2837 
Q 2550 3084 2163 3084 
Q 1697 3084 1428 2787 
Q 1159 2491 1159 1978 
L 1159 0 
L 581 0 
L 581 3500 
L 1159 3500 
L 1159 2956 
Q 1366 3272 1645 3428 
Q 1925 3584 2291 3584 
Q 2894 3584 3203 3211 
Q 3513 2838 3513 2113 
z
" id="DejaVuSans-6e" transform="scale(0.015625)"/>
       <path id="DejaVuSans-20" transform="scale(0.015625)"/>
       <path d="M 191 3500 
L 800 3500 
L 1894 563 
L 2988 3500 
L 3597 3500 
L 2284 0 
L 1503 0 
L 191 3500 
z
" id="DejaVuSans-76" transform="scale(0.015625)"/>
       <path d="M 3122 3366 
L 3122 2828 
Q 2878 2963 2633 3030 
Q 2388 3097 2138 3097 
Q 1578 3097 1268 2742 
Q 959 2388 959 1747 
Q 959 1106 1268 751 
Q 1578 397 2138 397 
Q 2388 397 2633 464 
Q 2878 531 3122 666 
L 3122 134 
Q 2881 22 2623 -34 
Q 2366 -91 2075 -91 
Q 1284 -91 818 406 
Q 353 903 353 1747 
Q 353 2603 823 3093 
Q 1294 3584 2113 3584 
Q 2378 3584 2631 3529 
Q 2884 3475 3122 3366 
z
" id="DejaVuSans-63" transform="scale(0.015625)"/>
       <path d="M 1172 4494 
L 1172 3500 
L 2356 3500 
L 2356 3053 
L 1172 3053 
L 1172 1153 
Q 1172 725 1289 603 
Q 1406 481 1766 481 
L 2356 481 
L 2356 0 
L 1766 0 
Q 1100 0 847 248 
Q 594 497 594 1153 
L 594 3053 
L 172 3053 
L 172 3500 
L 594 3500 
L 594 4494 
L 1172 4494 
z
" id="DejaVuSans-74" transform="scale(0.015625)"/>
       <path d="M 1959 3097 
Q 1497 3097 1228 2736 
Q 959 2375 959 1747 
Q 959 1119 1226 758 
Q 1494 397 1959 397 
Q 2419 397 2687 759 
Q 2956 1122 2956 1747 
Q 2956 2369 2687 2733 
Q 2419 3097 1959 3097 
z
M 1959 3584 
Q 2709 3584 3137 3096 
Q 3566 2609 3566 1747 
Q 3566 888 3137 398 
Q 2709 -91 1959 -91 
Q 1206 -91 779 398 
Q 353 888 353 1747 
Q 353 2609 779 3096 
Q 1206 3584 1959 3584 
z
" id="DejaVuSans-6f" transform="scale(0.015625)"/>
       <path d="M 2631 2963 
Q 2534 3019 2420 3045 
Q 2306 3072 2169 3072 
Q 1681 3072 1420 2755 
Q 1159 2438 1159 1844 
L 1159 0 
L 581 0 
L 581 3500 
L 1159 3500 
L 1159 2956 
Q 1341 3275 1631 3429 
Q 1922 3584 2338 3584 
Q 2397 3584 2469 3576 
Q 2541 3569 2628 3553 
L 2631 2963 
z
" id="DejaVuSans-72" transform="scale(0.015625)"/>
       <path d="M 603 4863 
L 1178 4863 
L 1178 0 
L 603 0 
L 603 4863 
z
" id="DejaVuSans-6c" transform="scale(0.015625)"/>
       <path d="M 2906 1791 
Q 2906 2416 2648 2759 
Q 2391 3103 1925 3103 
Q 1463 3103 1205 2759 
Q 947 2416 947 1791 
Q 947 1169 1205 825 
Q 1463 481 1925 481 
Q 2391 481 2648 825 
Q 2906 1169 2906 1791 
z
M 3481 434 
Q 3481 -459 3084 -895 
Q 2688 -1331 1869 -1331 
Q 1566 -1331 1297 -1286 
Q 1028 -1241 775 -1147 
L 775 -588 
Q 1028 -725 1275 -790 
Q 1522 -856 1778 -856 
Q 2344 -856 2625 -561 
Q 2906 -266 2906 331 
L 2906 616 
Q 2728 306 2450 153 
Q 2172 0 1784 0 
Q 1141 0 747 490 
Q 353 981 353 1791 
Q 353 2603 747 3093 
Q 1141 3584 1784 3584 
Q 2172 3584 2450 3431 
Q 2728 3278 2906 2969 
L 2906 3500 
L 3481 3500 
L 3481 434 
z
" id="DejaVuSans-67" transform="scale(0.015625)"/>
       <path d="M 3513 2113 
L 3513 0 
L 2938 0 
L 2938 2094 
Q 2938 2591 2744 2837 
Q 2550 3084 2163 3084 
Q 1697 3084 1428 2787 
Q 1159 2491 1159 1978 
L 1159 0 
L 581 0 
L 581 4863 
L 1159 4863 
L 1159 2956 
Q 1366 3272 1645 3428 
Q 1925 3584 2291 3584 
Q 2894 3584 3203 3211 
Q 3513 2838 3513 2113 
z
" id="DejaVuSans-68" transform="scale(0.015625)"/>
       <path d="M 313 2009 
L 1997 2009 
L 1997 1497 
L 313 1497 
L 313 2009 
z
" id="DejaVuSans-2d" transform="scale(0.015625)"/>
       <path d="M 1613 4147 
L 1294 2491 
L 2106 2491 
Q 2584 2491 2879 2755 
Q 3175 3019 3175 3444 
Q 3175 3784 2976 3965 
Q 2778 4147 2406 4147 
L 1613 4147 
z
M 2772 2241 
Q 2972 2194 3105 2009 
Q 3238 1825 3413 1275 
L 3809 0 
L 3144 0 
L 2778 1197 
Q 2638 1659 2453 1815 
Q 2269 1972 1888 1972 
L 1191 1972 
L 806 0 
L 172 0 
L 1081 4666 
L 2503 4666 
Q 3150 4666 3495 4373 
Q 3841 4081 3841 3531 
Q 3841 3044 3547 2687 
Q 3253 2331 2772 2241 
z
" id="DejaVuSans-Oblique-52" transform="scale(0.015625)"/>
      </defs>
      <use transform="translate(0 0.015625)" xlink:href="#DejaVuSans-4d"/>
      <use transform="translate(86.279297 0.015625)" xlink:href="#DejaVuSans-65"/>
      <use transform="translate(147.802734 0.015625)" xlink:href="#DejaVuSans-61"/>
      <use transform="translate(209.082031 0.015625)" xlink:href="#DejaVuSans-6e"/>
      <use transform="translate(272.460938 0.015625)" xlink:href="#DejaVuSans-20"/>
      <use transform="translate(304.248047 0.015625)" xlink:href="#DejaVuSans-76"/>
      <use transform="translate(363.427734 0.015625)" xlink:href="#DejaVuSans-65"/>
      <use transform="translate(424.951172 0.015625)" xlink:href="#DejaVuSans-63"/>
      <use transform="translate(479.931641 0.015625)" xlink:href="#DejaVuSans-74"/>
      <use transform="translate(519.140625 0.015625)" xlink:href="#DejaVuSans-6f"/>
      <use transform="translate(580.322266 0.015625)" xlink:href="#DejaVuSans-72"/>
      <use transform="translate(621.435547 0.015625)" xlink:href="#DejaVuSans-20"/>
      <use transform="translate(653.222656 0.015625)" xlink:href="#DejaVuSans-6c"/>
      <use transform="translate(681.005859 0.015625)" xlink:href="#DejaVuSans-65"/>
      <use transform="translate(742.529297 0.015625)" xlink:href="#DejaVuSans-6e"/>
      <use transform="translate(805.908203 0.015625)" xlink:href="#DejaVuSans-67"/>
      <use transform="translate(869.384766 0.015625)" xlink:href="#DejaVuSans-74"/>
      <use transform="translate(908.59375 0.015625)" xlink:href="#DejaVuSans-68"/>
      <use transform="translate(971.972656 0.015625)" xlink:href="#DejaVuSans-20"/>
      <use transform="translate(1003.759766 0.015625)" xlink:href="#DejaVuSans-2d"/>
      <use transform="translate(1039.84375 0.015625)" xlink:href="#DejaVuSans-20"/>
      <use transform="translate(1071.630859 0.015625)" xlink:href="#DejaVuSans-Oblique-52"/>
     </g>
    </g>
   </g>
   <g id="matplotlib.axis_2">
    <g id="ytick_1">
     <g id="line2d_7">
      <defs>
       <path d="M 0 0 
L -3.5 0 
" id="mc904e05639" style="stroke:#000000;stroke-width:0.8;"/>
      </defs>
      <g>
       <use style="stroke:#000000;stroke-width:0.8;" x="40.603125" xlink:href="#mc904e05639" y="264.78"/>
      </g>
     </g>
     <g id="text_8">
      <!-- 0 -->
      <g transform="translate(27.240625 268.579219)scale(0.1 -0.1)">
       <use xlink:href="#DejaVuSans-30"/>
      </g>
     </g>
    </g>
    <g id="ytick_2">
     <g id="line2d_8">
      <g>
       <use style="stroke:#000000;stroke-width:0.8;" x="40.603125" xlink:href="#mc904e05639" y="219.883166"/>
      </g>
     </g>
     <g id="text_9">
      <!-- 5 -->
      <g transform="translate(27.240625 223.682385)scale(0.1 -0.1)">
       <defs>
        <path d="M 691 4666 
L 3169 4666 
L 3169 4134 
L 1269 4134 
L 1269 2991 
Q 1406 3038 1543 3061 
Q 1681 3084 1819 3084 
Q 2600 3084 3056 2656 
Q 3513 2228 3513 1497 
Q 3513 744 3044 326 
Q 2575 -91 1722 -91 
Q 1428 -91 1123 -41 
Q 819 9 494 109 
L 494 744 
Q 775 591 1075 516 
Q 1375 441 1709 441 
Q 2250 441 2565 725 
Q 2881 1009 2881 1497 
Q 2881 1984 2565 2268 
Q 2250 2553 1709 2553 
Q 1456 2553 1204 2497 
Q 953 2441 691 2322 
L 691 4666 
z
" id="DejaVuSans-35" transform="scale(0.015625)"/>
       </defs>
       <use xlink:href="#DejaVuSans-35"/>
      </g>
     </g>
    </g>
    <g id="ytick_3">
     <g id="line2d_9">
      <g>
       <use style="stroke:#000000;stroke-width:0.8;" x="40.603125" xlink:href="#mc904e05639" y="174.986333"/>
      </g>
     </g>
     <g id="text_10">
      <!-- 10 -->
      <g transform="translate(20.878125 178.785551)scale(0.1 -0.1)">
       <use xlink:href="#DejaVuSans-31"/>
       <use x="63.623047" xlink:href="#DejaVuSans-30"/>
      </g>
     </g>
    </g>
    <g id="ytick_4">
     <g id="line2d_10">
      <g>
       <use style="stroke:#000000;stroke-width:0.8;" x="40.603125" xlink:href="#mc904e05639" y="130.089499"/>
      </g>
     </g>
     <g id="text_11">
      <!-- 15 -->
      <g transform="translate(20.878125 133.888718)scale(0.1 -0.1)">
       <use xlink:href="#DejaVuSans-31"/>
       <use x="63.623047" xlink:href="#DejaVuSans-35"/>
      </g>
     </g>
    </g>
    <g id="ytick_5">
     <g id="line2d_11">
      <g>
       <use style="stroke:#000000;stroke-width:0.8;" x="40.603125" xlink:href="#mc904e05639" y="85.192665"/>
      </g>
     </g>
     <g id="text_12">
      <!-- 20 -->
      <g transform="translate(20.878125 88.991884)scale(0.1 -0.1)">
       <use xlink:href="#DejaVuSans-32"/>
       <use x="63.623047" xlink:href="#DejaVuSans-30"/>
      </g>
     </g>
    </g>
    <g id="ytick_6">
     <g id="line2d_12">
      <g>
       <use style="stroke:#000000;stroke-width:0.8;" x="40.603125" xlink:href="#mc904e05639" y="40.295831"/>
      </g>
     </g>
     <g id="text_13">
      <!-- 25 -->
      <g transform="translate(20.878125 44.09505)scale(0.1 -0.1)">
       <use xlink:href="#DejaVuSans-32"/>
       <use x="63.623047" xlink:href="#DejaVuSans-35"/>
      </g>
     </g>
    </g>
    <g id="text_14">
     <!-- $\hat\kappa$ -->
     <g transform="translate(14.798438 154.33)rotate(-90)scale(0.1 -0.1)">
      <defs>
       <path d="M -1831 5119 
L -1369 5119 
L -603 3944 
L -1038 3944 
L -1600 4709 
L -2163 3944 
L -2597 3944 
L -1831 5119 
z
M -1600 3584 
L -1600 3584 
z
" id="DejaVuSans-302" transform="scale(0.015625)"/>
       <path d="M 938 3500 
L 1531 3500 
L 1247 2047 
L 3041 3500 
L 3741 3500 
L 2106 2181 
L 3275 0 
L 2572 0 
L 1628 1806 
L 1122 1403 
L 850 0 
L 256 0 
L 938 3500 
z
" id="DejaVuSans-Oblique-3ba" transform="scale(0.015625)"/>
      </defs>
      <use transform="translate(59.1875 12.015625)" xlink:href="#DejaVuSans-302"/>
      <use transform="translate(0 0.828125)" xlink:href="#DejaVuSans-Oblique-3ba"/>
     </g>
    </g>
   </g>
   <g id="line2d_13">
    <path clip-path="url(#p05fc91ff4f)" d="M 60.894034 264.78 
L 155.138096 260.582396 
L 202.260127 258.257284 
L 239.226548 256.218053 
L 270.505828 254.276272 
L 283.911233 253.282289 
L 304.628678 251.640307 
L 322.096327 250.041631 
L 337.12663 248.448556 
L 350.125811 246.849434 
L 361.09387 245.285823 
L 370.843256 243.677929 
L 379.373969 242.051212 
L 387.092232 240.350359 
L 393.591823 238.702112 
L 399.685189 236.929201 
L 404.966106 235.168963 
L 409.840799 233.313763 
L 413.903043 231.532917 
L 417.559063 229.63459 
L 421.215082 227.472167 
L 424.464878 225.282102 
L 427.308449 223.116767 
L 430.152019 220.672773 
L 432.589366 218.313706 
L 435.026712 215.663709 
L 437.464059 212.66616 
L 439.495181 209.851108 
L 441.526303 206.691844 
L 443.557425 203.121689 
L 445.588547 199.055538 
L 447.619669 194.383028 
L 449.244566 190.112048 
L 450.869464 185.263634 
L 452.494362 179.712707 
L 454.119259 173.295244 
L 455.744157 165.79184 
L 457.369055 156.902178 
L 458.587728 149.077445 
L 459.806401 139.995234 
L 461.025074 129.326452 
L 462.243747 116.616186 
L 463.462421 101.217227 
L 464.681094 82.176449 
L 465.899767 58.029843 
L 466.712216 37.982497 
L 466.712216 37.982497 
" style="fill:none;stroke:#ff0000;stroke-dasharray:9.6,2.4,1.5,2.4;stroke-dashoffset:0;stroke-width:1.5;"/>
   </g>
   <g id="line2d_14">
    <path clip-path="url(#p05fc91ff4f)" d="M 60.894034 264.78 
L 155.138096 260.582159 
L 201.447679 258.295454 
L 237.195426 256.314478 
L 266.037359 254.499125 
L 290.004599 252.771631 
L 309.909595 251.120183 
L 326.97102 249.484593 
L 341.188874 247.907335 
L 353.375607 246.344375 
L 363.937441 244.778378 
L 373.280602 243.175533 
L 381.405091 241.563137 
L 388.71713 239.884639 
L 395.21672 238.158159 
L 400.903862 236.414793 
L 405.778555 234.701392 
L 410.247023 232.908502 
L 414.309268 231.050273 
L 417.965287 229.149553 
L 421.621307 226.983834 
L 424.871102 224.787294 
L 427.714673 222.611078 
L 430.558244 220.14875 
L 432.99559 217.765801 
L 435.432937 215.082036 
L 437.870283 212.038122 
L 439.901405 209.172385 
L 441.932527 205.948839 
L 443.963649 202.297556 
L 445.994771 198.129082 
L 447.619669 194.344879 
L 449.244566 190.079536 
L 450.869464 185.236086 
L 452.494362 179.689526 
L 454.119259 173.275902 
L 455.744157 165.775868 
L 457.369055 156.889158 
L 458.587728 149.066388 
L 459.806401 139.985942 
L 461.025074 129.318738 
L 462.243747 116.609877 
L 463.462421 101.212159 
L 464.681094 82.172466 
L 465.899767 58.026798 
L 466.712216 37.98 
L 466.712216 37.98 
" style="fill:none;stroke:#0000ff;stroke-linecap:square;stroke-opacity:0.5;stroke-width:1.5;"/>
   </g>
   <g id="patch_3">
    <path d="M 40.603125 276.12 
L 40.603125 26.64 
" style="fill:none;stroke:#000000;stroke-linecap:square;stroke-linejoin:miter;stroke-width:0.8;"/>
   </g>
   <g id="patch_4">
    <path d="M 487.003125 276.12 
L 487.003125 26.64 
" style="fill:none;stroke:#000000;stroke-linecap:square;stroke-linejoin:miter;stroke-width:0.8;"/>
   </g>
   <g id="patch_5">
    <path d="M 40.603125 276.12 
L 487.003125 276.12 
" style="fill:none;stroke:#000000;stroke-linecap:square;stroke-linejoin:miter;stroke-width:0.8;"/>
   </g>
   <g id="patch_6">
    <path d="M 40.603125 26.64 
L 487.003125 26.64 
" style="fill:none;stroke:#000000;stroke-linecap:square;stroke-linejoin:miter;stroke-width:0.8;"/>
   </g>
   <g id="text_15">
    <!-- $\hat\kappa$ approximation vs. true solutions of $R =\frac{ I_1 (\kappa ) }{ I_0 (\kappa ) }$ -->
    <g transform="translate(130.303125 20.28)scale(0.12 -0.12)">
     <defs>
      <path d="M 1159 525 
L 1159 -1331 
L 581 -1331 
L 581 3500 
L 1159 3500 
L 1159 2969 
Q 1341 3281 1617 3432 
Q 1894 3584 2278 3584 
Q 2916 3584 3314 3078 
Q 3713 2572 3713 1747 
Q 3713 922 3314 415 
Q 2916 -91 2278 -91 
Q 1894 -91 1617 61 
Q 1341 213 1159 525 
z
M 3116 1747 
Q 3116 2381 2855 2742 
Q 2594 3103 2138 3103 
Q 1681 3103 1420 2742 
Q 1159 2381 1159 1747 
Q 1159 1113 1420 752 
Q 1681 391 2138 391 
Q 2594 391 2855 752 
Q 3116 1113 3116 1747 
z
" id="DejaVuSans-70" transform="scale(0.015625)"/>
      <path d="M 3513 3500 
L 2247 1797 
L 3578 0 
L 2900 0 
L 1881 1375 
L 863 0 
L 184 0 
L 1544 1831 
L 300 3500 
L 978 3500 
L 1906 2253 
L 2834 3500 
L 3513 3500 
z
" id="DejaVuSans-78" transform="scale(0.015625)"/>
      <path d="M 603 3500 
L 1178 3500 
L 1178 0 
L 603 0 
L 603 3500 
z
M 603 4863 
L 1178 4863 
L 1178 4134 
L 603 4134 
L 603 4863 
z
" id="DejaVuSans-69" transform="scale(0.015625)"/>
      <path d="M 3328 2828 
Q 3544 3216 3844 3400 
Q 4144 3584 4550 3584 
Q 5097 3584 5394 3201 
Q 5691 2819 5691 2113 
L 5691 0 
L 5113 0 
L 5113 2094 
Q 5113 2597 4934 2840 
Q 4756 3084 4391 3084 
Q 3944 3084 3684 2787 
Q 3425 2491 3425 1978 
L 3425 0 
L 2847 0 
L 2847 2094 
Q 2847 2600 2669 2842 
Q 2491 3084 2119 3084 
Q 1678 3084 1418 2786 
Q 1159 2488 1159 1978 
L 1159 0 
L 581 0 
L 581 3500 
L 1159 3500 
L 1159 2956 
Q 1356 3278 1631 3431 
Q 1906 3584 2284 3584 
Q 2666 3584 2933 3390 
Q 3200 3197 3328 2828 
z
" id="DejaVuSans-6d" transform="scale(0.015625)"/>
      <path d="M 2834 3397 
L 2834 2853 
Q 2591 2978 2328 3040 
Q 2066 3103 1784 3103 
Q 1356 3103 1142 2972 
Q 928 2841 928 2578 
Q 928 2378 1081 2264 
Q 1234 2150 1697 2047 
L 1894 2003 
Q 2506 1872 2764 1633 
Q 3022 1394 3022 966 
Q 3022 478 2636 193 
Q 2250 -91 1575 -91 
Q 1294 -91 989 -36 
Q 684 19 347 128 
L 347 722 
Q 666 556 975 473 
Q 1284 391 1588 391 
Q 1994 391 2212 530 
Q 2431 669 2431 922 
Q 2431 1156 2273 1281 
Q 2116 1406 1581 1522 
L 1381 1569 
Q 847 1681 609 1914 
Q 372 2147 372 2553 
Q 372 3047 722 3315 
Q 1072 3584 1716 3584 
Q 2034 3584 2315 3537 
Q 2597 3491 2834 3397 
z
" id="DejaVuSans-73" transform="scale(0.015625)"/>
      <path d="M 544 1381 
L 544 3500 
L 1119 3500 
L 1119 1403 
Q 1119 906 1312 657 
Q 1506 409 1894 409 
Q 2359 409 2629 706 
Q 2900 1003 2900 1516 
L 2900 3500 
L 3475 3500 
L 3475 0 
L 2900 0 
L 2900 538 
Q 2691 219 2414 64 
Q 2138 -91 1772 -91 
Q 1169 -91 856 284 
Q 544 659 544 1381 
z
M 1991 3584 
L 1991 3584 
z
" id="DejaVuSans-75" transform="scale(0.015625)"/>
      <path d="M 2375 4863 
L 2375 4384 
L 1825 4384 
Q 1516 4384 1395 4259 
Q 1275 4134 1275 3809 
L 1275 3500 
L 2222 3500 
L 2222 3053 
L 1275 3053 
L 1275 0 
L 697 0 
L 697 3053 
L 147 3053 
L 147 3500 
L 697 3500 
L 697 3744 
Q 697 4328 969 4595 
Q 1241 4863 1831 4863 
L 2375 4863 
z
" id="DejaVuSans-66" transform="scale(0.015625)"/>
      <path d="M 678 2906 
L 4684 2906 
L 4684 2381 
L 678 2381 
L 678 2906 
z
M 678 1631 
L 4684 1631 
L 4684 1100 
L 678 1100 
L 678 1631 
z
" id="DejaVuSans-3d" transform="scale(0.015625)"/>
      <path d="M 1081 4666 
L 1716 4666 
L 806 0 
L 172 0 
L 1081 4666 
z
" id="DejaVuSans-Oblique-49" transform="scale(0.015625)"/>
      <path d="M 1984 4856 
Q 1566 4138 1362 3434 
Q 1159 2731 1159 2009 
Q 1159 1288 1364 580 
Q 1569 -128 1984 -844 
L 1484 -844 
Q 1016 -109 783 600 
Q 550 1309 550 2009 
Q 550 2706 781 3412 
Q 1013 4119 1484 4856 
L 1984 4856 
z
" id="DejaVuSans-28" transform="scale(0.015625)"/>
      <path d="M 513 4856 
L 1013 4856 
Q 1481 4119 1714 3412 
Q 1947 2706 1947 2009 
Q 1947 1309 1714 600 
Q 1481 -109 1013 -844 
L 513 -844 
Q 928 -128 1133 580 
Q 1338 1288 1338 2009 
Q 1338 2731 1133 3434 
Q 928 4138 513 4856 
z
" id="DejaVuSans-29" transform="scale(0.015625)"/>
     </defs>
     <use transform="translate(59.1875 11.79375)" xlink:href="#DejaVuSans-302"/>
     <use transform="translate(0 0.60625)" xlink:href="#DejaVuSans-Oblique-3ba"/>
     <use transform="translate(58.935547 0.60625)" xlink:href="#DejaVuSans-20"/>
     <use transform="translate(90.722656 0.60625)" xlink:href="#DejaVuSans-61"/>
     <use transform="translate(152.001953 0.60625)" xlink:href="#DejaVuSans-70"/>
     <use transform="translate(215.478516 0.60625)" xlink:href="#DejaVuSans-70"/>
     <use transform="translate(278.955078 0.60625)" xlink:href="#DejaVuSans-72"/>
     <use transform="translate(320.068359 0.60625)" xlink:href="#DejaVuSans-6f"/>
     <use transform="translate(381.25 0.60625)" xlink:href="#DejaVuSans-78"/>
     <use transform="translate(440.429688 0.60625)" xlink:href="#DejaVuSans-69"/>
     <use transform="translate(468.212891 0.60625)" xlink:href="#DejaVuSans-6d"/>
     <use transform="translate(565.625 0.60625)" xlink:href="#DejaVuSans-61"/>
     <use transform="translate(626.904297 0.60625)" xlink:href="#DejaVuSans-74"/>
     <use transform="translate(666.113281 0.60625)" xlink:href="#DejaVuSans-69"/>
     <use transform="translate(693.896484 0.60625)" xlink:href="#DejaVuSans-6f"/>
     <use transform="translate(755.078125 0.60625)" xlink:href="#DejaVuSans-6e"/>
     <use transform="translate(818.457031 0.60625)" xlink:href="#DejaVuSans-20"/>
     <use transform="translate(850.244141 0.60625)" xlink:href="#DejaVuSans-76"/>
     <use transform="translate(909.423828 0.60625)" xlink:href="#DejaVuSans-73"/>
     <use transform="translate(961.523438 0.60625)" xlink:href="#DejaVuSans-2e"/>
     <use transform="translate(993.310547 0.60625)" xlink:href="#DejaVuSans-20"/>
     <use transform="translate(1025.097656 0.60625)" xlink:href="#DejaVuSans-74"/>
     <use transform="translate(1064.306641 0.60625)" xlink:href="#DejaVuSans-72"/>
     <use transform="translate(1105.419922 0.60625)" xlink:href="#DejaVuSans-75"/>
     <use transform="translate(1168.798828 0.60625)" xlink:href="#DejaVuSans-65"/>
     <use transform="translate(1230.322266 0.60625)" xlink:href="#DejaVuSans-20"/>
     <use transform="translate(1262.109375 0.60625)" xlink:href="#DejaVuSans-73"/>
     <use transform="translate(1314.208984 0.60625)" xlink:href="#DejaVuSans-6f"/>
     <use transform="translate(1375.390625 0.60625)" xlink:href="#DejaVuSans-6c"/>
     <use transform="translate(1403.173828 0.60625)" xlink:href="#DejaVuSans-75"/>
     <use transform="translate(1466.552734 0.60625)" xlink:href="#DejaVuSans-74"/>
     <use transform="translate(1505.761719 0.60625)" xlink:href="#DejaVuSans-69"/>
     <use transform="translate(1533.544922 0.60625)" xlink:href="#DejaVuSans-6f"/>
     <use transform="translate(1594.726562 0.60625)" xlink:href="#DejaVuSans-6e"/>
     <use transform="translate(1658.105469 0.60625)" xlink:href="#DejaVuSans-73"/>
     <use transform="translate(1710.205078 0.60625)" xlink:href="#DejaVuSans-20"/>
     <use transform="translate(1741.992188 0.60625)" xlink:href="#DejaVuSans-6f"/>
     <use transform="translate(1803.173828 0.60625)" xlink:href="#DejaVuSans-66"/>
     <use transform="translate(1838.378906 0.60625)" xlink:href="#DejaVuSans-20"/>
     <use transform="translate(1870.166016 0.60625)" xlink:href="#DejaVuSans-Oblique-52"/>
     <use transform="translate(1959.130859 0.60625)" xlink:href="#DejaVuSans-3d"/>
     <use transform="translate(2062.402344 55.8875)scale(0.7)" xlink:href="#DejaVuSans-Oblique-49"/>
     <use transform="translate(2083.046875 44.403125)scale(0.49)" xlink:href="#DejaVuSans-31"/>
     <use transform="translate(2116.13623 55.8875)scale(0.7)" xlink:href="#DejaVuSans-28"/>
     <use transform="translate(2143.445801 55.8875)scale(0.7)" xlink:href="#DejaVuSans-Oblique-3ba"/>
     <use transform="translate(2184.700684 55.8875)scale(0.7)" xlink:href="#DejaVuSans-29"/>
     <use transform="translate(2062.402344 -39.959375)scale(0.7)" xlink:href="#DejaVuSans-Oblique-49"/>
     <use transform="translate(2083.046875 -51.44375)scale(0.49)" xlink:href="#DejaVuSans-30"/>
     <use transform="translate(2116.13623 -39.959375)scale(0.7)" xlink:href="#DejaVuSans-28"/>
     <use transform="translate(2143.445801 -39.959375)scale(0.7)" xlink:href="#DejaVuSans-Oblique-3ba"/>
     <use transform="translate(2184.700684 -39.959375)scale(0.7)" xlink:href="#DejaVuSans-29"/>
     <path d="M 2062.402344 19.403125 
L 2062.402344 25.653125 
L 2212.010254 25.653125 
L 2212.010254 19.403125 
L 2062.402344 19.403125 
z
"/>
    </g>
   </g>
   <g id="legend_1">
    <g id="patch_7">
     <path d="M 47.603125 64.018125 
L 163.803125 64.018125 
Q 165.803125 64.018125 165.803125 62.018125 
L 165.803125 33.64 
Q 165.803125 31.64 163.803125 31.64 
L 47.603125 31.64 
Q 45.603125 31.64 45.603125 33.64 
L 45.603125 62.018125 
Q 45.603125 64.018125 47.603125 64.018125 
z
" style="fill:#ffffff;opacity:0.8;stroke:#cccccc;stroke-linejoin:miter;"/>
    </g>
    <g id="line2d_15">
     <path d="M 49.603125 39.74 
L 69.603125 39.74 
" style="fill:none;stroke:#ff0000;stroke-dasharray:9.6,2.4,1.5,2.4;stroke-dashoffset:0;stroke-width:1.5;"/>
    </g>
    <g id="line2d_16"/>
    <g id="text_16">
     <!-- $\kappa$ approximation -->
     <g transform="translate(77.603125 43.24)scale(0.1 -0.1)">
      <use transform="translate(0 0.015625)" xlink:href="#DejaVuSans-Oblique-3ba"/>
      <use transform="translate(58.935547 0.015625)" xlink:href="#DejaVuSans-20"/>
      <use transform="translate(90.722656 0.015625)" xlink:href="#DejaVuSans-61"/>
      <use transform="translate(152.001953 0.015625)" xlink:href="#DejaVuSans-70"/>
      <use transform="translate(215.478516 0.015625)" xlink:href="#DejaVuSans-70"/>
      <use transform="translate(278.955078 0.015625)" xlink:href="#DejaVuSans-72"/>
      <use transform="translate(320.068359 0.015625)" xlink:href="#DejaVuSans-6f"/>
      <use transform="translate(381.25 0.015625)" xlink:href="#DejaVuSans-78"/>
      <use transform="translate(440.429688 0.015625)" xlink:href="#DejaVuSans-69"/>
      <use transform="translate(468.212891 0.015625)" xlink:href="#DejaVuSans-6d"/>
      <use transform="translate(565.625 0.015625)" xlink:href="#DejaVuSans-61"/>
      <use transform="translate(626.904297 0.015625)" xlink:href="#DejaVuSans-74"/>
      <use transform="translate(666.113281 0.015625)" xlink:href="#DejaVuSans-69"/>
      <use transform="translate(693.896484 0.015625)" xlink:href="#DejaVuSans-6f"/>
      <use transform="translate(755.078125 0.015625)" xlink:href="#DejaVuSans-6e"/>
     </g>
    </g>
    <g id="line2d_17">
     <path d="M 49.603125 54.438438 
L 69.603125 54.438438 
" style="fill:none;stroke:#0000ff;stroke-linecap:square;stroke-opacity:0.5;stroke-width:1.5;"/>
    </g>
    <g id="line2d_18"/>
    <g id="text_17">
     <!-- True $\kappa$ estimates -->
     <g transform="translate(77.603125 57.938438)scale(0.1 -0.1)">
      <defs>
       <path d="M -19 4666 
L 3928 4666 
L 3928 4134 
L 2272 4134 
L 2272 0 
L 1638 0 
L 1638 4134 
L -19 4134 
L -19 4666 
z
" id="DejaVuSans-54" transform="scale(0.015625)"/>
      </defs>
      <use transform="translate(0 0.015625)" xlink:href="#DejaVuSans-54"/>
      <use transform="translate(61.083984 0.015625)" xlink:href="#DejaVuSans-72"/>
      <use transform="translate(102.197266 0.015625)" xlink:href="#DejaVuSans-75"/>
      <use transform="translate(165.576172 0.015625)" xlink:href="#DejaVuSans-65"/>
      <use transform="translate(227.099609 0.015625)" xlink:href="#DejaVuSans-20"/>
      <use transform="translate(258.886719 0.015625)" xlink:href="#DejaVuSans-Oblique-3ba"/>
      <use transform="translate(317.822266 0.015625)" xlink:href="#DejaVuSans-20"/>
      <use transform="translate(349.609375 0.015625)" xlink:href="#DejaVuSans-65"/>
      <use transform="translate(411.132812 0.015625)" xlink:href="#DejaVuSans-73"/>
      <use transform="translate(463.232422 0.015625)" xlink:href="#DejaVuSans-74"/>
      <use transform="translate(502.441406 0.015625)" xlink:href="#DejaVuSans-69"/>
      <use transform="translate(530.224609 0.015625)" xlink:href="#DejaVuSans-6d"/>
      <use transform="translate(627.636719 0.015625)" xlink:href="#DejaVuSans-61"/>
      <use transform="translate(688.916016 0.015625)" xlink:href="#DejaVuSans-74"/>
      <use transform="translate(728.125 0.015625)" xlink:href="#DejaVuSans-65"/>
      <use transform="translate(789.648438 0.015625)" xlink:href="#DejaVuSans-73"/>
     </g>
    </g>
   </g>
  </g>
 </g>
 <defs>
  <clipPath id="p05fc91ff4f">
   <rect height="249.48" width="446.4" x="40.603125" y="26.64"/>
  </clipPath>
 </defs>
</svg>
