<?xml version="1.0" encoding="utf-8" standalone="no"?>
<!DOCTYPE svg PUBLIC "-//W3C//DTD SVG 1.1//EN"
  "http://www.w3.org/Graphics/SVG/1.1/DTD/svg11.dtd">
<svg xmlns:xlink="http://www.w3.org/1999/xlink" width="493.359375pt" height="314.279375pt" viewBox="0 0 493.359375 314.279375" xmlns="http://www.w3.org/2000/svg" version="1.1">
 <metadata>
  <rdf:RDF xmlns:dc="http://purl.org/dc/elements/1.1/" xmlns:cc="http://creativecommons.org/ns#" xmlns:rdf="http://www.w3.org/1999/02/22-rdf-syntax-ns#">
   <cc:Work>
    <dc:type rdf:resource="http://purl.org/dc/dcmitype/StillImage"/>
    <dc:date>2022-08-31T14:37:53.588925</dc:date>
    <dc:format>image/svg+xml</dc:format>
    <dc:creator>
     <cc:Agent>
      <dc:title>Matplotlib v3.5.1, https://matplotlib.org/</dc:title>
     </cc:Agent>
    </dc:creator>
   </cc:Work>
  </rdf:RDF>
 </metadata>
 <defs>
  <style type="text/css">*{stroke-linejoin: round; stroke-linecap: butt}</style>
 </defs>
 <g id="figure_1">
  <g id="patch_1">
   <path d="M 0 314.279375 
L 493.359375 314.279375 
L 493.359375 0 
L 0 0 
z
" style="fill: #ffffff"/>
  </g>
  <g id="axes_1">
   <g id="patch_2">
    <path d="M 39.759375 276.12 
L 486.159375 276.12 
L 486.159375 26.64 
L 39.759375 26.64 
z
" style="fill: #ffffff"/>
   </g>
   <g id="matplotlib.axis_1">
    <g id="xtick_1">
     <g id="line2d_1">
      <defs>
       <path id="m6c4bf9b68e" d="M 0 0 
L 0 3.5 
" style="stroke: #000000; stroke-width: 0.8"/>
      </defs>
      <g>
       <use xlink:href="#m6c4bf9b68e" x="60.050284" y="276.12" style="stroke: #000000; stroke-width: 0.8"/>
      </g>
     </g>
     <g id="text_1">
      <!-- 0.0 -->
      <g transform="translate(52.950284 290.679375)scale(0.1 -0.1)">
       <defs>
        <path id="AvenirNextLTPro-Regular-30" d="M 1856 4646 
C 717 4646 371 3437 371 2259 
C 371 1082 717 -115 1856 -115 
C 2982 -115 3341 1082 3341 2259 
C 3341 3437 2982 4646 1856 4646 
z
M 1856 4256 
C 2650 4256 2874 3162 2874 2259 
C 2874 1357 2650 282 1856 282 
C 1050 282 838 1357 838 2259 
C 838 3162 1050 4256 1856 4256 
z
" transform="scale(0.015625)"/>
        <path id="AvenirNextLTPro-Regular-2e" d="M 1178 307 
C 1178 486 1037 653 832 653 
C 627 653 486 486 486 307 
C 486 128 627 -38 832 -38 
C 1037 -38 1178 128 1178 307 
z
" transform="scale(0.015625)"/>
       </defs>
       <use xlink:href="#AvenirNextLTPro-Regular-30"/>
       <use xlink:href="#AvenirNextLTPro-Regular-2e" x="57.999985"/>
       <use xlink:href="#AvenirNextLTPro-Regular-30" x="83.999969"/>
      </g>
     </g>
    </g>
    <g id="xtick_2">
     <g id="line2d_2">
      <g>
       <use xlink:href="#m6c4bf9b68e" x="142.870321" y="276.12" style="stroke: #000000; stroke-width: 0.8"/>
      </g>
     </g>
     <g id="text_2">
      <!-- 0.2 -->
      <g transform="translate(135.770321 290.679375)scale(0.1 -0.1)">
       <defs>
        <path id="AvenirNextLTPro-Regular-32" d="M 3226 410 
L 826 410 
L 2458 2029 
C 2854 2426 3194 2816 3194 3398 
C 3194 4224 2560 4646 1830 4646 
C 1120 4646 570 4179 442 3539 
L 896 3450 
C 992 3917 1344 4256 1830 4256 
C 2317 4256 2726 3917 2726 3392 
C 2726 2976 2458 2637 2182 2355 
L 326 480 
L 326 0 
L 3226 0 
L 3226 410 
z
" transform="scale(0.015625)"/>
       </defs>
       <use xlink:href="#AvenirNextLTPro-Regular-30"/>
       <use xlink:href="#AvenirNextLTPro-Regular-2e" x="57.999985"/>
       <use xlink:href="#AvenirNextLTPro-Regular-32" x="83.999969"/>
      </g>
     </g>
    </g>
    <g id="xtick_3">
     <g id="line2d_3">
      <g>
       <use xlink:href="#m6c4bf9b68e" x="225.690358" y="276.12" style="stroke: #000000; stroke-width: 0.8"/>
      </g>
     </g>
     <g id="text_3">
      <!-- 0.4 -->
      <g transform="translate(218.590358 290.679375)scale(0.1 -0.1)">
       <defs>
        <path id="AvenirNextLTPro-Regular-34" d="M 2790 4531 
L 2189 4531 
L 269 1542 
L 269 1094 
L 2342 1094 
L 2342 0 
L 2790 0 
L 2790 1094 
L 3456 1094 
L 3456 1498 
L 2790 1498 
L 2790 4531 
z
M 2342 1498 
L 749 1498 
L 2330 4013 
L 2342 4013 
L 2342 1498 
z
" transform="scale(0.015625)"/>
       </defs>
       <use xlink:href="#AvenirNextLTPro-Regular-30"/>
       <use xlink:href="#AvenirNextLTPro-Regular-2e" x="57.999985"/>
       <use xlink:href="#AvenirNextLTPro-Regular-34" x="83.999969"/>
      </g>
     </g>
    </g>
    <g id="xtick_4">
     <g id="line2d_4">
      <g>
       <use xlink:href="#m6c4bf9b68e" x="308.510395" y="276.12" style="stroke: #000000; stroke-width: 0.8"/>
      </g>
     </g>
     <g id="text_4">
      <!-- 0.6 -->
      <g transform="translate(301.410395 290.679375)scale(0.1 -0.1)">
       <defs>
        <path id="AvenirNextLTPro-Regular-36" d="M 2560 4531 
L 2029 4531 
L 794 2541 
C 570 2176 384 1779 384 1312 
C 384 467 1005 -115 1856 -115 
C 2707 -115 3328 467 3328 1312 
C 3328 2138 2733 2707 1946 2707 
C 1715 2707 1434 2643 1299 2541 
L 1286 2554 
L 2560 4531 
z
M 845 1312 
C 845 1894 1235 2336 1856 2336 
C 2477 2336 2867 1894 2867 1312 
C 2867 723 2451 275 1856 275 
C 1261 275 845 723 845 1312 
z
" transform="scale(0.015625)"/>
       </defs>
       <use xlink:href="#AvenirNextLTPro-Regular-30"/>
       <use xlink:href="#AvenirNextLTPro-Regular-2e" x="57.999985"/>
       <use xlink:href="#AvenirNextLTPro-Regular-36" x="83.999969"/>
      </g>
     </g>
    </g>
    <g id="xtick_5">
     <g id="line2d_5">
      <g>
       <use xlink:href="#m6c4bf9b68e" x="391.330433" y="276.12" style="stroke: #000000; stroke-width: 0.8"/>
      </g>
     </g>
     <g id="text_5">
      <!-- 0.8 -->
      <g transform="translate(384.230433 290.679375)scale(0.1 -0.1)">
       <defs>
        <path id="AvenirNextLTPro-Regular-38" d="M 2451 2400 
L 2451 2413 
C 2854 2547 3136 2970 3136 3437 
C 3136 4173 2547 4646 1856 4646 
C 1165 4646 576 4173 576 3437 
C 576 2970 858 2547 1261 2413 
L 1261 2400 
C 768 2253 403 1798 403 1190 
C 403 397 1082 -115 1856 -115 
C 2630 -115 3309 397 3309 1190 
C 3309 1798 2944 2259 2451 2400 
z
M 1024 3411 
C 1024 3898 1382 4256 1856 4256 
C 2330 4256 2688 3898 2688 3411 
C 2688 2938 2317 2598 1856 2598 
C 1395 2598 1024 2938 1024 3411 
z
M 864 1242 
C 864 1786 1261 2189 1856 2189 
C 2451 2189 2848 1786 2848 1242 
C 2848 691 2451 275 1856 275 
C 1261 275 864 691 864 1242 
z
" transform="scale(0.015625)"/>
       </defs>
       <use xlink:href="#AvenirNextLTPro-Regular-30"/>
       <use xlink:href="#AvenirNextLTPro-Regular-2e" x="57.999985"/>
       <use xlink:href="#AvenirNextLTPro-Regular-38" x="83.999969"/>
      </g>
     </g>
    </g>
    <g id="xtick_6">
     <g id="line2d_6">
      <g>
       <use xlink:href="#m6c4bf9b68e" x="474.15047" y="276.12" style="stroke: #000000; stroke-width: 0.8"/>
      </g>
     </g>
     <g id="text_6">
      <!-- 1.0 -->
      <g transform="translate(467.05047 290.679375)scale(0.1 -0.1)">
       <defs>
        <path id="AvenirNextLTPro-Regular-31" d="M 2291 4531 
L 1882 4531 
L 730 3584 
L 1011 3264 
L 1830 3962 
L 1830 0 
L 2291 0 
L 2291 4531 
z
" transform="scale(0.015625)"/>
       </defs>
       <use xlink:href="#AvenirNextLTPro-Regular-31"/>
       <use xlink:href="#AvenirNextLTPro-Regular-2e" x="57.999985"/>
       <use xlink:href="#AvenirNextLTPro-Regular-30" x="83.999969"/>
      </g>
     </g>
    </g>
    <g id="text_7">
     <!-- Mean vector length - $R$ -->
     <g transform="translate(211.059375 304.679375)scale(0.1 -0.1)">
      <defs>
       <path id="AvenirNextLTPro-Regular-4d" d="M 1306 4531 
L 602 4531 
L 602 0 
L 1062 0 
L 1062 3936 
L 1075 3936 
L 2714 0 
L 2957 0 
L 4595 3936 
L 4608 3936 
L 4608 0 
L 5069 0 
L 5069 4531 
L 4365 4531 
L 2848 781 
L 2842 781 
L 1306 4531 
z
" transform="scale(0.015625)"/>
       <path id="AvenirNextLTPro-Regular-65" d="M 819 1728 
C 858 2240 1286 2707 1869 2707 
C 2490 2707 2835 2291 2861 1728 
L 819 1728 
z
M 3302 1587 
C 3302 2406 2810 3072 1869 3072 
C 1018 3072 358 2400 358 1498 
C 358 595 1018 -77 1907 -77 
C 2400 -77 2842 109 3194 557 
L 2867 813 
C 2701 544 2355 294 1907 294 
C 1293 294 826 781 813 1382 
L 3296 1382 
C 3302 1459 3302 1530 3302 1587 
z
" transform="scale(0.015625)"/>
       <path id="AvenirNextLTPro-Regular-61" d="M 2464 1837 
C 1370 1837 352 1754 352 832 
C 352 166 934 -77 1389 -77 
C 1869 -77 2202 90 2477 486 
L 2490 486 
C 2490 326 2509 147 2534 0 
L 2925 0 
C 2893 166 2874 442 2874 672 
L 2874 1984 
C 2874 2714 2355 3072 1709 3072 
C 1197 3072 774 2886 531 2643 
L 774 2355 
C 986 2566 1312 2707 1664 2707 
C 2182 2707 2464 2451 2464 1933 
L 2464 1837 
z
M 2464 1498 
L 2464 1274 
C 2464 742 2118 282 1504 282 
C 1165 282 800 422 800 851 
C 800 1421 1626 1498 2336 1498 
L 2464 1498 
z
" transform="scale(0.015625)"/>
       <path id="AvenirNextLTPro-Regular-6e" d="M 550 2995 
C 570 2790 576 2496 576 2336 
L 576 0 
L 1011 0 
L 1011 1536 
C 1011 2336 1459 2707 1920 2707 
C 2547 2707 2733 2285 2733 1658 
L 2733 0 
L 3168 0 
L 3168 1837 
C 3168 2579 2790 3072 2029 3072 
C 1606 3072 1171 2829 1005 2483 
L 992 2483 
C 992 2611 979 2835 966 2995 
L 550 2995 
z
" transform="scale(0.015625)"/>
       <path id="AvenirNextLTPro-Regular-20" transform="scale(0.015625)"/>
       <path id="AvenirNextLTPro-Regular-76" d="M 3021 2995 
L 2554 2995 
L 1574 461 
L 1562 461 
L 589 2995 
L 102 2995 
L 1325 0 
L 1805 0 
L 3021 2995 
z
" transform="scale(0.015625)"/>
       <path id="AvenirNextLTPro-Regular-63" d="M 3072 2554 
C 2816 2899 2362 3072 1958 3072 
C 992 3072 358 2400 358 1498 
C 358 595 992 -77 1958 -77 
C 2477 -77 2842 128 3098 442 
L 2771 685 
C 2598 454 2336 294 1958 294 
C 1261 294 819 819 819 1498 
C 819 2182 1267 2707 1965 2707 
C 2291 2707 2592 2541 2733 2310 
L 3072 2554 
z
" transform="scale(0.015625)"/>
       <path id="AvenirNextLTPro-Regular-74" d="M 1926 2995 
L 1082 2995 
L 1082 3840 
L 646 3840 
L 646 2995 
L 26 2995 
L 26 2630 
L 646 2630 
L 646 762 
C 646 102 1094 -38 1414 -38 
C 1613 -38 1773 -6 1926 51 
L 1907 429 
C 1792 371 1651 333 1530 333 
C 1267 333 1082 435 1082 883 
L 1082 2630 
L 1926 2630 
L 1926 2995 
z
" transform="scale(0.015625)"/>
       <path id="AvenirNextLTPro-Regular-6f" d="M 3552 1498 
C 3552 2400 2886 3072 1952 3072 
C 1024 3072 358 2400 358 1498 
C 358 595 1024 -77 1952 -77 
C 2886 -77 3552 595 3552 1498 
z
M 3091 1498 
C 3091 826 2650 294 1952 294 
C 1261 294 819 826 819 1498 
C 819 2170 1261 2707 1952 2707 
C 2650 2707 3091 2170 3091 1498 
z
" transform="scale(0.015625)"/>
       <path id="AvenirNextLTPro-Regular-72" d="M 576 2336 
L 576 0 
L 1011 0 
L 1011 1536 
C 1011 2336 1427 2669 1888 2669 
C 2003 2669 2144 2650 2195 2630 
L 2253 3040 
C 2163 3066 2074 3072 1965 3072 
C 1542 3072 1171 2829 1005 2483 
L 992 2483 
C 992 2611 979 2835 966 2995 
L 550 2995 
C 570 2790 576 2496 576 2336 
z
" transform="scale(0.015625)"/>
       <path id="AvenirNextLTPro-Regular-6c" d="M 1024 4838 
L 589 4838 
L 589 0 
L 1024 0 
L 1024 4838 
z
" transform="scale(0.015625)"/>
       <path id="AvenirNextLTPro-Regular-67" d="M 422 -934 
C 774 -1306 1312 -1536 1862 -1536 
C 3187 -1536 3488 -627 3488 26 
L 3488 2995 
L 3053 2995 
L 3053 2477 
L 3040 2477 
C 2803 2861 2342 3072 1907 3072 
C 973 3072 358 2374 358 1523 
C 358 646 973 0 1907 0 
C 2342 0 2810 218 3040 589 
L 3053 589 
L 3053 26 
C 3053 -621 2739 -1152 1882 -1152 
C 1427 -1152 973 -909 736 -602 
L 422 -934 
z
M 819 1536 
C 819 2163 1229 2707 1952 2707 
C 2624 2707 3104 2163 3104 1536 
C 3104 845 2624 371 1952 371 
C 1229 371 819 909 819 1536 
z
" transform="scale(0.015625)"/>
       <path id="AvenirNextLTPro-Regular-68" d="M 1024 2502 
L 1024 4838 
L 589 4838 
L 589 0 
L 1024 0 
L 1024 1536 
C 1024 2336 1472 2707 1933 2707 
C 2560 2707 2746 2285 2746 1658 
L 2746 0 
L 3181 0 
L 3181 1837 
C 3181 2579 2803 3072 2042 3072 
C 1619 3072 1197 2848 1037 2502 
L 1024 2502 
z
" transform="scale(0.015625)"/>
       <path id="AvenirNextLTPro-Regular-2d" d="M 1741 1734 
L 307 1734 
L 307 1370 
L 1741 1370 
L 1741 1734 
z
" transform="scale(0.015625)"/>
       <path id="DejaVuSans-Oblique-52" d="M 1613 4147 
L 1294 2491 
L 2106 2491 
Q 2584 2491 2879 2755 
Q 3175 3019 3175 3444 
Q 3175 3784 2976 3965 
Q 2778 4147 2406 4147 
L 1613 4147 
z
M 2772 2241 
Q 2972 2194 3105 2009 
Q 3238 1825 3413 1275 
L 3809 0 
L 3144 0 
L 2778 1197 
Q 2638 1659 2453 1815 
Q 2269 1972 1888 1972 
L 1191 1972 
L 806 0 
L 172 0 
L 1081 4666 
L 2503 4666 
Q 3150 4666 3495 4373 
Q 3841 4081 3841 3531 
Q 3841 3044 3547 2687 
Q 3253 2331 2772 2241 
z
" transform="scale(0.015625)"/>
      </defs>
      <use xlink:href="#AvenirNextLTPro-Regular-4d" transform="translate(0 0.40625)"/>
      <use xlink:href="#AvenirNextLTPro-Regular-65" transform="translate(88.599991 0.40625)"/>
      <use xlink:href="#AvenirNextLTPro-Regular-61" transform="translate(145.799988 0.40625)"/>
      <use xlink:href="#AvenirNextLTPro-Regular-6e" transform="translate(199.199982 0.40625)"/>
      <use xlink:href="#AvenirNextLTPro-Regular-20" transform="translate(257.299973 0.40625)"/>
      <use xlink:href="#AvenirNextLTPro-Regular-76" transform="translate(282.299957 0.40625)"/>
      <use xlink:href="#AvenirNextLTPro-Regular-65" transform="translate(331.099945 0.40625)"/>
      <use xlink:href="#AvenirNextLTPro-Regular-63" transform="translate(388.299942 0.40625)"/>
      <use xlink:href="#AvenirNextLTPro-Regular-74" transform="translate(438.299927 0.40625)"/>
      <use xlink:href="#AvenirNextLTPro-Regular-6f" transform="translate(469.999924 0.40625)"/>
      <use xlink:href="#AvenirNextLTPro-Regular-72" transform="translate(531.099915 0.40625)"/>
      <use xlink:href="#AvenirNextLTPro-Regular-20" transform="translate(567.099899 0.40625)"/>
      <use xlink:href="#AvenirNextLTPro-Regular-6c" transform="translate(592.099884 0.40625)"/>
      <use xlink:href="#AvenirNextLTPro-Regular-65" transform="translate(617.299881 0.40625)"/>
      <use xlink:href="#AvenirNextLTPro-Regular-6e" transform="translate(674.499878 0.40625)"/>
      <use xlink:href="#AvenirNextLTPro-Regular-67" transform="translate(732.599869 0.40625)"/>
      <use xlink:href="#AvenirNextLTPro-Regular-74" transform="translate(795.799866 0.40625)"/>
      <use xlink:href="#AvenirNextLTPro-Regular-68" transform="translate(827.499863 0.40625)"/>
      <use xlink:href="#AvenirNextLTPro-Regular-20" transform="translate(885.79985 0.40625)"/>
      <use xlink:href="#AvenirNextLTPro-Regular-2d" transform="translate(910.799835 0.40625)"/>
      <use xlink:href="#AvenirNextLTPro-Regular-20" transform="translate(942.79982 0.40625)"/>
      <use xlink:href="#DejaVuSans-Oblique-52" transform="translate(967.799805 0.40625)"/>
     </g>
    </g>
   </g>
   <g id="matplotlib.axis_2">
    <g id="ytick_1">
     <g id="line2d_7">
      <defs>
       <path id="mde1a1eee9e" d="M 0 0 
L -3.5 0 
" style="stroke: #000000; stroke-width: 0.8"/>
      </defs>
      <g>
       <use xlink:href="#mde1a1eee9e" x="39.759375" y="264.78" style="stroke: #000000; stroke-width: 0.8"/>
      </g>
     </g>
     <g id="text_8">
      <!-- 0 -->
      <g transform="translate(26.959375 268.559687)scale(0.1 -0.1)">
       <use xlink:href="#AvenirNextLTPro-Regular-30"/>
      </g>
     </g>
    </g>
    <g id="ytick_2">
     <g id="line2d_8">
      <g>
       <use xlink:href="#mde1a1eee9e" x="39.759375" y="219.883166" style="stroke: #000000; stroke-width: 0.8"/>
      </g>
     </g>
     <g id="text_9">
      <!-- 5 -->
      <g transform="translate(26.959375 223.662854)scale(0.1 -0.1)">
       <defs>
        <path id="AvenirNextLTPro-Regular-35" d="M 3040 4531 
L 730 4531 
L 685 2195 
C 973 2349 1299 2445 1626 2445 
C 2272 2445 2752 2029 2752 1357 
C 2752 742 2304 282 1690 282 
C 1293 282 934 525 774 896 
L 358 710 
C 608 211 1062 -115 1715 -115 
C 2611 -115 3219 525 3219 1402 
C 3219 2246 2598 2822 1747 2822 
C 1542 2822 1312 2790 1120 2720 
L 1152 4122 
L 3040 4122 
L 3040 4531 
z
" transform="scale(0.015625)"/>
       </defs>
       <use xlink:href="#AvenirNextLTPro-Regular-35"/>
      </g>
     </g>
    </g>
    <g id="ytick_3">
     <g id="line2d_9">
      <g>
       <use xlink:href="#mde1a1eee9e" x="39.759375" y="174.986333" style="stroke: #000000; stroke-width: 0.8"/>
      </g>
     </g>
     <g id="text_10">
      <!-- 10 -->
      <g transform="translate(21.159375 178.76602)scale(0.1 -0.1)">
       <use xlink:href="#AvenirNextLTPro-Regular-31"/>
       <use xlink:href="#AvenirNextLTPro-Regular-30" x="57.999985"/>
      </g>
     </g>
    </g>
    <g id="ytick_4">
     <g id="line2d_10">
      <g>
       <use xlink:href="#mde1a1eee9e" x="39.759375" y="130.089499" style="stroke: #000000; stroke-width: 0.8"/>
      </g>
     </g>
     <g id="text_11">
      <!-- 15 -->
      <g transform="translate(21.159375 133.869186)scale(0.1 -0.1)">
       <use xlink:href="#AvenirNextLTPro-Regular-31"/>
       <use xlink:href="#AvenirNextLTPro-Regular-35" x="57.999985"/>
      </g>
     </g>
    </g>
    <g id="ytick_5">
     <g id="line2d_11">
      <g>
       <use xlink:href="#mde1a1eee9e" x="39.759375" y="85.192665" style="stroke: #000000; stroke-width: 0.8"/>
      </g>
     </g>
     <g id="text_12">
      <!-- 20 -->
      <g transform="translate(21.159375 88.972353)scale(0.1 -0.1)">
       <use xlink:href="#AvenirNextLTPro-Regular-32"/>
       <use xlink:href="#AvenirNextLTPro-Regular-30" x="57.999985"/>
      </g>
     </g>
    </g>
    <g id="ytick_6">
     <g id="line2d_12">
      <g>
       <use xlink:href="#mde1a1eee9e" x="39.759375" y="40.295831" style="stroke: #000000; stroke-width: 0.8"/>
      </g>
     </g>
     <g id="text_13">
      <!-- 25 -->
      <g transform="translate(21.159375 44.075519)scale(0.1 -0.1)">
       <use xlink:href="#AvenirNextLTPro-Regular-32"/>
       <use xlink:href="#AvenirNextLTPro-Regular-35" x="57.999985"/>
      </g>
     </g>
    </g>
    <g id="text_14">
     <!-- $\hat\kappa$ -->
     <g transform="translate(14.759375 154.33)rotate(-90)scale(0.1 -0.1)">
      <defs>
       <path id="DejaVuSans-302" d="M -1831 5119 
L -1369 5119 
L -603 3944 
L -1038 3944 
L -1600 4709 
L -2163 3944 
L -2597 3944 
L -1831 5119 
z
M -1600 3584 
L -1600 3584 
z
" transform="scale(0.015625)"/>
       <path id="DejaVuSans-Oblique-3ba" d="M 938 3500 
L 1531 3500 
L 1247 2047 
L 3041 3500 
L 3741 3500 
L 2106 2181 
L 3275 0 
L 2572 0 
L 1628 1806 
L 1122 1403 
L 850 0 
L 256 0 
L 938 3500 
z
" transform="scale(0.015625)"/>
      </defs>
      <use xlink:href="#DejaVuSans-302" transform="translate(59.1875 12.015625)"/>
      <use xlink:href="#DejaVuSans-Oblique-3ba" transform="translate(0 0.828125)"/>
     </g>
    </g>
   </g>
   <g id="line2d_13">
    <path d="M 60.050284 264.78 
L 154.294346 260.582396 
L 201.416377 258.257284 
L 238.382798 256.218053 
L 269.662078 254.276272 
L 283.067483 253.282289 
L 303.784928 251.640307 
L 321.252577 250.041631 
L 336.28288 248.448556 
L 349.282061 246.849434 
L 360.25012 245.285823 
L 369.999506 243.677929 
L 378.530219 242.051212 
L 386.248482 240.350359 
L 392.748073 238.702112 
L 398.841439 236.929201 
L 404.122356 235.168963 
L 408.997049 233.313763 
L 413.059293 231.532917 
L 416.715313 229.63459 
L 420.371332 227.472167 
L 423.621128 225.282102 
L 426.464699 223.116767 
L 429.308269 220.672773 
L 431.745616 218.313706 
L 434.182962 215.663709 
L 436.620309 212.66616 
L 438.651431 209.851108 
L 440.682553 206.691844 
L 442.713675 203.121689 
L 444.744797 199.055538 
L 446.775919 194.383028 
L 448.400816 190.112048 
L 450.025714 185.263634 
L 451.650612 179.712707 
L 453.275509 173.295244 
L 454.900407 165.79184 
L 456.525305 156.902178 
L 457.743978 149.077445 
L 458.962651 139.995234 
L 460.181324 129.326452 
L 461.399997 116.616186 
L 462.618671 101.217227 
L 463.837344 82.176449 
L 465.056017 58.029843 
L 465.868466 37.982497 
L 465.868466 37.982497 
" clip-path="url(#p68bc3c7936)" style="fill: none; stroke-dasharray: 9.6,2.4,1.5,2.4; stroke-dashoffset: 0; stroke: #ff0000; stroke-width: 1.5"/>
   </g>
   <g id="line2d_14">
    <path d="M 60.050284 264.78 
L 154.294346 260.582159 
L 200.603929 258.295454 
L 236.351676 256.314478 
L 265.193609 254.499125 
L 289.160849 252.771631 
L 309.065845 251.120183 
L 326.12727 249.484593 
L 340.345124 247.907335 
L 352.531857 246.344375 
L 363.093691 244.778378 
L 372.436852 243.175533 
L 380.561341 241.563137 
L 387.87338 239.884639 
L 394.37297 238.158159 
L 400.060112 236.414793 
L 404.934805 234.701392 
L 409.403273 232.908502 
L 413.465518 231.050273 
L 417.121537 229.149553 
L 420.777557 226.983834 
L 424.027352 224.787294 
L 426.870923 222.611078 
L 429.714494 220.14875 
L 432.15184 217.765801 
L 434.589187 215.082036 
L 437.026533 212.038122 
L 439.057655 209.172385 
L 441.088777 205.948839 
L 443.119899 202.297556 
L 445.151021 198.129082 
L 446.775919 194.344879 
L 448.400816 190.079536 
L 450.025714 185.236086 
L 451.650612 179.689526 
L 453.275509 173.275902 
L 454.900407 165.775868 
L 456.525305 156.889158 
L 457.743978 149.066388 
L 458.962651 139.985942 
L 460.181324 129.318738 
L 461.399997 116.609877 
L 462.618671 101.212159 
L 463.837344 82.172466 
L 465.056017 58.026798 
L 465.868466 37.98 
L 465.868466 37.98 
" clip-path="url(#p68bc3c7936)" style="fill: none; stroke: #0000ff; stroke-opacity: 0.5; stroke-width: 1.5; stroke-linecap: square"/>
   </g>
   <g id="patch_3">
    <path d="M 39.759375 276.12 
L 39.759375 26.64 
" style="fill: none; stroke: #000000; stroke-width: 0.8; stroke-linejoin: miter; stroke-linecap: square"/>
   </g>
   <g id="patch_4">
    <path d="M 486.159375 276.12 
L 486.159375 26.64 
" style="fill: none; stroke: #000000; stroke-width: 0.8; stroke-linejoin: miter; stroke-linecap: square"/>
   </g>
   <g id="patch_5">
    <path d="M 39.759375 276.12 
L 486.159375 276.12 
" style="fill: none; stroke: #000000; stroke-width: 0.8; stroke-linejoin: miter; stroke-linecap: square"/>
   </g>
   <g id="patch_6">
    <path d="M 39.759375 26.64 
L 486.159375 26.64 
" style="fill: none; stroke: #000000; stroke-width: 0.8; stroke-linejoin: miter; stroke-linecap: square"/>
   </g>
   <g id="text_15">
    <!-- $\hat\kappa$ approximation vs. true solutions of $R =\frac{ I_1 (\kappa ) }{ I_0 (\kappa ) }$ -->
    <g transform="translate(140.919375 20.28)scale(0.12 -0.12)">
     <defs>
      <path id="AvenirNextLTPro-Regular-70" d="M 1011 506 
L 1030 506 
C 1280 134 1728 -77 2157 -77 
C 3091 -77 3706 614 3706 1498 
C 3706 2381 3091 3072 2157 3072 
C 1728 3072 1280 2867 1030 2477 
L 1011 2477 
L 1011 2995 
L 576 2995 
L 576 -1536 
L 1011 -1536 
L 1011 506 
z
M 3245 1498 
C 3245 832 2835 294 2112 294 
C 1440 294 960 813 960 1498 
C 960 2182 1440 2707 2112 2707 
C 2835 2707 3245 2163 3245 1498 
z
" transform="scale(0.015625)"/>
      <path id="AvenirNextLTPro-Regular-78" d="M 102 0 
L 627 0 
L 1542 1248 
L 2432 0 
L 2995 0 
L 1805 1568 
L 2893 2995 
L 2368 2995 
L 1549 1856 
L 730 2995 
L 173 2995 
L 1280 1549 
L 102 0 
z
" transform="scale(0.015625)"/>
      <path id="AvenirNextLTPro-Regular-69" d="M 1018 2995 
L 582 2995 
L 582 0 
L 1018 0 
L 1018 2995 
z
M 1107 4147 
C 1107 4326 954 4454 800 4454 
C 646 4454 493 4326 493 4147 
C 493 3968 646 3840 800 3840 
C 954 3840 1107 3968 1107 4147 
z
" transform="scale(0.015625)"/>
      <path id="AvenirNextLTPro-Regular-6d" d="M 1005 2483 
L 992 2483 
C 992 2611 979 2835 966 2995 
L 550 2995 
C 570 2790 576 2496 576 2336 
L 576 0 
L 1011 0 
L 1011 1536 
C 1011 2336 1466 2707 1882 2707 
C 2464 2707 2605 2330 2605 1747 
L 2605 0 
L 3040 0 
L 3040 1594 
C 3040 2150 3264 2707 3891 2707 
C 4454 2707 4666 2285 4666 1658 
L 4666 0 
L 5101 0 
L 5101 1837 
C 5101 2579 4723 3072 3962 3072 
C 3482 3072 3117 2848 2912 2438 
C 2714 2950 2317 3072 1990 3072 
C 1562 3072 1178 2829 1005 2483 
z
" transform="scale(0.015625)"/>
      <path id="AvenirNextLTPro-Regular-73" d="M 2502 2534 
C 2310 2874 1869 3072 1453 3072 
C 909 3072 384 2810 384 2202 
C 384 1632 890 1478 1242 1395 
C 1811 1261 2125 1133 2125 819 
C 2125 429 1792 294 1421 294 
C 1069 294 742 499 589 762 
L 243 506 
C 518 102 973 -77 1427 -77 
C 1978 -77 2554 166 2554 851 
C 2554 1318 2221 1581 1517 1728 
C 1024 1830 800 1958 800 2240 
C 800 2573 1120 2707 1434 2707 
C 1766 2707 2042 2534 2170 2285 
L 2502 2534 
z
" transform="scale(0.015625)"/>
      <path id="AvenirNextLTPro-Regular-75" d="M 3168 0 
C 3149 205 3142 499 3142 659 
L 3142 2995 
L 2707 2995 
L 2707 1459 
C 2707 659 2259 288 1798 288 
C 1171 288 986 710 986 1338 
L 986 2995 
L 550 2995 
L 550 1158 
C 550 416 928 -77 1690 -77 
C 2112 -77 2547 166 2714 512 
L 2726 512 
C 2726 384 2739 160 2752 0 
L 3168 0 
z
" transform="scale(0.015625)"/>
      <path id="AvenirNextLTPro-Regular-66" d="M 1843 2995 
L 1139 2995 
L 1139 3763 
C 1139 4198 1235 4531 1702 4531 
C 1818 4531 1914 4512 2003 4486 
L 2080 4870 
C 1971 4902 1830 4915 1722 4915 
C 1037 4915 704 4493 704 3814 
L 704 2995 
L 77 2995 
L 77 2630 
L 704 2630 
L 704 0 
L 1139 0 
L 1139 2630 
L 1843 2630 
L 1843 2995 
z
" transform="scale(0.015625)"/>
      <path id="DejaVuSans-3d" d="M 678 2906 
L 4684 2906 
L 4684 2381 
L 678 2381 
L 678 2906 
z
M 678 1631 
L 4684 1631 
L 4684 1100 
L 678 1100 
L 678 1631 
z
" transform="scale(0.015625)"/>
      <path id="DejaVuSans-Oblique-49" d="M 1081 4666 
L 1716 4666 
L 806 0 
L 172 0 
L 1081 4666 
z
" transform="scale(0.015625)"/>
      <path id="DejaVuSans-31" d="M 794 531 
L 1825 531 
L 1825 4091 
L 703 3866 
L 703 4441 
L 1819 4666 
L 2450 4666 
L 2450 531 
L 3481 531 
L 3481 0 
L 794 0 
L 794 531 
z
" transform="scale(0.015625)"/>
      <path id="DejaVuSans-28" d="M 1984 4856 
Q 1566 4138 1362 3434 
Q 1159 2731 1159 2009 
Q 1159 1288 1364 580 
Q 1569 -128 1984 -844 
L 1484 -844 
Q 1016 -109 783 600 
Q 550 1309 550 2009 
Q 550 2706 781 3412 
Q 1013 4119 1484 4856 
L 1984 4856 
z
" transform="scale(0.015625)"/>
      <path id="DejaVuSans-29" d="M 513 4856 
L 1013 4856 
Q 1481 4119 1714 3412 
Q 1947 2706 1947 2009 
Q 1947 1309 1714 600 
Q 1481 -109 1013 -844 
L 513 -844 
Q 928 -128 1133 580 
Q 1338 1288 1338 2009 
Q 1338 2731 1133 3434 
Q 928 4138 513 4856 
z
" transform="scale(0.015625)"/>
      <path id="DejaVuSans-30" d="M 2034 4250 
Q 1547 4250 1301 3770 
Q 1056 3291 1056 2328 
Q 1056 1369 1301 889 
Q 1547 409 2034 409 
Q 2525 409 2770 889 
Q 3016 1369 3016 2328 
Q 3016 3291 2770 3770 
Q 2525 4250 2034 4250 
z
M 2034 4750 
Q 2819 4750 3233 4129 
Q 3647 3509 3647 2328 
Q 3647 1150 3233 529 
Q 2819 -91 2034 -91 
Q 1250 -91 836 529 
Q 422 1150 422 2328 
Q 422 3509 836 4129 
Q 1250 4750 2034 4750 
z
" transform="scale(0.015625)"/>
     </defs>
     <use xlink:href="#DejaVuSans-302" transform="translate(59.1875 11.79375)"/>
     <use xlink:href="#DejaVuSans-Oblique-3ba" transform="translate(0 0.60625)"/>
     <use xlink:href="#AvenirNextLTPro-Regular-20" transform="translate(58.935547 0.60625)"/>
     <use xlink:href="#AvenirNextLTPro-Regular-61" transform="translate(83.935532 0.60625)"/>
     <use xlink:href="#AvenirNextLTPro-Regular-70" transform="translate(137.335526 0.60625)"/>
     <use xlink:href="#AvenirNextLTPro-Regular-70" transform="translate(200.83551 0.60625)"/>
     <use xlink:href="#AvenirNextLTPro-Regular-72" transform="translate(264.335495 0.60625)"/>
     <use xlink:href="#AvenirNextLTPro-Regular-6f" transform="translate(300.33548 0.60625)"/>
     <use xlink:href="#AvenirNextLTPro-Regular-78" transform="translate(361.435471 0.60625)"/>
     <use xlink:href="#AvenirNextLTPro-Regular-69" transform="translate(409.835464 0.60625)"/>
     <use xlink:href="#AvenirNextLTPro-Regular-6d" transform="translate(434.835449 0.60625)"/>
     <use xlink:href="#AvenirNextLTPro-Regular-61" transform="translate(523.135437 0.60625)"/>
     <use xlink:href="#AvenirNextLTPro-Regular-74" transform="translate(576.535431 0.60625)"/>
     <use xlink:href="#AvenirNextLTPro-Regular-69" transform="translate(608.235428 0.60625)"/>
     <use xlink:href="#AvenirNextLTPro-Regular-6f" transform="translate(633.235413 0.60625)"/>
     <use xlink:href="#AvenirNextLTPro-Regular-6e" transform="translate(694.335403 0.60625)"/>
     <use xlink:href="#AvenirNextLTPro-Regular-20" transform="translate(752.435394 0.60625)"/>
     <use xlink:href="#AvenirNextLTPro-Regular-76" transform="translate(777.435379 0.60625)"/>
     <use xlink:href="#AvenirNextLTPro-Regular-73" transform="translate(826.235367 0.60625)"/>
     <use xlink:href="#AvenirNextLTPro-Regular-2e" transform="translate(870.635361 0.60625)"/>
     <use xlink:href="#AvenirNextLTPro-Regular-20" transform="translate(896.635345 0.60625)"/>
     <use xlink:href="#AvenirNextLTPro-Regular-74" transform="translate(921.63533 0.60625)"/>
     <use xlink:href="#AvenirNextLTPro-Regular-72" transform="translate(953.335327 0.60625)"/>
     <use xlink:href="#AvenirNextLTPro-Regular-75" transform="translate(989.335312 0.60625)"/>
     <use xlink:href="#AvenirNextLTPro-Regular-65" transform="translate(1047.435303 0.60625)"/>
     <use xlink:href="#AvenirNextLTPro-Regular-20" transform="translate(1104.6353 0.60625)"/>
     <use xlink:href="#AvenirNextLTPro-Regular-73" transform="translate(1129.635284 0.60625)"/>
     <use xlink:href="#AvenirNextLTPro-Regular-6f" transform="translate(1174.035278 0.60625)"/>
     <use xlink:href="#AvenirNextLTPro-Regular-6c" transform="translate(1235.135269 0.60625)"/>
     <use xlink:href="#AvenirNextLTPro-Regular-75" transform="translate(1260.335266 0.60625)"/>
     <use xlink:href="#AvenirNextLTPro-Regular-74" transform="translate(1318.435257 0.60625)"/>
     <use xlink:href="#AvenirNextLTPro-Regular-69" transform="translate(1350.135254 0.60625)"/>
     <use xlink:href="#AvenirNextLTPro-Regular-6f" transform="translate(1375.135239 0.60625)"/>
     <use xlink:href="#AvenirNextLTPro-Regular-6e" transform="translate(1436.235229 0.60625)"/>
     <use xlink:href="#AvenirNextLTPro-Regular-73" transform="translate(1494.33522 0.60625)"/>
     <use xlink:href="#AvenirNextLTPro-Regular-20" transform="translate(1538.735214 0.60625)"/>
     <use xlink:href="#AvenirNextLTPro-Regular-6f" transform="translate(1563.735199 0.60625)"/>
     <use xlink:href="#AvenirNextLTPro-Regular-66" transform="translate(1624.83519 0.60625)"/>
     <use xlink:href="#AvenirNextLTPro-Regular-20" transform="translate(1654.335175 0.60625)"/>
     <use xlink:href="#DejaVuSans-Oblique-52" transform="translate(1679.335159 0.60625)"/>
     <use xlink:href="#DejaVuSans-3d" transform="translate(1768.300003 0.60625)"/>
     <use xlink:href="#DejaVuSans-Oblique-49" transform="translate(1871.571487 55.8875)scale(0.7)"/>
     <use xlink:href="#DejaVuSans-31" transform="translate(1892.216019 44.403125)scale(0.49)"/>
     <use xlink:href="#DejaVuSans-28" transform="translate(1925.305374 55.8875)scale(0.7)"/>
     <use xlink:href="#DejaVuSans-Oblique-3ba" transform="translate(1952.614944 55.8875)scale(0.7)"/>
     <use xlink:href="#DejaVuSans-29" transform="translate(1993.869827 55.8875)scale(0.7)"/>
     <use xlink:href="#DejaVuSans-Oblique-49" transform="translate(1871.571487 -39.959375)scale(0.7)"/>
     <use xlink:href="#DejaVuSans-30" transform="translate(1892.216019 -51.44375)scale(0.49)"/>
     <use xlink:href="#DejaVuSans-28" transform="translate(1925.305374 -39.959375)scale(0.7)"/>
     <use xlink:href="#DejaVuSans-Oblique-3ba" transform="translate(1952.614944 -39.959375)scale(0.7)"/>
     <use xlink:href="#DejaVuSans-29" transform="translate(1993.869827 -39.959375)scale(0.7)"/>
     <path d="M 1871.571487 19.403125 
L 1871.571487 25.653125 
L 2021.179398 25.653125 
L 2021.179398 19.403125 
L 1871.571487 19.403125 
z
"/>
    </g>
   </g>
   <g id="legend_1">
    <g id="patch_7">
     <path d="M 46.759375 64.55875 
L 154.059375 64.55875 
Q 156.059375 64.55875 156.059375 62.55875 
L 156.059375 33.64 
Q 156.059375 31.64 154.059375 31.64 
L 46.759375 31.64 
Q 44.759375 31.64 44.759375 33.64 
L 44.759375 62.55875 
Q 44.759375 64.55875 46.759375 64.55875 
z
" style="fill: #ffffff; opacity: 0.8; stroke: #cccccc; stroke-linejoin: miter"/>
    </g>
    <g id="line2d_15">
     <path d="M 48.759375 39.699375 
L 58.759375 39.699375 
L 68.759375 39.699375 
" style="fill: none; stroke-dasharray: 9.6,2.4,1.5,2.4; stroke-dashoffset: 0; stroke: #ff0000; stroke-width: 1.5"/>
    </g>
    <g id="text_16">
     <!-- $\kappa$ approximation -->
     <g transform="translate(76.759375 43.199375)scale(0.1 -0.1)">
      <use xlink:href="#DejaVuSans-Oblique-3ba" transform="translate(0 0.40625)"/>
      <use xlink:href="#AvenirNextLTPro-Regular-20" transform="translate(58.935547 0.40625)"/>
      <use xlink:href="#AvenirNextLTPro-Regular-61" transform="translate(83.935532 0.40625)"/>
      <use xlink:href="#AvenirNextLTPro-Regular-70" transform="translate(137.335526 0.40625)"/>
      <use xlink:href="#AvenirNextLTPro-Regular-70" transform="translate(200.83551 0.40625)"/>
      <use xlink:href="#AvenirNextLTPro-Regular-72" transform="translate(264.335495 0.40625)"/>
      <use xlink:href="#AvenirNextLTPro-Regular-6f" transform="translate(300.33548 0.40625)"/>
      <use xlink:href="#AvenirNextLTPro-Regular-78" transform="translate(361.435471 0.40625)"/>
      <use xlink:href="#AvenirNextLTPro-Regular-69" transform="translate(409.835464 0.40625)"/>
      <use xlink:href="#AvenirNextLTPro-Regular-6d" transform="translate(434.835449 0.40625)"/>
      <use xlink:href="#AvenirNextLTPro-Regular-61" transform="translate(523.135437 0.40625)"/>
      <use xlink:href="#AvenirNextLTPro-Regular-74" transform="translate(576.535431 0.40625)"/>
      <use xlink:href="#AvenirNextLTPro-Regular-69" transform="translate(608.235428 0.40625)"/>
      <use xlink:href="#AvenirNextLTPro-Regular-6f" transform="translate(633.235413 0.40625)"/>
      <use xlink:href="#AvenirNextLTPro-Regular-6e" transform="translate(694.335403 0.40625)"/>
     </g>
    </g>
    <g id="line2d_16">
     <path d="M 48.759375 54.65875 
L 58.759375 54.65875 
L 68.759375 54.65875 
" style="fill: none; stroke: #0000ff; stroke-opacity: 0.5; stroke-width: 1.5; stroke-linecap: square"/>
    </g>
    <g id="text_17">
     <!-- True $\kappa$ estimates -->
     <g transform="translate(76.759375 58.15875)scale(0.1 -0.1)">
      <defs>
       <path id="AvenirNextLTPro-Regular-54" d="M 2054 4122 
L 3571 4122 
L 3571 4531 
L 77 4531 
L 77 4122 
L 1594 4122 
L 1594 0 
L 2054 0 
L 2054 4122 
z
" transform="scale(0.015625)"/>
      </defs>
      <use xlink:href="#AvenirNextLTPro-Regular-54" transform="translate(0 0.203125)"/>
      <use xlink:href="#AvenirNextLTPro-Regular-72" transform="translate(56.999985 0.203125)"/>
      <use xlink:href="#AvenirNextLTPro-Regular-75" transform="translate(92.999969 0.203125)"/>
      <use xlink:href="#AvenirNextLTPro-Regular-65" transform="translate(151.09996 0.203125)"/>
      <use xlink:href="#AvenirNextLTPro-Regular-20" transform="translate(208.299957 0.203125)"/>
      <use xlink:href="#DejaVuSans-Oblique-3ba" transform="translate(233.299942 0.203125)"/>
      <use xlink:href="#AvenirNextLTPro-Regular-20" transform="translate(292.235489 0.203125)"/>
      <use xlink:href="#AvenirNextLTPro-Regular-65" transform="translate(317.235474 0.203125)"/>
      <use xlink:href="#AvenirNextLTPro-Regular-73" transform="translate(374.435471 0.203125)"/>
      <use xlink:href="#AvenirNextLTPro-Regular-74" transform="translate(418.835464 0.203125)"/>
      <use xlink:href="#AvenirNextLTPro-Regular-69" transform="translate(450.535461 0.203125)"/>
      <use xlink:href="#AvenirNextLTPro-Regular-6d" transform="translate(475.535446 0.203125)"/>
      <use xlink:href="#AvenirNextLTPro-Regular-61" transform="translate(563.835434 0.203125)"/>
      <use xlink:href="#AvenirNextLTPro-Regular-74" transform="translate(617.235428 0.203125)"/>
      <use xlink:href="#AvenirNextLTPro-Regular-65" transform="translate(648.935425 0.203125)"/>
      <use xlink:href="#AvenirNextLTPro-Regular-73" transform="translate(706.135422 0.203125)"/>
     </g>
    </g>
   </g>
  </g>
 </g>
 <defs>
  <clipPath id="p68bc3c7936">
   <rect x="39.759375" y="26.64" width="446.4" height="249.48"/>
  </clipPath>
 </defs>
</svg>
