<?xml version="1.0" encoding="utf-8" standalone="no"?>
<!DOCTYPE svg PUBLIC "-//W3C//DTD SVG 1.1//EN"
  "http://www.w3.org/Graphics/SVG/1.1/DTD/svg11.dtd">
<svg height="324pt" version="1.1" viewBox="0 0 576 324" width="576pt" xmlns="http://www.w3.org/2000/svg" xmlns:xlink="http://www.w3.org/1999/xlink">
 <metadata>
  <rdf:RDF xmlns:cc="http://creativecommons.org/ns#" xmlns:dc="http://purl.org/dc/elements/1.1/" xmlns:rdf="http://www.w3.org/1999/02/22-rdf-syntax-ns#">
   <cc:Work>
    <dc:type rdf:resource="http://purl.org/dc/dcmitype/StillImage"/>
    <dc:date>2022-08-18T11:02:34.632250</dc:date>
    <dc:format>image/svg+xml</dc:format>
    <dc:creator>
     <cc:Agent>
      <dc:title>Matplotlib v3.4.3, https://matplotlib.org/</dc:title>
     </cc:Agent>
    </dc:creator>
   </cc:Work>
  </rdf:RDF>
 </metadata>
 <defs>
  <style type="text/css">*{stroke-linecap:butt;stroke-linejoin:round;}</style>
 </defs>
 <g id="figure_1">
  <g id="patch_1">
   <path d="M 0 324 
L 576 324 
L 576 0 
L 0 0 
z
" style="fill:#ffffff;"/>
  </g>
  <g id="axes_1">
   <g id="patch_2">
    <path d="M 72 288.36 
L 518.4 288.36 
L 518.4 38.88 
L 72 38.88 
z
" style="fill:#ffffff;"/>
   </g>
   <g id="matplotlib.axis_1">
    <g id="xtick_1">
     <g id="line2d_1">
      <defs>
       <path d="M 0 0 
L 0 3.5 
" id="maa098cfe0c" style="stroke:#000000;stroke-width:0.8;"/>
      </defs>
      <g>
       <use style="stroke:#000000;stroke-width:0.8;" x="72" xlink:href="#maa098cfe0c" y="288.36"/>
      </g>
     </g>
     <g id="text_1">
      <!-- 0.000 -->
      <g transform="translate(57.685938 302.958438)scale(0.1 -0.1)">
       <defs>
        <path d="M 2034 4250 
Q 1547 4250 1301 3770 
Q 1056 3291 1056 2328 
Q 1056 1369 1301 889 
Q 1547 409 2034 409 
Q 2525 409 2770 889 
Q 3016 1369 3016 2328 
Q 3016 3291 2770 3770 
Q 2525 4250 2034 4250 
z
M 2034 4750 
Q 2819 4750 3233 4129 
Q 3647 3509 3647 2328 
Q 3647 1150 3233 529 
Q 2819 -91 2034 -91 
Q 1250 -91 836 529 
Q 422 1150 422 2328 
Q 422 3509 836 4129 
Q 1250 4750 2034 4750 
z
" id="DejaVuSans-30" transform="scale(0.015625)"/>
        <path d="M 684 794 
L 1344 794 
L 1344 0 
L 684 0 
L 684 794 
z
" id="DejaVuSans-2e" transform="scale(0.015625)"/>
       </defs>
       <use xlink:href="#DejaVuSans-30"/>
       <use x="63.623047" xlink:href="#DejaVuSans-2e"/>
       <use x="95.410156" xlink:href="#DejaVuSans-30"/>
       <use x="159.033203" xlink:href="#DejaVuSans-30"/>
       <use x="222.65625" xlink:href="#DejaVuSans-30"/>
      </g>
     </g>
    </g>
    <g id="xtick_2">
     <g id="line2d_2">
      <g>
       <use style="stroke:#000000;stroke-width:0.8;" x="161.28" xlink:href="#maa098cfe0c" y="288.36"/>
      </g>
     </g>
     <g id="text_2">
      <!-- 0.002 -->
      <g transform="translate(146.965937 302.958438)scale(0.1 -0.1)">
       <defs>
        <path d="M 1228 531 
L 3431 531 
L 3431 0 
L 469 0 
L 469 531 
Q 828 903 1448 1529 
Q 2069 2156 2228 2338 
Q 2531 2678 2651 2914 
Q 2772 3150 2772 3378 
Q 2772 3750 2511 3984 
Q 2250 4219 1831 4219 
Q 1534 4219 1204 4116 
Q 875 4013 500 3803 
L 500 4441 
Q 881 4594 1212 4672 
Q 1544 4750 1819 4750 
Q 2544 4750 2975 4387 
Q 3406 4025 3406 3419 
Q 3406 3131 3298 2873 
Q 3191 2616 2906 2266 
Q 2828 2175 2409 1742 
Q 1991 1309 1228 531 
z
" id="DejaVuSans-32" transform="scale(0.015625)"/>
       </defs>
       <use xlink:href="#DejaVuSans-30"/>
       <use x="63.623047" xlink:href="#DejaVuSans-2e"/>
       <use x="95.410156" xlink:href="#DejaVuSans-30"/>
       <use x="159.033203" xlink:href="#DejaVuSans-30"/>
       <use x="222.65625" xlink:href="#DejaVuSans-32"/>
      </g>
     </g>
    </g>
    <g id="xtick_3">
     <g id="line2d_3">
      <g>
       <use style="stroke:#000000;stroke-width:0.8;" x="250.56" xlink:href="#maa098cfe0c" y="288.36"/>
      </g>
     </g>
     <g id="text_3">
      <!-- 0.004 -->
      <g transform="translate(236.245937 302.958438)scale(0.1 -0.1)">
       <defs>
        <path d="M 2419 4116 
L 825 1625 
L 2419 1625 
L 2419 4116 
z
M 2253 4666 
L 3047 4666 
L 3047 1625 
L 3713 1625 
L 3713 1100 
L 3047 1100 
L 3047 0 
L 2419 0 
L 2419 1100 
L 313 1100 
L 313 1709 
L 2253 4666 
z
" id="DejaVuSans-34" transform="scale(0.015625)"/>
       </defs>
       <use xlink:href="#DejaVuSans-30"/>
       <use x="63.623047" xlink:href="#DejaVuSans-2e"/>
       <use x="95.410156" xlink:href="#DejaVuSans-30"/>
       <use x="159.033203" xlink:href="#DejaVuSans-30"/>
       <use x="222.65625" xlink:href="#DejaVuSans-34"/>
      </g>
     </g>
    </g>
    <g id="xtick_4">
     <g id="line2d_4">
      <g>
       <use style="stroke:#000000;stroke-width:0.8;" x="339.84" xlink:href="#maa098cfe0c" y="288.36"/>
      </g>
     </g>
     <g id="text_4">
      <!-- 0.006 -->
      <g transform="translate(325.525938 302.958438)scale(0.1 -0.1)">
       <defs>
        <path d="M 2113 2584 
Q 1688 2584 1439 2293 
Q 1191 2003 1191 1497 
Q 1191 994 1439 701 
Q 1688 409 2113 409 
Q 2538 409 2786 701 
Q 3034 994 3034 1497 
Q 3034 2003 2786 2293 
Q 2538 2584 2113 2584 
z
M 3366 4563 
L 3366 3988 
Q 3128 4100 2886 4159 
Q 2644 4219 2406 4219 
Q 1781 4219 1451 3797 
Q 1122 3375 1075 2522 
Q 1259 2794 1537 2939 
Q 1816 3084 2150 3084 
Q 2853 3084 3261 2657 
Q 3669 2231 3669 1497 
Q 3669 778 3244 343 
Q 2819 -91 2113 -91 
Q 1303 -91 875 529 
Q 447 1150 447 2328 
Q 447 3434 972 4092 
Q 1497 4750 2381 4750 
Q 2619 4750 2861 4703 
Q 3103 4656 3366 4563 
z
" id="DejaVuSans-36" transform="scale(0.015625)"/>
       </defs>
       <use xlink:href="#DejaVuSans-30"/>
       <use x="63.623047" xlink:href="#DejaVuSans-2e"/>
       <use x="95.410156" xlink:href="#DejaVuSans-30"/>
       <use x="159.033203" xlink:href="#DejaVuSans-30"/>
       <use x="222.65625" xlink:href="#DejaVuSans-36"/>
      </g>
     </g>
    </g>
    <g id="xtick_5">
     <g id="line2d_5">
      <g>
       <use style="stroke:#000000;stroke-width:0.8;" x="429.12" xlink:href="#maa098cfe0c" y="288.36"/>
      </g>
     </g>
     <g id="text_5">
      <!-- 0.008 -->
      <g transform="translate(414.805938 302.958438)scale(0.1 -0.1)">
       <defs>
        <path d="M 2034 2216 
Q 1584 2216 1326 1975 
Q 1069 1734 1069 1313 
Q 1069 891 1326 650 
Q 1584 409 2034 409 
Q 2484 409 2743 651 
Q 3003 894 3003 1313 
Q 3003 1734 2745 1975 
Q 2488 2216 2034 2216 
z
M 1403 2484 
Q 997 2584 770 2862 
Q 544 3141 544 3541 
Q 544 4100 942 4425 
Q 1341 4750 2034 4750 
Q 2731 4750 3128 4425 
Q 3525 4100 3525 3541 
Q 3525 3141 3298 2862 
Q 3072 2584 2669 2484 
Q 3125 2378 3379 2068 
Q 3634 1759 3634 1313 
Q 3634 634 3220 271 
Q 2806 -91 2034 -91 
Q 1263 -91 848 271 
Q 434 634 434 1313 
Q 434 1759 690 2068 
Q 947 2378 1403 2484 
z
M 1172 3481 
Q 1172 3119 1398 2916 
Q 1625 2713 2034 2713 
Q 2441 2713 2670 2916 
Q 2900 3119 2900 3481 
Q 2900 3844 2670 4047 
Q 2441 4250 2034 4250 
Q 1625 4250 1398 4047 
Q 1172 3844 1172 3481 
z
" id="DejaVuSans-38" transform="scale(0.015625)"/>
       </defs>
       <use xlink:href="#DejaVuSans-30"/>
       <use x="63.623047" xlink:href="#DejaVuSans-2e"/>
       <use x="95.410156" xlink:href="#DejaVuSans-30"/>
       <use x="159.033203" xlink:href="#DejaVuSans-30"/>
       <use x="222.65625" xlink:href="#DejaVuSans-38"/>
      </g>
     </g>
    </g>
    <g id="xtick_6">
     <g id="line2d_6">
      <g>
       <use style="stroke:#000000;stroke-width:0.8;" x="518.4" xlink:href="#maa098cfe0c" y="288.36"/>
      </g>
     </g>
     <g id="text_6">
      <!-- 0.010 -->
      <g transform="translate(504.085938 302.958438)scale(0.1 -0.1)">
       <defs>
        <path d="M 794 531 
L 1825 531 
L 1825 4091 
L 703 3866 
L 703 4441 
L 1819 4666 
L 2450 4666 
L 2450 531 
L 3481 531 
L 3481 0 
L 794 0 
L 794 531 
z
" id="DejaVuSans-31" transform="scale(0.015625)"/>
       </defs>
       <use xlink:href="#DejaVuSans-30"/>
       <use x="63.623047" xlink:href="#DejaVuSans-2e"/>
       <use x="95.410156" xlink:href="#DejaVuSans-30"/>
       <use x="159.033203" xlink:href="#DejaVuSans-31"/>
       <use x="222.65625" xlink:href="#DejaVuSans-30"/>
      </g>
     </g>
    </g>
    <g id="text_7">
     <!-- Variance parameter - $\sigma^2$ -->
     <g transform="translate(234.45 318.138125)scale(0.1 -0.1)">
      <defs>
       <path d="M 1831 0 
L 50 4666 
L 709 4666 
L 2188 738 
L 3669 4666 
L 4325 4666 
L 2547 0 
L 1831 0 
z
" id="DejaVuSans-56" transform="scale(0.015625)"/>
       <path d="M 2194 1759 
Q 1497 1759 1228 1600 
Q 959 1441 959 1056 
Q 959 750 1161 570 
Q 1363 391 1709 391 
Q 2188 391 2477 730 
Q 2766 1069 2766 1631 
L 2766 1759 
L 2194 1759 
z
M 3341 1997 
L 3341 0 
L 2766 0 
L 2766 531 
Q 2569 213 2275 61 
Q 1981 -91 1556 -91 
Q 1019 -91 701 211 
Q 384 513 384 1019 
Q 384 1609 779 1909 
Q 1175 2209 1959 2209 
L 2766 2209 
L 2766 2266 
Q 2766 2663 2505 2880 
Q 2244 3097 1772 3097 
Q 1472 3097 1187 3025 
Q 903 2953 641 2809 
L 641 3341 
Q 956 3463 1253 3523 
Q 1550 3584 1831 3584 
Q 2591 3584 2966 3190 
Q 3341 2797 3341 1997 
z
" id="DejaVuSans-61" transform="scale(0.015625)"/>
       <path d="M 2631 2963 
Q 2534 3019 2420 3045 
Q 2306 3072 2169 3072 
Q 1681 3072 1420 2755 
Q 1159 2438 1159 1844 
L 1159 0 
L 581 0 
L 581 3500 
L 1159 3500 
L 1159 2956 
Q 1341 3275 1631 3429 
Q 1922 3584 2338 3584 
Q 2397 3584 2469 3576 
Q 2541 3569 2628 3553 
L 2631 2963 
z
" id="DejaVuSans-72" transform="scale(0.015625)"/>
       <path d="M 603 3500 
L 1178 3500 
L 1178 0 
L 603 0 
L 603 3500 
z
M 603 4863 
L 1178 4863 
L 1178 4134 
L 603 4134 
L 603 4863 
z
" id="DejaVuSans-69" transform="scale(0.015625)"/>
       <path d="M 3513 2113 
L 3513 0 
L 2938 0 
L 2938 2094 
Q 2938 2591 2744 2837 
Q 2550 3084 2163 3084 
Q 1697 3084 1428 2787 
Q 1159 2491 1159 1978 
L 1159 0 
L 581 0 
L 581 3500 
L 1159 3500 
L 1159 2956 
Q 1366 3272 1645 3428 
Q 1925 3584 2291 3584 
Q 2894 3584 3203 3211 
Q 3513 2838 3513 2113 
z
" id="DejaVuSans-6e" transform="scale(0.015625)"/>
       <path d="M 3122 3366 
L 3122 2828 
Q 2878 2963 2633 3030 
Q 2388 3097 2138 3097 
Q 1578 3097 1268 2742 
Q 959 2388 959 1747 
Q 959 1106 1268 751 
Q 1578 397 2138 397 
Q 2388 397 2633 464 
Q 2878 531 3122 666 
L 3122 134 
Q 2881 22 2623 -34 
Q 2366 -91 2075 -91 
Q 1284 -91 818 406 
Q 353 903 353 1747 
Q 353 2603 823 3093 
Q 1294 3584 2113 3584 
Q 2378 3584 2631 3529 
Q 2884 3475 3122 3366 
z
" id="DejaVuSans-63" transform="scale(0.015625)"/>
       <path d="M 3597 1894 
L 3597 1613 
L 953 1613 
Q 991 1019 1311 708 
Q 1631 397 2203 397 
Q 2534 397 2845 478 
Q 3156 559 3463 722 
L 3463 178 
Q 3153 47 2828 -22 
Q 2503 -91 2169 -91 
Q 1331 -91 842 396 
Q 353 884 353 1716 
Q 353 2575 817 3079 
Q 1281 3584 2069 3584 
Q 2775 3584 3186 3129 
Q 3597 2675 3597 1894 
z
M 3022 2063 
Q 3016 2534 2758 2815 
Q 2500 3097 2075 3097 
Q 1594 3097 1305 2825 
Q 1016 2553 972 2059 
L 3022 2063 
z
" id="DejaVuSans-65" transform="scale(0.015625)"/>
       <path id="DejaVuSans-20" transform="scale(0.015625)"/>
       <path d="M 1159 525 
L 1159 -1331 
L 581 -1331 
L 581 3500 
L 1159 3500 
L 1159 2969 
Q 1341 3281 1617 3432 
Q 1894 3584 2278 3584 
Q 2916 3584 3314 3078 
Q 3713 2572 3713 1747 
Q 3713 922 3314 415 
Q 2916 -91 2278 -91 
Q 1894 -91 1617 61 
Q 1341 213 1159 525 
z
M 3116 1747 
Q 3116 2381 2855 2742 
Q 2594 3103 2138 3103 
Q 1681 3103 1420 2742 
Q 1159 2381 1159 1747 
Q 1159 1113 1420 752 
Q 1681 391 2138 391 
Q 2594 391 2855 752 
Q 3116 1113 3116 1747 
z
" id="DejaVuSans-70" transform="scale(0.015625)"/>
       <path d="M 3328 2828 
Q 3544 3216 3844 3400 
Q 4144 3584 4550 3584 
Q 5097 3584 5394 3201 
Q 5691 2819 5691 2113 
L 5691 0 
L 5113 0 
L 5113 2094 
Q 5113 2597 4934 2840 
Q 4756 3084 4391 3084 
Q 3944 3084 3684 2787 
Q 3425 2491 3425 1978 
L 3425 0 
L 2847 0 
L 2847 2094 
Q 2847 2600 2669 2842 
Q 2491 3084 2119 3084 
Q 1678 3084 1418 2786 
Q 1159 2488 1159 1978 
L 1159 0 
L 581 0 
L 581 3500 
L 1159 3500 
L 1159 2956 
Q 1356 3278 1631 3431 
Q 1906 3584 2284 3584 
Q 2666 3584 2933 3390 
Q 3200 3197 3328 2828 
z
" id="DejaVuSans-6d" transform="scale(0.015625)"/>
       <path d="M 1172 4494 
L 1172 3500 
L 2356 3500 
L 2356 3053 
L 1172 3053 
L 1172 1153 
Q 1172 725 1289 603 
Q 1406 481 1766 481 
L 2356 481 
L 2356 0 
L 1766 0 
Q 1100 0 847 248 
Q 594 497 594 1153 
L 594 3053 
L 172 3053 
L 172 3500 
L 594 3500 
L 594 4494 
L 1172 4494 
z
" id="DejaVuSans-74" transform="scale(0.015625)"/>
       <path d="M 313 2009 
L 1997 2009 
L 1997 1497 
L 313 1497 
L 313 2009 
z
" id="DejaVuSans-2d" transform="scale(0.015625)"/>
       <path d="M 2219 3044 
Q 1744 3044 1422 2700 
Q 1081 2341 969 1747 
Q 844 1119 1044 756 
Q 1241 397 1706 397 
Q 2166 397 2503 759 
Q 2844 1122 2966 1747 
Q 3075 2319 2881 2700 
Q 2700 3044 2219 3044 
z
M 2309 3503 
L 4219 3500 
L 4106 2925 
L 3463 2925 
Q 3706 2438 3575 1747 
Q 3406 888 2884 400 
Q 2359 -91 1609 -91 
Q 856 -91 525 400 
Q 194 888 363 1747 
Q 528 2609 1050 3097 
Q 1484 3503 2309 3503 
z
" id="DejaVuSans-Oblique-3c3" transform="scale(0.015625)"/>
      </defs>
      <use transform="translate(0 0.765625)" xlink:href="#DejaVuSans-56"/>
      <use transform="translate(68.408203 0.765625)" xlink:href="#DejaVuSans-61"/>
      <use transform="translate(129.6875 0.765625)" xlink:href="#DejaVuSans-72"/>
      <use transform="translate(170.800781 0.765625)" xlink:href="#DejaVuSans-69"/>
      <use transform="translate(198.583984 0.765625)" xlink:href="#DejaVuSans-61"/>
      <use transform="translate(259.863281 0.765625)" xlink:href="#DejaVuSans-6e"/>
      <use transform="translate(323.242188 0.765625)" xlink:href="#DejaVuSans-63"/>
      <use transform="translate(378.222656 0.765625)" xlink:href="#DejaVuSans-65"/>
      <use transform="translate(439.746094 0.765625)" xlink:href="#DejaVuSans-20"/>
      <use transform="translate(471.533203 0.765625)" xlink:href="#DejaVuSans-70"/>
      <use transform="translate(535.009766 0.765625)" xlink:href="#DejaVuSans-61"/>
      <use transform="translate(596.289062 0.765625)" xlink:href="#DejaVuSans-72"/>
      <use transform="translate(637.402344 0.765625)" xlink:href="#DejaVuSans-61"/>
      <use transform="translate(698.681641 0.765625)" xlink:href="#DejaVuSans-6d"/>
      <use transform="translate(796.09375 0.765625)" xlink:href="#DejaVuSans-65"/>
      <use transform="translate(857.617188 0.765625)" xlink:href="#DejaVuSans-74"/>
      <use transform="translate(896.826172 0.765625)" xlink:href="#DejaVuSans-65"/>
      <use transform="translate(958.349609 0.765625)" xlink:href="#DejaVuSans-72"/>
      <use transform="translate(999.462891 0.765625)" xlink:href="#DejaVuSans-20"/>
      <use transform="translate(1031.25 0.765625)" xlink:href="#DejaVuSans-2d"/>
      <use transform="translate(1067.333984 0.765625)" xlink:href="#DejaVuSans-20"/>
      <use transform="translate(1099.121094 0.765625)" xlink:href="#DejaVuSans-Oblique-3c3"/>
      <use transform="translate(1166.972708 39.046875)scale(0.7)" xlink:href="#DejaVuSans-32"/>
     </g>
    </g>
   </g>
   <g id="matplotlib.axis_2">
    <g id="ytick_1">
     <g id="line2d_7">
      <defs>
       <path d="M 0 0 
L -3.5 0 
" id="m5d61081493" style="stroke:#000000;stroke-width:0.8;"/>
      </defs>
      <g>
       <use style="stroke:#000000;stroke-width:0.8;" x="72" xlink:href="#m5d61081493" y="271.286285"/>
      </g>
     </g>
     <g id="text_8">
      <!-- −20 -->
      <g transform="translate(43.895313 275.085504)scale(0.1 -0.1)">
       <defs>
        <path d="M 678 2272 
L 4684 2272 
L 4684 1741 
L 678 1741 
L 678 2272 
z
" id="DejaVuSans-2212" transform="scale(0.015625)"/>
       </defs>
       <use xlink:href="#DejaVuSans-2212"/>
       <use x="83.789062" xlink:href="#DejaVuSans-32"/>
       <use x="147.412109" xlink:href="#DejaVuSans-30"/>
      </g>
     </g>
    </g>
    <g id="ytick_2">
     <g id="line2d_8">
      <g>
       <use style="stroke:#000000;stroke-width:0.8;" x="72" xlink:href="#m5d61081493" y="216.019714"/>
      </g>
     </g>
     <g id="text_9">
      <!-- −15 -->
      <g transform="translate(43.895313 219.818933)scale(0.1 -0.1)">
       <defs>
        <path d="M 691 4666 
L 3169 4666 
L 3169 4134 
L 1269 4134 
L 1269 2991 
Q 1406 3038 1543 3061 
Q 1681 3084 1819 3084 
Q 2600 3084 3056 2656 
Q 3513 2228 3513 1497 
Q 3513 744 3044 326 
Q 2575 -91 1722 -91 
Q 1428 -91 1123 -41 
Q 819 9 494 109 
L 494 744 
Q 775 591 1075 516 
Q 1375 441 1709 441 
Q 2250 441 2565 725 
Q 2881 1009 2881 1497 
Q 2881 1984 2565 2268 
Q 2250 2553 1709 2553 
Q 1456 2553 1204 2497 
Q 953 2441 691 2322 
L 691 4666 
z
" id="DejaVuSans-35" transform="scale(0.015625)"/>
       </defs>
       <use xlink:href="#DejaVuSans-2212"/>
       <use x="83.789062" xlink:href="#DejaVuSans-31"/>
       <use x="147.412109" xlink:href="#DejaVuSans-35"/>
      </g>
     </g>
    </g>
    <g id="ytick_3">
     <g id="line2d_9">
      <g>
       <use style="stroke:#000000;stroke-width:0.8;" x="72" xlink:href="#m5d61081493" y="160.753143"/>
      </g>
     </g>
     <g id="text_10">
      <!-- −10 -->
      <g transform="translate(43.895313 164.552361)scale(0.1 -0.1)">
       <use xlink:href="#DejaVuSans-2212"/>
       <use x="83.789062" xlink:href="#DejaVuSans-31"/>
       <use x="147.412109" xlink:href="#DejaVuSans-30"/>
      </g>
     </g>
    </g>
    <g id="ytick_4">
     <g id="line2d_10">
      <g>
       <use style="stroke:#000000;stroke-width:0.8;" x="72" xlink:href="#m5d61081493" y="105.486571"/>
      </g>
     </g>
     <g id="text_11">
      <!-- −5 -->
      <g transform="translate(50.257812 109.28579)scale(0.1 -0.1)">
       <use xlink:href="#DejaVuSans-2212"/>
       <use x="83.789062" xlink:href="#DejaVuSans-35"/>
      </g>
     </g>
    </g>
    <g id="ytick_5">
     <g id="line2d_11">
      <g>
       <use style="stroke:#000000;stroke-width:0.8;" x="72" xlink:href="#m5d61081493" y="50.22"/>
      </g>
     </g>
     <g id="text_12">
      <!-- 0 -->
      <g transform="translate(58.6375 54.019219)scale(0.1 -0.1)">
       <use xlink:href="#DejaVuSans-30"/>
      </g>
     </g>
    </g>
    <g id="text_13">
     <!-- Log likelihood ratio, $\hat{\sigma}^2 = 0.000303...$ -->
     <g transform="translate(37.795312 257.82)rotate(-90)scale(0.1 -0.1)">
      <defs>
       <path d="M 628 4666 
L 1259 4666 
L 1259 531 
L 3531 531 
L 3531 0 
L 628 0 
L 628 4666 
z
" id="DejaVuSans-4c" transform="scale(0.015625)"/>
       <path d="M 1959 3097 
Q 1497 3097 1228 2736 
Q 959 2375 959 1747 
Q 959 1119 1226 758 
Q 1494 397 1959 397 
Q 2419 397 2687 759 
Q 2956 1122 2956 1747 
Q 2956 2369 2687 2733 
Q 2419 3097 1959 3097 
z
M 1959 3584 
Q 2709 3584 3137 3096 
Q 3566 2609 3566 1747 
Q 3566 888 3137 398 
Q 2709 -91 1959 -91 
Q 1206 -91 779 398 
Q 353 888 353 1747 
Q 353 2609 779 3096 
Q 1206 3584 1959 3584 
z
" id="DejaVuSans-6f" transform="scale(0.015625)"/>
       <path d="M 2906 1791 
Q 2906 2416 2648 2759 
Q 2391 3103 1925 3103 
Q 1463 3103 1205 2759 
Q 947 2416 947 1791 
Q 947 1169 1205 825 
Q 1463 481 1925 481 
Q 2391 481 2648 825 
Q 2906 1169 2906 1791 
z
M 3481 434 
Q 3481 -459 3084 -895 
Q 2688 -1331 1869 -1331 
Q 1566 -1331 1297 -1286 
Q 1028 -1241 775 -1147 
L 775 -588 
Q 1028 -725 1275 -790 
Q 1522 -856 1778 -856 
Q 2344 -856 2625 -561 
Q 2906 -266 2906 331 
L 2906 616 
Q 2728 306 2450 153 
Q 2172 0 1784 0 
Q 1141 0 747 490 
Q 353 981 353 1791 
Q 353 2603 747 3093 
Q 1141 3584 1784 3584 
Q 2172 3584 2450 3431 
Q 2728 3278 2906 2969 
L 2906 3500 
L 3481 3500 
L 3481 434 
z
" id="DejaVuSans-67" transform="scale(0.015625)"/>
       <path d="M 603 4863 
L 1178 4863 
L 1178 0 
L 603 0 
L 603 4863 
z
" id="DejaVuSans-6c" transform="scale(0.015625)"/>
       <path d="M 581 4863 
L 1159 4863 
L 1159 1991 
L 2875 3500 
L 3609 3500 
L 1753 1863 
L 3688 0 
L 2938 0 
L 1159 1709 
L 1159 0 
L 581 0 
L 581 4863 
z
" id="DejaVuSans-6b" transform="scale(0.015625)"/>
       <path d="M 3513 2113 
L 3513 0 
L 2938 0 
L 2938 2094 
Q 2938 2591 2744 2837 
Q 2550 3084 2163 3084 
Q 1697 3084 1428 2787 
Q 1159 2491 1159 1978 
L 1159 0 
L 581 0 
L 581 4863 
L 1159 4863 
L 1159 2956 
Q 1366 3272 1645 3428 
Q 1925 3584 2291 3584 
Q 2894 3584 3203 3211 
Q 3513 2838 3513 2113 
z
" id="DejaVuSans-68" transform="scale(0.015625)"/>
       <path d="M 2906 2969 
L 2906 4863 
L 3481 4863 
L 3481 0 
L 2906 0 
L 2906 525 
Q 2725 213 2448 61 
Q 2172 -91 1784 -91 
Q 1150 -91 751 415 
Q 353 922 353 1747 
Q 353 2572 751 3078 
Q 1150 3584 1784 3584 
Q 2172 3584 2448 3432 
Q 2725 3281 2906 2969 
z
M 947 1747 
Q 947 1113 1208 752 
Q 1469 391 1925 391 
Q 2381 391 2643 752 
Q 2906 1113 2906 1747 
Q 2906 2381 2643 2742 
Q 2381 3103 1925 3103 
Q 1469 3103 1208 2742 
Q 947 2381 947 1747 
z
" id="DejaVuSans-64" transform="scale(0.015625)"/>
       <path d="M 750 794 
L 1409 794 
L 1409 256 
L 897 -744 
L 494 -744 
L 750 256 
L 750 794 
z
" id="DejaVuSans-2c" transform="scale(0.015625)"/>
       <path d="M -1831 5119 
L -1369 5119 
L -603 3944 
L -1038 3944 
L -1600 4709 
L -2163 3944 
L -2597 3944 
L -1831 5119 
z
M -1600 3584 
L -1600 3584 
z
" id="DejaVuSans-302" transform="scale(0.015625)"/>
       <path d="M 678 2906 
L 4684 2906 
L 4684 2381 
L 678 2381 
L 678 2906 
z
M 678 1631 
L 4684 1631 
L 4684 1100 
L 678 1100 
L 678 1631 
z
" id="DejaVuSans-3d" transform="scale(0.015625)"/>
       <path d="M 2597 2516 
Q 3050 2419 3304 2112 
Q 3559 1806 3559 1356 
Q 3559 666 3084 287 
Q 2609 -91 1734 -91 
Q 1441 -91 1130 -33 
Q 819 25 488 141 
L 488 750 
Q 750 597 1062 519 
Q 1375 441 1716 441 
Q 2309 441 2620 675 
Q 2931 909 2931 1356 
Q 2931 1769 2642 2001 
Q 2353 2234 1838 2234 
L 1294 2234 
L 1294 2753 
L 1863 2753 
Q 2328 2753 2575 2939 
Q 2822 3125 2822 3475 
Q 2822 3834 2567 4026 
Q 2313 4219 1838 4219 
Q 1578 4219 1281 4162 
Q 984 4106 628 3988 
L 628 4550 
Q 988 4650 1302 4700 
Q 1616 4750 1894 4750 
Q 2613 4750 3031 4423 
Q 3450 4097 3450 3541 
Q 3450 3153 3228 2886 
Q 3006 2619 2597 2516 
z
" id="DejaVuSans-33" transform="scale(0.015625)"/>
      </defs>
      <use transform="translate(0 0.78125)" xlink:href="#DejaVuSans-4c"/>
      <use transform="translate(55.712891 0.78125)" xlink:href="#DejaVuSans-6f"/>
      <use transform="translate(116.894531 0.78125)" xlink:href="#DejaVuSans-67"/>
      <use transform="translate(180.371094 0.78125)" xlink:href="#DejaVuSans-20"/>
      <use transform="translate(212.158203 0.78125)" xlink:href="#DejaVuSans-6c"/>
      <use transform="translate(239.941406 0.78125)" xlink:href="#DejaVuSans-69"/>
      <use transform="translate(267.724609 0.78125)" xlink:href="#DejaVuSans-6b"/>
      <use transform="translate(325.634766 0.78125)" xlink:href="#DejaVuSans-65"/>
      <use transform="translate(387.158203 0.78125)" xlink:href="#DejaVuSans-6c"/>
      <use transform="translate(414.941406 0.78125)" xlink:href="#DejaVuSans-69"/>
      <use transform="translate(442.724609 0.78125)" xlink:href="#DejaVuSans-68"/>
      <use transform="translate(506.103516 0.78125)" xlink:href="#DejaVuSans-6f"/>
      <use transform="translate(567.285156 0.78125)" xlink:href="#DejaVuSans-6f"/>
      <use transform="translate(628.466797 0.78125)" xlink:href="#DejaVuSans-64"/>
      <use transform="translate(691.943359 0.78125)" xlink:href="#DejaVuSans-20"/>
      <use transform="translate(723.730469 0.78125)" xlink:href="#DejaVuSans-72"/>
      <use transform="translate(764.84375 0.78125)" xlink:href="#DejaVuSans-61"/>
      <use transform="translate(826.123047 0.78125)" xlink:href="#DejaVuSans-74"/>
      <use transform="translate(865.332031 0.78125)" xlink:href="#DejaVuSans-69"/>
      <use transform="translate(893.115234 0.78125)" xlink:href="#DejaVuSans-6f"/>
      <use transform="translate(954.296875 0.78125)" xlink:href="#DejaVuSans-2c"/>
      <use transform="translate(986.083984 0.78125)" xlink:href="#DejaVuSans-20"/>
      <use transform="translate(1082.293945 12.015625)" xlink:href="#DejaVuSans-302"/>
      <use transform="translate(1017.871094 0.78125)" xlink:href="#DejaVuSans-Oblique-3c3"/>
      <use transform="translate(1082.207031 39.0625)scale(0.7)" xlink:href="#DejaVuSans-32"/>
      <use transform="translate(1148.959961 0.78125)" xlink:href="#DejaVuSans-3d"/>
      <use transform="translate(1252.231445 0.78125)" xlink:href="#DejaVuSans-30"/>
      <use transform="translate(1315.854492 0.78125)" xlink:href="#DejaVuSans-2e"/>
      <use transform="translate(1347.641602 0.78125)" xlink:href="#DejaVuSans-30"/>
      <use transform="translate(1411.264648 0.78125)" xlink:href="#DejaVuSans-30"/>
      <use transform="translate(1474.887695 0.78125)" xlink:href="#DejaVuSans-30"/>
      <use transform="translate(1538.510742 0.78125)" xlink:href="#DejaVuSans-33"/>
      <use transform="translate(1602.133789 0.78125)" xlink:href="#DejaVuSans-30"/>
      <use transform="translate(1665.756836 0.78125)" xlink:href="#DejaVuSans-33"/>
      <use transform="translate(1729.379883 0.78125)" xlink:href="#DejaVuSans-2e"/>
      <use transform="translate(1780.649414 0.78125)" xlink:href="#DejaVuSans-2e"/>
      <use transform="translate(1831.918945 0.78125)" xlink:href="#DejaVuSans-2e"/>
     </g>
    </g>
   </g>
   <g id="line2d_12">
    <path clip-path="url(#pc33b00709d)" d="M 72 241.064501 
L 76.509091 84.287442 
L 81.018182 57.352147 
L 85.527273 50.22 
L 90.036364 50.220014 
L 94.545455 59.060532 
L 99.054545 64.669257 
L 103.563636 66.854872 
L 108.072727 76.77763 
L 112.581818 79.673623 
L 117.090909 86.570875 
L 121.6 94.096309 
L 126.109091 97.019158 
L 130.618182 101.659212 
L 135.127273 110.166334 
L 139.636364 116.888878 
L 144.145455 120.296943 
L 148.654545 123.696855 
L 153.163636 127.939375 
L 157.672727 131.163781 
L 162.181818 135.223145 
L 166.690909 144.046777 
L 171.2 147.783363 
L 175.709091 147.598508 
L 180.218182 149.45257 
L 184.727273 153.774505 
L 189.236364 156.09169 
L 193.745455 164.108481 
L 198.254545 160.707029 
L 202.763636 169.260779 
L 207.272727 172.402314 
L 211.781818 173.488509 
L 216.290909 178.658382 
L 220.8 179.557913 
L 225.309091 182.731504 
L 229.818182 184.449257 
L 234.327273 188.345682 
L 238.836364 190.579137 
L 243.345455 192.641915 
L 247.854545 198.160044 
L 252.363636 196.278561 
L 256.872727 202.160032 
L 261.381818 203.096048 
L 265.890909 203.434476 
L 270.4 206.833601 
L 274.909091 209.199652 
L 279.418182 207.961994 
L 283.927273 212.834565 
L 288.436364 214.883463 
L 292.945455 215.865741 
L 297.454545 218.857239 
L 301.963636 218.591014 
L 306.472727 219.255556 
L 310.981818 223.29394 
L 315.490909 226.155269 
L 320 224.278977 
L 324.509091 226.854821 
L 329.018182 234.774574 
L 333.527273 233.318444 
L 338.036364 233.464145 
L 342.545455 233.293544 
L 347.054545 235.723375 
L 351.563636 239.171408 
L 356.072727 235.647726 
L 360.581818 242.160574 
L 365.090909 247.025219 
L 369.6 241.547571 
L 374.109091 243.054048 
L 378.618182 247.160158 
L 383.127273 245.166915 
L 387.636364 249.69274 
L 392.145455 248.382202 
L 396.654545 249.389989 
L 401.163636 251.987845 
L 405.672727 253.84744 
L 410.181818 255.472235 
L 414.690909 255.112101 
L 419.2 255.725408 
L 423.709091 259.630907 
L 428.218182 262.918525 
L 432.727273 261.266223 
L 437.236364 258.919893 
L 441.745455 265.492316 
L 446.254545 265.496129 
L 450.763636 266.464385 
L 455.272727 265.065859 
L 459.781818 263.600202 
L 464.290909 265.101556 
L 468.8 268.177239 
L 473.309091 268.336564 
L 477.818182 268.842651 
L 482.327273 269.185776 
L 486.836364 272.646564 
L 491.345455 275.541485 
L 495.854545 275.382032 
L 500.363636 276.578625 
L 504.872727 274.331152 
L 509.381818 275.853008 
L 513.890909 275.857616 
L 518.4 277.02 
" style="fill:none;stroke:#1f77b4;stroke-linecap:square;stroke-width:1.5;"/>
   </g>
   <g id="line2d_13">
    <path clip-path="url(#pc33b00709d)" d="M 85.527273 288.36 
L 85.527273 38.88 
" style="fill:none;stroke:#8b0000;stroke-dasharray:5.55,2.4;stroke-dashoffset:0;stroke-width:1.5;"/>
   </g>
   <g id="patch_3">
    <path d="M 72 288.36 
L 72 38.88 
" style="fill:none;stroke:#000000;stroke-linecap:square;stroke-linejoin:miter;stroke-width:0.8;"/>
   </g>
   <g id="patch_4">
    <path d="M 518.4 288.36 
L 518.4 38.88 
" style="fill:none;stroke:#000000;stroke-linecap:square;stroke-linejoin:miter;stroke-width:0.8;"/>
   </g>
   <g id="patch_5">
    <path d="M 72 288.36 
L 518.4 288.36 
" style="fill:none;stroke:#000000;stroke-linecap:square;stroke-linejoin:miter;stroke-width:0.8;"/>
   </g>
   <g id="patch_6">
    <path d="M 72 38.88 
L 518.4 38.88 
" style="fill:none;stroke:#000000;stroke-linecap:square;stroke-linejoin:miter;stroke-width:0.8;"/>
   </g>
   <g id="text_14">
    <!-- Log likelihood ratio w.r.t. variance MLE $\hat \sigma^2$ -->
    <g transform="translate(167.88 32.88)scale(0.12 -0.12)">
     <defs>
      <path d="M 269 3500 
L 844 3500 
L 1563 769 
L 2278 3500 
L 2956 3500 
L 3675 769 
L 4391 3500 
L 4966 3500 
L 4050 0 
L 3372 0 
L 2619 2869 
L 1863 0 
L 1184 0 
L 269 3500 
z
" id="DejaVuSans-77" transform="scale(0.015625)"/>
      <path d="M 191 3500 
L 800 3500 
L 1894 563 
L 2988 3500 
L 3597 3500 
L 2284 0 
L 1503 0 
L 191 3500 
z
" id="DejaVuSans-76" transform="scale(0.015625)"/>
      <path d="M 628 4666 
L 1569 4666 
L 2759 1491 
L 3956 4666 
L 4897 4666 
L 4897 0 
L 4281 0 
L 4281 4097 
L 3078 897 
L 2444 897 
L 1241 4097 
L 1241 0 
L 628 0 
L 628 4666 
z
" id="DejaVuSans-4d" transform="scale(0.015625)"/>
      <path d="M 628 4666 
L 3578 4666 
L 3578 4134 
L 1259 4134 
L 1259 2753 
L 3481 2753 
L 3481 2222 
L 1259 2222 
L 1259 531 
L 3634 531 
L 3634 0 
L 628 0 
L 628 4666 
z
" id="DejaVuSans-45" transform="scale(0.015625)"/>
     </defs>
     <use transform="translate(0 0.765625)" xlink:href="#DejaVuSans-4c"/>
     <use transform="translate(55.712891 0.765625)" xlink:href="#DejaVuSans-6f"/>
     <use transform="translate(116.894531 0.765625)" xlink:href="#DejaVuSans-67"/>
     <use transform="translate(180.371094 0.765625)" xlink:href="#DejaVuSans-20"/>
     <use transform="translate(212.158203 0.765625)" xlink:href="#DejaVuSans-6c"/>
     <use transform="translate(239.941406 0.765625)" xlink:href="#DejaVuSans-69"/>
     <use transform="translate(267.724609 0.765625)" xlink:href="#DejaVuSans-6b"/>
     <use transform="translate(325.634766 0.765625)" xlink:href="#DejaVuSans-65"/>
     <use transform="translate(387.158203 0.765625)" xlink:href="#DejaVuSans-6c"/>
     <use transform="translate(414.941406 0.765625)" xlink:href="#DejaVuSans-69"/>
     <use transform="translate(442.724609 0.765625)" xlink:href="#DejaVuSans-68"/>
     <use transform="translate(506.103516 0.765625)" xlink:href="#DejaVuSans-6f"/>
     <use transform="translate(567.285156 0.765625)" xlink:href="#DejaVuSans-6f"/>
     <use transform="translate(628.466797 0.765625)" xlink:href="#DejaVuSans-64"/>
     <use transform="translate(691.943359 0.765625)" xlink:href="#DejaVuSans-20"/>
     <use transform="translate(723.730469 0.765625)" xlink:href="#DejaVuSans-72"/>
     <use transform="translate(764.84375 0.765625)" xlink:href="#DejaVuSans-61"/>
     <use transform="translate(826.123047 0.765625)" xlink:href="#DejaVuSans-74"/>
     <use transform="translate(865.332031 0.765625)" xlink:href="#DejaVuSans-69"/>
     <use transform="translate(893.115234 0.765625)" xlink:href="#DejaVuSans-6f"/>
     <use transform="translate(954.296875 0.765625)" xlink:href="#DejaVuSans-20"/>
     <use transform="translate(986.083984 0.765625)" xlink:href="#DejaVuSans-77"/>
     <use transform="translate(1067.871094 0.765625)" xlink:href="#DejaVuSans-2e"/>
     <use transform="translate(1099.658203 0.765625)" xlink:href="#DejaVuSans-72"/>
     <use transform="translate(1140.771484 0.765625)" xlink:href="#DejaVuSans-2e"/>
     <use transform="translate(1172.558594 0.765625)" xlink:href="#DejaVuSans-74"/>
     <use transform="translate(1211.767578 0.765625)" xlink:href="#DejaVuSans-2e"/>
     <use transform="translate(1243.554688 0.765625)" xlink:href="#DejaVuSans-20"/>
     <use transform="translate(1275.341797 0.765625)" xlink:href="#DejaVuSans-76"/>
     <use transform="translate(1334.521484 0.765625)" xlink:href="#DejaVuSans-61"/>
     <use transform="translate(1395.800781 0.765625)" xlink:href="#DejaVuSans-72"/>
     <use transform="translate(1436.914062 0.765625)" xlink:href="#DejaVuSans-69"/>
     <use transform="translate(1464.697266 0.765625)" xlink:href="#DejaVuSans-61"/>
     <use transform="translate(1525.976562 0.765625)" xlink:href="#DejaVuSans-6e"/>
     <use transform="translate(1589.355469 0.765625)" xlink:href="#DejaVuSans-63"/>
     <use transform="translate(1644.335938 0.765625)" xlink:href="#DejaVuSans-65"/>
     <use transform="translate(1705.859375 0.765625)" xlink:href="#DejaVuSans-20"/>
     <use transform="translate(1737.646484 0.765625)" xlink:href="#DejaVuSans-4d"/>
     <use transform="translate(1823.925781 0.765625)" xlink:href="#DejaVuSans-4c"/>
     <use transform="translate(1879.638672 0.765625)" xlink:href="#DejaVuSans-45"/>
     <use transform="translate(1942.822266 0.765625)" xlink:href="#DejaVuSans-20"/>
     <use transform="translate(2019.134277 -42.734375)" xlink:href="#DejaVuSans-302"/>
     <use transform="translate(1974.609375 0.765625)" xlink:href="#DejaVuSans-20"/>
     <use transform="translate(2006.396484 0.765625)" xlink:href="#DejaVuSans-Oblique-3c3"/>
     <use transform="translate(2074.248099 39.046875)scale(0.7)" xlink:href="#DejaVuSans-32"/>
    </g>
   </g>
   <g id="legend_1">
    <g id="patch_7">
     <path d="M 392.8 61.558125 
L 511.4 61.558125 
Q 513.4 61.558125 513.4 59.558125 
L 513.4 45.88 
Q 513.4 43.88 511.4 43.88 
L 392.8 43.88 
Q 390.8 43.88 390.8 45.88 
L 390.8 59.558125 
Q 390.8 61.558125 392.8 61.558125 
z
" style="fill:#ffffff;opacity:0.8;stroke:#cccccc;stroke-linejoin:miter;"/>
    </g>
    <g id="line2d_14">
     <path d="M 394.8 51.978437 
L 414.8 51.978437 
" style="fill:none;stroke:#8b0000;stroke-dasharray:5.55,2.4;stroke-dashoffset:0;stroke-width:1.5;"/>
    </g>
    <g id="line2d_15"/>
    <g id="text_15">
     <!-- $\hat{\sigma}^2 = 0.000303...$ -->
     <g transform="translate(422.8 55.478437)scale(0.1 -0.1)">
      <use transform="translate(64.422852 12.015625)" xlink:href="#DejaVuSans-302"/>
      <use transform="translate(0 0.78125)" xlink:href="#DejaVuSans-Oblique-3c3"/>
      <use transform="translate(64.335938 39.0625)scale(0.7)" xlink:href="#DejaVuSans-32"/>
      <use transform="translate(131.088867 0.78125)" xlink:href="#DejaVuSans-3d"/>
      <use transform="translate(234.360352 0.78125)" xlink:href="#DejaVuSans-30"/>
      <use transform="translate(297.983398 0.78125)" xlink:href="#DejaVuSans-2e"/>
      <use transform="translate(329.770508 0.78125)" xlink:href="#DejaVuSans-30"/>
      <use transform="translate(393.393555 0.78125)" xlink:href="#DejaVuSans-30"/>
      <use transform="translate(457.016602 0.78125)" xlink:href="#DejaVuSans-30"/>
      <use transform="translate(520.639648 0.78125)" xlink:href="#DejaVuSans-33"/>
      <use transform="translate(584.262695 0.78125)" xlink:href="#DejaVuSans-30"/>
      <use transform="translate(647.885742 0.78125)" xlink:href="#DejaVuSans-33"/>
      <use transform="translate(711.508789 0.78125)" xlink:href="#DejaVuSans-2e"/>
      <use transform="translate(762.77832 0.78125)" xlink:href="#DejaVuSans-2e"/>
      <use transform="translate(814.047852 0.78125)" xlink:href="#DejaVuSans-2e"/>
     </g>
    </g>
   </g>
  </g>
 </g>
 <defs>
  <clipPath id="pc33b00709d">
   <rect height="249.48" width="446.4" x="72" y="38.88"/>
  </clipPath>
 </defs>
</svg>
